<svg width="44" height="44" viewBox="0 0 44 44" fill="none" xmlns="http://www.w3.org/2000/svg">
<path d="M22 43.4444C17.7038 43.4444 13.504 42.1704 9.93183 39.7835C6.35963 37.3967 3.57545 34.0041 1.93134 30.0349C0.287244 26.0657 -0.142928 21.6981 0.695228 17.4844C1.53338 13.2707 3.60222 9.40019 6.64012 6.36229C9.67803 3.32439 13.5485 1.25555 17.7622 0.417395C21.9759 -0.42076 26.3435 0.00941204 30.3128 1.65351C34.282 3.29761 37.6745 6.0818 40.0614 9.654C42.4482 13.2262 43.7222 17.426 43.7222 21.7222C43.7147 27.481 41.4237 33.0017 37.3516 37.0738C33.2796 41.1459 27.7588 43.4369 22 43.4444V43.4444ZM22 2.03126C18.1055 2.03126 14.2985 3.18611 11.0603 5.34978C7.82217 7.51345 5.29834 10.5888 3.80798 14.1868C2.31761 17.7849 1.92767 21.744 2.68745 25.5637C3.44723 29.3834 5.32261 32.892 8.07643 35.6458C10.8303 38.3996 14.3389 40.275 18.1585 41.0348C21.9782 41.7946 25.9374 41.4046 29.5354 39.9143C33.1335 38.4239 36.2088 35.9001 38.3724 32.6619C40.5361 29.4237 41.691 25.6167 41.691 21.7222C41.6856 16.5015 39.6093 11.4961 35.9177 7.80454C32.2261 4.11294 27.2207 2.03664 22 2.03126V2.03126Z" fill="white"/>
<path d="M34.8822 10.2781L33.44 11.7162C35.8696 14.4833 37.2094 18.0398 37.2094 21.7221C37.2094 25.4045 35.8696 28.961 33.44 31.7281L34.8822 33.1662C37.6901 30.0155 39.2417 25.9425 39.2417 21.7221C39.2417 17.5018 37.6901 13.4288 34.8822 10.2781V10.2781Z" fill="white"/>
<path d="M11.9941 10.2821C14.7612 7.85258 18.3177 6.51279 22 6.51279C25.6824 6.51279 29.2389 7.85258 32.006 10.2821L33.4441 8.83995C30.2934 6.03205 26.2204 4.48047 22 4.48047C17.7797 4.48047 13.7067 6.03205 10.556 8.83995L11.9941 10.2821Z" fill="white"/>
<path d="M10.56 31.7281C8.13047 28.961 6.79068 25.4045 6.79068 21.7221C6.79068 18.0398 8.13047 14.4833 10.56 11.7162L9.11785 10.2781C6.30994 13.4288 4.75836 17.5018 4.75836 21.7221C4.75836 25.9425 6.30994 30.0155 9.11785 33.1662L10.56 31.7281Z" fill="white"/>
<path d="M32.006 33.1621C29.2389 35.5917 25.6824 36.9315 22 36.9315C18.3177 36.9315 14.7612 35.5917 11.9941 33.1621L10.556 34.6043C13.7067 37.4122 17.7797 38.9638 22 38.9638C26.2204 38.9638 30.2934 37.4122 33.4441 34.6043L32.006 33.1621Z" fill="white"/>
<path d="M30.125 23.0912C29.5603 21.5068 27.6144 20.8609 27.6144 20.8609C28.2093 20.4693 28.6721 19.9074 28.9425 19.2486C29.2128 18.5897 29.2781 17.8646 29.1297 17.1681C28.8453 15.5431 27.3991 14.1334 24.661 14.0562V10.5381H22.455V14.0481H20.6147V10.5381H18.3925V14.0481H14.8175V16.2621H16.991V27.0034H14.8175V29.3596H18.3925V32.8737H20.6147V29.3434H22.455V32.8575H24.6772V29.3434H25.1891C29.5197 29.2784 31.1041 25.8212 30.125 23.0912ZM20.6716 16.2621C20.6716 16.2621 21.5775 16.2621 22.8653 16.2621C24.1532 16.2621 25.25 17.0543 25.2703 18.269C25.2737 18.5713 25.2162 18.8712 25.1013 19.1508C24.9864 19.4304 24.8165 19.6841 24.6016 19.8967C24.3867 20.1093 24.1313 20.2765 23.8504 20.3884C23.5696 20.5004 23.2691 20.5546 22.9669 20.5481C21.7482 20.5481 20.6716 20.5481 20.6716 20.5481V16.2621ZM23.625 27.0034C22.3535 27.0278 20.6878 27.0034 20.6878 27.0034V22.5346C20.6878 22.5346 22.195 22.5346 23.5316 22.5346C25.116 22.5062 26.2819 23.2415 26.3022 24.639C26.3225 26.0365 25.3272 26.9506 23.625 27.0034Z" fill="white"/>
</svg>
