<svg width="58" height="61" viewBox="0 0 58 61" fill="none" xmlns="http://www.w3.org/2000/svg">
<g clip-path="url(#clip0_0_550)">
<path d="M42.62 2.61005H15.05C6.73811 2.61005 0 9.34816 0 17.66V45.23C0 53.5419 6.73811 60.28 15.05 60.28H42.62C50.9319 60.28 57.67 53.5419 57.67 45.23V17.66C57.67 9.34816 50.9319 2.61005 42.62 2.61005Z" fill="#2B0038"/>
<path d="M57.68 15.37V42.96C57.6855 45.6288 56.974 48.2501 55.62 50.55C55.62 50.55 55.62 50.55 55.62 50.62C55.6012 50.6563 55.5777 50.6899 55.55 50.72C55.29 51.12 55.03 51.5 54.76 51.87C54.1323 52.6966 53.4257 53.4602 52.65 54.15C49.9066 56.5744 46.3712 57.9117 42.71 57.91H15.05C12.6163 57.9129 10.2185 57.3235 8.06344 56.1928C5.90835 55.0622 4.06072 53.4241 2.68001 51.42C0.949643 48.9199 0.025021 45.9505 0.0300497 42.91V15.37C0.0432818 11.3872 1.63472 7.57196 4.45571 4.76035C7.2767 1.94873 11.0972 0.369973 15.08 0.369995H42.6601C46.6377 0.377902 50.4505 1.96014 53.265 4.7709C56.0795 7.58167 57.6668 11.3923 57.68 15.37Z" fill="#46056D"/>
<g style="mix-blend-mode:soft-light" opacity="0.2">
<path d="M1.45001 49.3801C1.75001 36.2601 20.11 53.1101 32.16 53.1101C44.21 53.1101 49.85 39.83 54.63 41.76C59.41 43.69 54.37 54.5301 45.73 56.8501C37.09 59.1701 15.96 58.1101 10.52 57.3001C5.08002 56.4901 1.45001 49.3801 1.45001 49.3801Z" fill="white"/>
</g>
<g style="mix-blend-mode:soft-light">
<path d="M55.58 50.61C55.5606 50.6605 55.5336 50.7077 55.5 50.75C55.2597 51.1487 54.996 51.5327 54.71 51.9C54.0823 52.7266 53.3757 53.4902 52.6 54.18C49.8566 56.6044 46.3212 57.9417 42.66 57.94H15.05C12.6163 57.9429 10.2185 57.3535 8.06342 56.2228C5.90833 55.0922 4.0607 53.4541 2.67999 51.45L2.48999 51.04C2.89999 51.36 11.26 57.87 31.05 57.87C49.46 57.87 54.71 51.87 55.54 50.7C55.5566 50.6715 55.5699 50.6413 55.58 50.61Z" fill="#BF77D8"/>
</g>
<path d="M47.95 42.23C47.65 43.74 47.29 44.73 46.88 44.98H46.83C46.4649 45.1627 46.0735 45.2875 45.67 45.35H45.59C41.7328 45.9031 37.8348 46.1206 33.94 46H33.64C29.3483 46.0002 25.0615 45.7062 20.81 45.12C19.7481 45.0141 18.7231 44.6725 17.81 44.12C17.6977 43.9976 17.6095 43.8551 17.55 43.7C15.55 39.33 14.64 9.15001 16.55 7.41001C18.46 5.67001 25.26 5.07 32.25 4.99H32.8C40.23 4.94 47.5301 5.59 48.4101 6.65C49.8001 8.52 49.7 33.69 47.95 42.23Z" fill="#FF7E83"/>
<path d="M45.6 43.08C45.51 43.7891 45.2026 44.4528 44.72 44.98C44.2906 45.1988 43.8275 45.3442 43.35 45.4101C40.2394 45.8792 37.0956 46.0933 33.95 46.05H33.65C27.13 46.05 19.65 45.64 16.71 44.74C16.3066 44.6442 15.9282 44.4635 15.6 44.21C14.07 42.72 13.09 26.04 13.31 15.65C13.41 11.29 13.72 8.04003 14.31 7.51003C16.22 5.73003 24.52 5.04004 32.18 5.09004H32.73C39.3601 5.17004 45.37 5.80005 46.17 6.75005C47.68 8.58005 47.53 35.5 45.6 43.08Z" fill="#C72C5B"/>
<path d="M17.21 6.26003C17.21 6.26003 31.94 3.56004 46.21 6.74004H48.38C48.38 6.74004 47.24 5.39006 39.72 4.85006C32.1875 4.29278 24.6141 4.76714 17.21 6.26003Z" fill="#FFEDE2"/>
<path d="M46.89 44.9601H46.84C46.4643 45.1153 46.0762 45.2391 45.68 45.33H45.6C43.8 45.77 39.81 46.3901 31.8 46.2401C19.94 46.0301 16.9 44.75 16.71 44.67C16.71 44.67 18.29 44.8701 20.81 45.1001C25.5297 45.5459 30.2695 45.7461 35.01 45.7C35.44 45.7 35.86 45.7 36.26 45.7C38.37 45.7 40.1 45.5801 41.5 45.5001C42.19 45.5001 42.79 45.4201 43.32 45.3701C44.5177 45.3115 45.7102 45.1745 46.89 44.9601Z" fill="#C92F6A"/>
<g style="mix-blend-mode:multiply" opacity="0.3">
<path d="M16.07 8.49004C13.86 9.73004 15.39 29.09 19.39 35.19C23.39 41.29 43.06 28.26 45.55 22.29C48.04 16.32 44.55 8.53004 41.34 6.74004C38.13 4.95004 18.47 7.13004 16.07 8.49004Z" fill="#F9B5CA"/>
</g>
<g style="mix-blend-mode:overlay" opacity="0.3">
<path d="M27.36 45.54C21.74 43.92 43.23 31.92 45.09 31.21C46.95 30.5 46.09 43.11 44.75 44.74C43.41 46.37 27.36 45.54 27.36 45.54Z" fill="white"/>
</g>
<g style="mix-blend-mode:multiply" opacity="0.8">
<path d="M47.19 6.73999C46.64 6.73999 47.52 16.37 47.19 27.74C46.86 39.11 46.33 41.36 46.89 41.79C47.45 42.22 49.52 30.47 49.35 21.65C49.18 12.83 48.61 7.29998 48.35 7.13998C47.9746 6.97597 47.5867 6.84221 47.19 6.73999Z" fill="#E39AA9"/>
</g>
<g style="mix-blend-mode:multiply" opacity="0.8">
<path d="M47.95 42.23C47.65 43.74 47.29 44.73 46.88 44.98H46.83C46.4649 45.1627 46.0735 45.2876 45.67 45.35H45.59C43.79 45.79 39.8 46.41 31.79 46.26C19.93 46.05 16.89 44.77 16.7 44.69C16.2966 44.5942 15.9182 44.4135 15.59 44.16C14.06 42.67 13.08 25.99 13.3 15.6C13.43 20.12 14.02 38.33 15.44 41.91C15.872 42.7575 16.6075 43.4109 17.5 43.74C19.71 44.74 23.33 45.29 27.26 45.46C29.06 45.53 30.92 45.54 32.74 45.46C37.0318 45.2425 41.2742 44.4418 45.35 43.08L45.59 43C47.01 42.62 47.88 42.27 47.95 42.23Z" fill="#F29AA9"/>
</g>
<path d="M36.2901 5.65007C33.1301 5.88007 35.72 9.60005 38.42 11.0101C41.12 12.4201 43.55 7.55006 43.95 6.74006C44.35 5.93006 38.2101 5.52007 36.2901 5.65007Z" fill="white"/>
<path d="M45.36 42.23C45.06 43.74 44.7 44.73 44.29 44.98C43.9206 45.1609 43.5262 45.2856 43.12 45.35H43.04C39.1861 45.9032 35.2915 46.1206 31.4 46H31.1C26.805 45.9998 22.5149 45.7057 18.26 45.12C17.1985 45.0121 16.1739 44.6706 15.26 44.12C15.1511 43.995 15.0633 43.8531 15 43.7C13 39.33 12.1 9.15001 14 7.41001C15.9 5.67001 22.7 5.07 29.69 4.99H30.24C37.68 4.94 44.98 5.59 45.85 6.65C47.21 8.52 47.11 33.69 45.36 42.23Z" fill="#FF7E83"/>
<path d="M43.01 43.08C42.9217 43.7915 42.6101 44.4567 42.12 44.98C41.6948 45.2006 41.2347 45.3461 40.76 45.4101C37.6493 45.8788 34.5055 46.0929 31.36 46.05H31.06C24.53 46.05 17.06 45.64 14.12 44.74C13.7165 44.6442 13.3382 44.4635 13.01 44.21C11.49 42.72 10.5 26.04 10.73 15.65C10.83 11.29 11.14 8.04003 11.73 7.51003C13.63 5.73003 21.93 5.04004 29.59 5.09004H30.14C36.77 5.17004 42.79 5.80005 43.58 6.75005C45.08 8.58005 44.95 35.5 43.01 43.08Z" fill="#FFA497"/>
<path d="M14.61 6.26C14.61 6.26 29.34 3.56001 43.61 6.74001H45.78C45.78 6.74001 44.64 5.39003 37.12 4.85003C29.5875 4.29363 22.0142 4.76798 14.61 6.26Z" fill="#FFEDE2"/>
<path d="M44.29 44.9601C43.9112 45.1163 43.5198 45.24 43.12 45.33H43.04C41.24 45.77 37.26 46.3901 29.25 46.2401C17.38 46.0301 14.34 44.75 14.16 44.67C14.16 44.67 15.75 44.8701 18.27 45.1001C22.9898 45.5454 27.7295 45.7457 32.47 45.7C32.91 45.7 33.32 45.7 33.73 45.7C35.83 45.7 37.56 45.5801 38.96 45.5001C39.64 45.5001 40.25 45.4201 40.78 45.3701C41.9576 45.3091 43.1301 45.1721 44.29 44.9601Z" fill="#C92F6A"/>
<g style="mix-blend-mode:multiply" opacity="0.3">
<path d="M13.47 8.49004C11.26 9.73004 12.8 29.09 16.8 35.19C20.8 41.29 40.47 28.26 42.96 22.29C45.45 16.32 41.96 8.53004 38.75 6.74004C35.54 4.95004 15.87 7.13004 13.47 8.49004Z" fill="#F9B5CA"/>
</g>
<g style="mix-blend-mode:overlay" opacity="0.3">
<path d="M24.76 45.54C19.14 43.92 40.64 31.92 42.49 31.21C44.34 30.5 43.49 43.11 42.15 44.74C40.81 46.37 24.76 45.54 24.76 45.54Z" fill="white"/>
</g>
<g style="mix-blend-mode:multiply" opacity="0.8">
<path d="M44.59 6.73999C44.04 6.73999 44.92 16.37 44.59 27.74C44.26 39.11 43.73 41.36 44.29 41.79C44.85 42.22 46.92 30.47 46.76 21.65C46.6 12.83 46.02 7.29998 45.76 7.13998C45.382 6.97394 44.9906 6.84013 44.59 6.73999Z" fill="#E39AA9"/>
</g>
<g style="mix-blend-mode:multiply" opacity="0.8">
<path d="M45.36 42.23C45.06 43.74 44.7 44.73 44.29 44.98C43.9206 45.1609 43.5262 45.2857 43.12 45.35H43.04C41.24 45.79 37.26 46.41 29.25 46.26C17.38 46.05 14.34 44.77 14.16 44.69C13.7566 44.5942 13.3781 44.4135 13.05 44.16C11.53 42.67 10.54 25.99 10.77 15.6C10.89 20.12 11.49 38.33 12.91 41.91C13.338 42.7568 14.0703 43.4105 14.96 43.74C17.17 44.74 20.8 45.29 24.73 45.46C26.52 45.53 28.39 45.54 30.2 45.46C34.4951 45.2423 38.7406 44.4416 42.82 43.08L43.06 43C44.41 42.62 45.28 42.27 45.36 42.23Z" fill="#F29AA9"/>
</g>
<path d="M33.7 5.65007C30.54 5.88007 33.12 9.60005 35.83 11.0101C38.54 12.4201 40.96 7.55006 41.36 6.74006C41.76 5.93006 35.61 5.52007 33.7 5.65007Z" fill="white"/>
<g style="mix-blend-mode:multiply" opacity="0.78">
<path d="M12 40.75C12 40.75 23.36 43.54 32.77 43.32C43.01 43.08 43.19 40.84 43.77 36.06C44.18 32.91 44.41 12.7 44.16 9.72003C43.91 6.74003 42.87 6.47003 42.87 6.47003L11.76 39.57L12 40.75Z" fill="#CD2F55"/>
</g>
<path d="M41.95 37.6C41.65 39.11 41.29 40.09 40.88 40.35C40.5114 40.535 40.1169 40.6631 39.71 40.73H39.63C35.7757 41.2788 31.8812 41.4929 27.99 41.37H27.69C23.3952 41.3725 19.1052 41.0818 14.85 40.5C13.7864 40.402 12.7597 40.0598 11.85 39.5C11.7296 39.3821 11.6372 39.2386 11.58 39.08C9.58 34.72 8.68 4.54001 10.58 2.79001C12.48 1.04001 19.28 0.460025 26.27 0.370025H26.82C34.26 0.320025 41.56 0.980008 42.44 2.04001C43.83 3.88001 43.73 29.05 41.95 37.6Z" fill="#FF7E83"/>
<path d="M39.63 38.4401C39.5385 39.1536 39.2274 39.821 38.74 40.3501C38.3148 40.5706 37.8547 40.7161 37.38 40.78C34.2689 41.2449 31.1253 41.4556 27.98 41.4101H27.68C21.15 41.4101 13.68 41.01 10.74 40.11C10.335 40.0185 9.95577 39.8374 9.62999 39.58C8.10999 38.1 7.12002 21.41 7.35002 11.03C7.45002 6.68005 7.76002 3.43003 8.35002 2.89003C10.25 1.11003 18.55 0.42005 26.21 0.47005H26.76C33.39 0.55005 39.41 1.18003 40.2 2.14003C41.7 3.96003 41.56 30.8701 39.63 38.4401Z" fill="url(#paint0_linear_0_550)"/>
<path d="M11.23 1.63002C11.23 1.63002 25.96 -1.07 40.23 2.11H42.4C42.4 2.11 41.26 0.760019 33.74 0.220019C26.2075 -0.336383 18.6343 0.137999 11.23 1.63002Z" fill="#FFEDE2"/>
<path d="M40.95 40.35C40.5724 40.5119 40.1808 40.6391 39.78 40.73H39.7C37.9 41.17 33.92 41.78 25.91 41.64C14.04 41.43 11 40.15 10.82 40.07C10.82 40.07 12.41 40.28 14.93 40.51C19.6501 40.9503 24.3896 41.1506 29.13 41.11H30.39C32.49 41.11 34.22 40.99 35.62 40.91L37.44 40.78C38.618 40.7124 39.7905 40.5688 40.95 40.35Z" fill="#C92F6A"/>
<g style="mix-blend-mode:multiply" opacity="0.3">
<path d="M10.09 3.85008C7.88003 5.10008 9.41998 24.4601 13.42 30.5501C17.42 36.6401 37.09 23.6301 39.58 17.6501C42.07 11.6701 38.58 3.89006 35.37 2.11006C32.16 0.33006 12.49 2.50008 10.09 3.85008Z" fill="#F9B5CA"/>
</g>
<g style="mix-blend-mode:overlay" opacity="0.3">
<path d="M21.38 40.9C15.76 39.28 37.26 27.28 39.11 26.58C40.96 25.88 40.11 38.48 38.77 40.11C37.43 41.74 21.38 40.9 21.38 40.9Z" fill="white"/>
</g>
<g style="mix-blend-mode:multiply" opacity="0.5">
<path d="M41.21 2.10999C40.66 2.10999 41.54 11.73 41.21 23.11C40.88 34.49 40.35 36.73 40.91 37.17C41.47 37.61 43.54 25.85 43.38 17.02C43.22 8.18999 42.64 2.67999 42.38 2.51999C42.0023 2.35053 41.6109 2.21337 41.21 2.10999Z" fill="#E39AA9"/>
</g>
<g style="mix-blend-mode:multiply" opacity="0.8">
<path d="M41.95 37.6C41.65 39.11 41.29 40.09 40.88 40.35C40.5114 40.5349 40.1169 40.663 39.71 40.73H39.63C37.83 41.17 33.85 41.78 25.84 41.64C13.97 41.43 10.93 40.15 10.75 40.07C10.345 39.9784 9.96578 39.7973 9.63999 39.54C8.11999 38.06 7.12997 21.37 7.35997 10.99C7.47997 15.51 8.07998 33.71 9.49998 37.3C9.92914 38.1436 10.6614 38.7938 11.55 39.12C13.76 40.12 17.39 40.67 21.32 40.84C23.11 40.92 24.98 40.92 26.79 40.84C31.0857 40.6272 35.3319 39.8264 39.41 38.46L39.65 38.38C41.03 37.96 41.95 37.63 41.95 37.6Z" fill="#F29AA9"/>
</g>
<path d="M30.32 1.02C27.16 1.25 29.75 4.97001 32.45 6.37001C35.15 7.77001 37.58 2.92 37.98 2.11C38.38 1.3 32.23 0.88 30.32 1.02Z" fill="white"/>
<path d="M22.8 7.96002C22.8 7.96002 19.8 18.7 15.45 20.48C15.45 20.48 20.03 23.72 22.8 31.17C22.8 31.17 26.11 23.85 30.62 20.17C30.62 20.19 23.83 18.56 22.8 7.96002Z" fill="#ED0049"/>
<g style="mix-blend-mode:overlay" opacity="0.3">
<path d="M18.95 17.63C18.36 19.25 21.47 22.36 23.04 23.52C24.61 24.68 28.28 20.73 28.87 20.22C29.46 19.71 25.81 18.09 24.45 14.87C23.09 11.65 23.32 10.67 22.75 10.3C22.18 9.93003 18.95 17.63 18.95 17.63Z" fill="white"/>
</g>
<path d="M24.44 15.28C23.04 14.41 24.53 18.61 25.37 19.13C26.21 19.65 26.46 18.13 26.22 17.36C25.7575 16.5646 25.1543 15.8599 24.44 15.28Z" fill="white"/>
</g>
<defs>
<linearGradient id="paint0_linear_0_550" x1="24.26" y1="41.4201" x2="24.26" y2="0.44005" gradientUnits="userSpaceOnUse">
<stop stop-color="#FFBDCA"/>
<stop offset="1" stop-color="#FFE8D3"/>
</linearGradient>
<clipPath id="clip0_0_550">
<rect width="57.68" height="60.28" fill="white"/>
</clipPath>
</defs>
</svg>
