<svg width="82" height="82" viewBox="0 0 82 82" fill="none" xmlns="http://www.w3.org/2000/svg">
<g clip-path="url(#clip0_0_1456)">
<path d="M53.0405 8.19104H18.7297C8.38557 8.19104 0 16.8148 0 27.4528V62.7383C0 73.3762 8.38557 82 18.7297 82H53.0405C63.3846 82 71.7702 73.3762 71.7702 62.7383V27.4528C71.7702 16.8148 63.3846 8.19104 53.0405 8.19104Z" fill="#2B0038"/>
<path d="M71.7827 24.5347V59.833C71.7877 63.2484 70.9024 66.6029 69.219 69.5471C69.219 69.5471 69.219 69.547 69.219 69.6366C69.1956 69.6831 69.1663 69.7261 69.1319 69.7646V69.8286C68.8083 70.3406 68.4847 70.8269 68.1487 71.2877C67.3714 72.3528 66.4916 73.3347 65.5228 74.2185C62.1155 77.3246 57.7182 79.0369 53.1649 79.0307H18.7421C15.7113 79.0365 12.7247 78.2833 10.0404 76.8361C7.35606 75.3889 5.05472 73.2913 3.33524 70.7245C1.17035 67.5346 0.0144066 63.7358 0.0248891 59.8458V24.5347C0.0248694 22.0071 0.510184 19.5044 1.45298 17.1702C2.39577 14.8361 3.77748 12.7163 5.51883 10.9326C7.26018 9.14894 9.32689 7.73648 11.6004 6.77623C13.8738 5.81598 16.3093 5.32684 18.767 5.33695H53.0654C55.521 5.33021 57.9538 5.82181 60.2244 6.78357C62.495 7.74533 64.5588 9.15841 66.2975 10.9418C68.0362 12.7251 69.4157 14.8437 70.3569 17.1762C71.2982 19.5087 71.7827 22.0093 71.7827 24.5347Z" fill="#46056D"/>
<g style="mix-blend-mode:soft-light" opacity="0.2">
<path d="M1.80452 68.0625C2.17787 51.2708 25.0269 72.8363 40.0355 72.8363C55.0442 72.8363 62.0507 55.8399 67.9869 58.31C73.9232 60.7801 67.6634 74.6537 56.9109 77.623C46.1584 80.5923 19.8622 79.2355 13.0921 78.1989C6.32206 77.1622 1.80452 68.0625 1.80452 68.0625Z" fill="white"/>
</g>
<g style="mix-blend-mode:soft-light">
<path d="M69.1692 69.6367C69.1451 69.7013 69.1115 69.7618 69.0696 69.8159V69.8799C68.7699 70.3855 68.4416 70.8727 68.0865 71.3389C67.3092 72.4041 66.4294 73.3861 65.4606 74.2698C62.0533 77.376 57.656 79.0882 53.1027 79.082H18.7421C15.7113 79.0878 12.7247 78.3345 10.0404 76.8874C7.35607 75.4402 5.05473 73.3426 3.33525 70.7758L3.08635 70.2639C3.5966 70.6735 14.0006 79.0052 38.6292 79.0052C61.5404 79.0052 68.0741 71.3262 69.107 69.8287C69.1384 69.7689 69.1594 69.7039 69.1692 69.6367Z" fill="#BF77D8"/>
</g>
<path d="M43.2339 1.27997C46.6065 0.000116348 52.2938 3.95486 53.4637 4.88915C54.6335 5.82344 44.329 31.382 45.0508 34.1465C45.7726 36.911 54.9073 36.8598 57.4087 39.8547C59.9101 42.8495 42.4747 68.7793 40.3715 69.688C38.2683 70.5967 33.0912 70.4943 33.0912 70.4943L40.3715 48.596L31.548 19.7994L43.2339 1.27997Z" fill="url(#paint0_linear_0_1456)"/>
<path d="M17.7217 4.24908C14.7224 5.15777 14.7349 36.2453 16.0167 39.6881C17.2985 43.1309 26.1842 41.1599 29.2457 43.1565C32.3072 45.153 32.4192 68.7535 33.0912 70.4557C33.7632 72.1579 52.58 46.2665 54.4095 41.9918C56.2389 37.7172 42.4747 36.8725 40.6453 35.439C38.8159 34.0056 46.7309 4.05711 44.5033 1.77898C42.2756 -0.499153 21.4925 3.09722 17.7217 4.24908Z" fill="url(#paint1_linear_0_1456)"/>
<g style="mix-blend-mode:multiply" opacity="0.5">
<path d="M40.6453 35.4392C36.7376 34.2873 23.6579 40.5585 23.9939 41.0833C24.3299 41.608 29.3328 40.9553 30.8636 43.8094C32.3943 46.6634 32.7428 64.9013 34.4228 66.3091C36.1029 67.717 51.8458 45.8316 52.5427 43.1439C53.2396 40.4562 40.6453 35.4392 40.6453 35.4392Z" fill="#C05CC7"/>
</g>
<g style="mix-blend-mode:soft-light">
<path d="M17.759 4.70994C15.8051 5.45225 18.5306 17.7516 19.2026 20.6313C19.8746 23.5109 36.19 25.034 39.7991 22.2695C43.4081 19.505 45.2251 5.20912 44.5033 3.07177C43.7814 0.934424 25.562 1.72789 17.759 4.70994Z" fill="#AC9AFF"/>
</g>
<path d="M45.0633 41.4799C43.0032 47.3536 40.554 53.0751 37.7332 58.6043C37.086 59.7946 36.6007 60.4857 36.4016 60.3834C35.4309 59.8714 36.4016 40.8913 35.07 40.1745C33.7383 39.4578 22.625 39.317 21.9156 37.8196C21.2062 36.3222 20.6089 12.5297 22.3263 11.3267C25.1015 9.3813 37.9323 7.48717 38.0941 10.1749C38.1153 10.4859 38.1153 10.7981 38.0941 11.1091C37.6585 16.2285 34.037 36.0022 34.9828 36.9365C35.9287 37.8708 45.3371 39.7393 45.0633 41.4799Z" fill="#479DFF"/>
<path d="M45.0633 41.4799C43.0032 47.3535 40.554 53.0751 37.7332 58.6043C36.9491 57.8492 38.3057 41.5311 37.1234 40.6864C35.9411 39.8417 25.0393 38.5362 24.081 36.8468C23.1228 35.1574 22.8365 13.9759 24.3673 12.5297C25.898 11.0835 37.7581 9.59886 38.0568 11.1219C37.6212 16.2413 33.9997 36.015 34.9455 36.9492C35.8913 37.8835 45.3371 39.7393 45.0633 41.4799Z" fill="#47FFFF"/>
<path d="M35.0202 13.0161C34.8584 12.1202 31.0378 13.7841 28.5861 14.168C26.1345 14.552 29.283 18.0076 29.5693 19.121C29.8555 20.2345 31.8218 17.47 32.0583 18.5451C32.2947 19.6202 31.4236 24.2277 30.8138 23.8693C30.204 23.5109 27.6154 24.8547 27.3416 27.4016C27.0678 29.9485 25.5869 35.8615 27.939 34.9784C30.2911 34.0953 31.4236 33.2378 31.7471 35.068C32.0707 36.8982 30.1791 37.1413 32.0832 37.3973C33.9873 37.6532 39.0026 40.4433 39.7991 41.9791C40.5955 43.515 40.0977 43.5662 39.4008 44.462C38.7039 45.3579 36.3891 51.9108 38.6666 50.567C40.944 49.2231 39.9111 50.9509 39.4257 52.6019C38.9403 54.2529 37.4719 54.4577 37.8825 55.2768C38.1579 55.9887 38.3258 56.7397 38.3803 57.5037C38.3803 57.5037 39.7119 50.8869 40.4835 49.991C41.2551 49.0951 38.9404 49.863 39.6497 47.6361C40.3591 45.4091 41.5662 43.2462 41.7031 42.3631C41.84 41.48 40.4586 40.4433 38.6541 39.4962C36.8496 38.5491 32.4316 38.9715 32.7552 35.8615C33.0788 32.7515 34.2611 30.5117 31.8592 31.8556C29.4573 33.1994 27.939 34.7224 27.7399 32.8026C27.5407 30.8829 28.6484 25.5459 29.3702 24.7268C30.092 23.9077 32.0085 26.3138 32.4565 26.7617C32.9045 27.2096 33.7632 25.8659 34.4104 22.1799C35.0575 18.4939 35.5304 16.3822 34.1864 16.5741C32.8423 16.7661 29.6066 18.3531 30.6893 16.1261C31.7721 13.8992 34.2237 14.3472 35.3562 15.0511C36.4887 15.755 35.0202 13.0161 35.0202 13.0161Z" fill="white"/>
<path d="M17.1492 4.85065C17.1492 4.85065 32.5187 1.12627 41.1431 1.56142C49.7675 1.99657 53.4637 4.85065 53.4637 4.85065C50.6453 2.55662 47.362 0.942701 43.8561 0.127998C38.7164 -0.806293 18.3564 3.73718 18.0452 3.96755C17.7341 4.19792 17.1492 4.85065 17.1492 4.85065Z" fill="#7C5CF4"/>
<g style="mix-blend-mode:multiply" opacity="0.5">
<path d="M47.4652 2.43181C45.2375 1.98387 41.8898 25.1875 41.6534 29.8462C41.4169 34.5048 45.5486 24.1509 48.5106 18.4299C51.4725 12.709 52.9659 6.43768 52.6921 5.32421C52.4183 4.21074 47.4652 2.43181 47.4652 2.43181Z" fill="#9A2E69"/>
</g>
<g style="mix-blend-mode:multiply" opacity="0.5">
<path d="M21.8907 12.2738C21.5174 14.7567 22.3761 13.1569 26.9558 11.3651C31.5356 9.57333 38.1563 10.5204 38.0568 11.1091C37.9572 11.6979 38.0568 9.02298 37.4594 8.86939C36.8621 8.71581 22.289 9.52216 21.8907 12.2738Z" fill="#9ABAFF"/>
</g>
<g style="mix-blend-mode:multiply" opacity="0.5">
<path d="M34.1864 70.5326C34.2984 69.7135 46.9176 53.613 49.1203 51.8212C51.3231 50.0294 51.5222 49.6582 52.4556 50.247C53.389 50.8357 43.9432 66.2451 41.9894 68.0113C40.0355 69.7775 34.1864 70.5326 34.1864 70.5326Z" fill="#9A2E69"/>
</g>
<path d="M40.6453 35.4391C40.3964 34.5944 46.8678 35.8871 52.1942 37.3077C57.5207 38.7283 57.6078 40.2257 57.6078 40.2257C56.4031 40.5399 55.1413 40.5399 53.9366 40.2257C52.3436 39.6754 51.8582 38.7411 40.6453 35.4391Z" fill="#7C5CF4"/>
<path d="M53.2645 39.9442C52.5801 40.1618 54.2477 41.7103 54.509 41.7231C54.7704 41.7359 55.7535 40.6352 55.6166 40.4433C54.8949 40.0495 54.0788 39.8764 53.2645 39.9442Z" fill="#B5CCFF"/>
<path d="M43.5823 0.627145C41.7903 0.908712 44.8891 3.1869 45.5984 3.55805C46.3078 3.92921 46.9301 2.57251 46.7807 1.74061C46.6314 0.908706 44.7273 0.447966 43.5823 0.627145Z" fill="#B5CCFF"/>
<path d="M21.9156 37.8196C21.9156 37.8196 22.289 38.5619 24.2802 38.9202C29.4075 39.8417 34.0121 40.7377 34.7091 40.8145C35.3048 40.8147 35.8954 40.7019 36.4514 40.4817C34.9973 39.8279 33.4206 39.5132 31.8343 39.5602C28.7977 39.5218 23.0232 38.7027 21.9156 37.8196Z" fill="#9ACCFF"/>
<path d="M21.2062 26.4417C21.2062 26.4417 20.2978 13.0545 21.4054 11.1987C22.513 9.34293 33.3526 8.84375 33.3526 8.84375C33.3526 8.84375 23.8321 9.91883 22.3263 11.3267C20.8205 12.7345 21.2062 26.4417 21.2062 26.4417Z" fill="#9A90FF"/>
<path d="M81.8755 23.1141C80.992 31.5611 75.3793 37.6788 69.2564 37.6788C68.9203 37.6788 68.5968 37.6788 68.2732 37.6788C67.9345 37.6421 67.598 37.5865 67.2651 37.5124C62.0383 36.3989 57.6576 30.7164 57.0976 23.1653C56.4753 14.6927 60.8311 6.79604 67.2651 5.06824C68.0762 4.83963 68.9132 4.72339 69.7541 4.72266C77.1465 4.72266 82.3858 12.7985 81.9378 21.911C81.9627 22.295 81.9253 22.7045 81.8755 23.1141Z" fill="url(#paint2_linear_0_1456)"/>
<path d="M65.2739 37.6788C65.2739 37.6788 69.331 38.2547 71.596 37.3844L72.7161 5.26014C72.7161 5.26014 71.3471 4.08266 64.2659 4.68419L65.2739 37.6788Z" fill="url(#paint3_linear_0_1456)"/>
<path d="M77.4327 23.1141C76.8727 30.6652 72.4547 36.3478 67.2652 37.4613C66.6105 37.6046 65.9432 37.6774 65.274 37.6788C61.1422 37.6788 57.3341 34.9527 54.982 30.7036L54.87 30.4989L54.733 30.2557C53.606 28.0323 52.9007 25.6087 52.6548 23.1141C51.6343 13.5024 56.9856 4.67151 64.7388 4.67151C65.5796 4.6739 66.4165 4.79003 67.2278 5.01702C73.7241 6.74481 78.0549 14.6415 77.4327 23.1141Z" fill="url(#paint4_linear_0_1456)"/>
<path d="M72.0938 23.1141C71.9071 28.4639 68.6715 32.5466 64.7886 32.8026H64.3779C60.296 32.8026 56.662 28.6303 56.214 23.1013C55.7411 17.0988 59.1635 11.8258 63.905 11.8258C64.0624 11.8128 64.2205 11.8128 64.3779 11.8258C68.8954 12.2098 72.3552 17.3164 72.0938 23.1141Z" fill="url(#paint5_linear_0_1456)"/>
<path d="M72.0938 23.1141C71.9071 28.4639 68.6714 32.5466 64.7886 32.8026C60.8933 32.5466 57.4958 28.4639 57.0975 23.1141C56.6744 17.3164 59.8852 12.2098 64.3779 11.8643C68.8954 12.2098 72.3551 17.3164 72.0938 23.1141Z" fill="url(#paint6_linear_0_1456)"/>
<g style="mix-blend-mode:multiply" opacity="0.5">
<path d="M56.8114 17.918C56.8114 17.918 57.3091 18.7115 57.6078 18.3148C57.9065 17.918 59.263 13.6305 63.8303 13.1186C68.3976 12.6066 71.4466 18.3148 71.4466 18.3148C71.4466 18.3148 69.0323 11.5444 63.7681 11.8259C58.5039 12.1075 56.8114 17.918 56.8114 17.918Z" fill="#D42F55"/>
</g>
<g style="mix-blend-mode:soft-light">
<path d="M53.5383 15.9853C53.5383 18.2507 55.8282 17.7899 56.1393 17.7004C56.4505 17.6108 58.1678 13.4256 61.8391 11.6722C65.5104 9.91884 68.9825 13.1697 70.1773 14.8079C71.372 16.4461 74.7072 13.6176 74.9561 12.2482C75.205 10.8787 69.219 3.46839 62.2 5.42656C55.1811 7.38473 53.5383 15.9853 53.5383 15.9853Z" fill="white"/>
</g>
<g style="mix-blend-mode:multiply" opacity="0.2">
<path d="M53.4387 17.2652C52.4556 17.2652 52.6547 22.1671 53.0156 23.9972C53.3765 25.8274 55.318 25.0468 55.6789 24.4324C56.0398 23.8181 56.214 18.673 56.2762 18.2891C56.3384 17.9051 55.6664 18.0204 54.7206 17.9308C53.7747 17.8412 53.6876 17.2524 53.4387 17.2652Z" fill="#DA0553"/>
</g>
<g style="mix-blend-mode:multiply" opacity="0.2">
<path d="M71.484 15.7294C70.8368 16.0366 71.9196 19.7609 72.5543 22.1286C73.189 24.4964 75.5784 21.3992 76.5366 21.5528C77.4949 21.7064 76.3624 14.1552 75.7028 13.5153C75.0433 12.8753 73.6992 15.1407 71.484 15.7294Z" fill="#DA0553"/>
</g>
<g style="mix-blend-mode:soft-light">
<path d="M60.6195 36.0534C58.5163 33.2762 63.3325 34.1849 66.394 32.8027C68.4338 31.7602 70.2233 30.2653 71.6333 28.4256C72.4672 27.6833 74.8939 30.1533 74.6326 31.254C74.0281 32.5239 73.1837 33.6574 72.1488 34.5881C71.1138 35.5189 69.9089 36.2283 68.6045 36.6751C67.3 37.1219 65.9221 37.297 64.5512 37.1903C63.1802 37.0835 61.8437 36.6971 60.6195 36.0534Z" fill="#FF973B"/>
</g>
<g style="mix-blend-mode:multiply" opacity="0.3">
<path d="M70.1275 5.43945C69.6546 5.43945 74.3961 9.59894 75.6033 11.7363C76.8104 13.8736 77.4203 16.3054 77.8932 16.8557C78.3661 17.406 81.3653 16.651 81.3653 16.651C80.914 13.7573 79.7197 11.04 77.9056 8.77984C75.8303 6.67411 73.0426 5.47691 70.1275 5.43945Z" fill="#B30053"/>
</g>
<g style="mix-blend-mode:multiply" opacity="0.3">
<path d="M71.6582 35.6567C71.0484 36.2838 73.7863 36.1686 74.1472 36.0534C74.5081 35.9382 78.1919 33.8393 79.287 31.254C80.3822 28.6687 77.4825 28.4767 76.9225 28.4639C76.3624 28.4511 75.4788 31.0236 73.6245 33.3786C71.7702 35.7335 71.6582 35.6567 71.6582 35.6567Z" fill="#B30053"/>
</g>
<g style="mix-blend-mode:soft-light">
<path d="M77.5447 17.2652C77.0718 17.2652 77.6567 20.8871 77.7189 23.6644C77.7811 26.4417 81.5146 25.3922 81.5769 25.0723C81.7675 23.309 81.8465 21.5347 81.8133 19.7609C81.7013 18.1355 82.112 16.8684 80.88 16.8556C79.7605 16.9142 78.6461 17.0511 77.5447 17.2652Z" fill="white"/>
</g>
<path d="M59.4248 30.5885C58.8523 28.7839 59.6737 30.8445 62.2872 32.0859C63.4908 32.5831 64.8132 32.6915 66.0782 32.3965C67.3432 32.1016 68.4909 31.4174 69.3684 30.435C68.7577 31.1734 68.0007 31.7692 67.148 32.1826C66.2954 32.5959 65.3667 32.8173 64.4242 32.8319C63.4817 32.8464 62.547 32.6538 61.6826 32.2669C60.8183 31.88 60.0443 31.3078 59.4124 30.5885H59.4248Z" fill="#FFE016"/>
<g style="mix-blend-mode:soft-light">
<path d="M63.7556 5.11944C61.2666 5.34981 61.1546 11.1988 63.1707 11.2372C65.1868 11.2756 67.2278 11.4547 69.9906 14.5519C72.7534 17.6492 74.8317 12.4402 74.7446 11.4291C74.6575 10.418 70.7995 4.10836 63.7556 5.11944Z" fill="white"/>
</g>
<g style="mix-blend-mode:soft-light">
<path d="M57.2594 33.8905C54.4966 30.6909 57.919 30.0509 58.5039 30.2813C59.0888 30.5117 60.6818 32.6107 63.8926 32.9434C67.1034 33.2762 65.0748 37.3205 63.8926 37.4229C61.3585 37.045 59.0219 35.8007 57.2594 33.8905Z" fill="white"/>
</g>
<path d="M68.0367 5.43945C66.8545 5.43945 68.5221 9.65016 69.9906 11.122C71.4591 12.5938 73.7241 10.5077 73.7241 9.76535C73.7241 9.02304 70.3888 6.22016 68.0367 5.43945Z" fill="white"/>
<path d="M58.4167 33.7754C57.9065 32.6363 60.5822 34.3385 60.2711 34.94C59.9599 35.5415 58.927 34.9016 58.4167 33.7754Z" fill="white"/>
<g style="mix-blend-mode:soft-light">
<path d="M72.9898 23.7157C72.3676 24.1252 72.3676 26.5185 69.8661 30.3708C67.5016 33.9928 70.0653 35.3495 70.6128 35.3879C71.1604 35.4263 74.7819 31.9195 76.1882 27.7088C77.7065 23.2805 76.5242 22.5254 76.126 22.3334C75.7277 22.1414 73.5125 23.3829 72.9898 23.7157Z" fill="white"/>
</g>
<g style="mix-blend-mode:soft-light">
<path d="M69.779 5.43936C68.0367 5.43936 72.268 7.57672 73.749 8.33183C74.2759 8.51082 74.8381 8.55071 75.384 8.44784C75.9298 8.34496 76.4417 8.10259 76.8727 7.74307C76.8727 7.74307 74.9561 4.88902 69.779 5.43936Z" fill="white"/>
</g>
<g style="mix-blend-mode:soft-light">
<path d="M56.1767 22.6407C56.1753 21.5037 56.391 20.3774 56.8114 19.3258C57.2387 21.2259 57.4311 23.1739 57.3838 25.1236C57.2096 26.0579 56.2638 23.2422 56.1767 22.6407Z" fill="white"/>
</g>
<path d="M73.6868 9.57324C73.6868 9.57324 78.8888 16.2285 76.7233 26.9025C76.7233 26.8769 80.2328 16.51 73.6868 9.57324Z" fill="#FFE016"/>
<g style="mix-blend-mode:multiply" opacity="0.5">
<path d="M63.8926 37.5764C65.1518 37.8171 66.4358 37.8903 67.7131 37.794C69.667 37.6276 72.8031 34.2744 72.8031 34.2744C71.6773 35.5098 70.2828 36.4532 68.7339 37.0271C67.185 37.6011 65.5259 37.7893 63.8926 37.5764Z" fill="#D42F55"/>
</g>
<g style="mix-blend-mode:multiply" opacity="0.8">
<path d="M65.2739 37.6788C61.1422 37.6788 57.3341 34.9527 54.9819 30.7036C56.1029 32.5644 57.604 34.1521 59.3812 35.3566C61.1584 36.5611 63.1692 37.3534 65.2739 37.6788Z" fill="#D42F55"/>
</g>
<g style="mix-blend-mode:multiply" opacity="0.5">
<path d="M54.9322 30.4989L55.0442 30.7036L54.9322 30.4989Z" fill="#D42F55"/>
</g>
<g style="mix-blend-mode:multiply" opacity="0.5">
<path d="M81.8755 23.1141C80.992 31.5611 75.3793 37.6788 69.2564 37.6788C68.9203 37.6788 68.5968 37.6788 68.2732 37.6788C72.3012 37.1991 75.9998 35.1577 78.615 31.9706C80.7555 29.5133 81.9005 22.3846 81.9751 21.9366C81.9627 22.295 81.9253 22.7045 81.8755 23.1141Z" fill="#D42F55"/>
</g>
<g style="mix-blend-mode:multiply" opacity="0.8">
<path d="M53.0654 16.0493C53.8026 13.2153 55.2686 10.6379 57.3092 8.58783C60.6693 5.465 66.7922 4.67149 66.7922 4.67149L69.6048 4.56908C69.6048 4.56908 65.2864 4.49231 64.0917 4.67149C62.8969 4.85067 55.6042 5.50334 53.0654 16.0493Z" fill="#D42F55"/>
</g>
<path d="M61.0426 28.2206C60.9606 27.6572 60.9902 27.0826 61.1298 26.5312C61.3809 26.3833 61.6543 26.2795 61.9387 26.2241C62.0965 26.1477 62.2718 26.1178 62.4451 26.1375C62.6184 26.1572 62.7831 26.2258 62.9209 26.3357C63.0587 26.4456 63.1643 26.5927 63.2259 26.7604C63.2876 26.9282 63.303 27.1102 63.2703 27.2864C63.6301 27.5901 64.0578 27.7969 64.5148 27.8879C64.2784 26.3264 64.1041 25.1362 64.0046 24.3171C63.5822 24.2565 63.1658 24.158 62.7601 24.0228C62.3761 23.8918 62.0117 23.7066 61.6774 23.4724C61.2879 23.197 60.9748 22.822 60.7689 22.3845C60.5206 21.848 60.3608 21.2727 60.2959 20.6823C60.1035 19.3227 60.3298 17.9354 60.9431 16.7148C61.1698 16.1746 61.5109 15.6931 61.9415 15.3057C62.3721 14.9182 62.8813 14.6345 63.4321 14.4751L63.2703 12.2865C63.3325 12.1457 64.2908 12.197 64.2908 12.197L64.6392 14.4239C65.1881 14.486 65.7203 14.6553 66.2073 14.923C66.2099 14.5215 66.3173 14.1281 66.5184 13.784C66.7732 13.5627 67.084 13.4206 67.4145 13.3744C67.6134 13.3228 67.8231 13.3357 68.0147 13.4113C68.2062 13.4869 68.3704 13.6215 68.4848 13.7968C68.7649 14.483 68.9209 15.2159 68.9452 15.9597C69.031 16.5451 69.031 17.1404 68.9452 17.7259C68.9135 17.8826 68.8446 18.0289 68.7448 18.1517C68.6449 18.2745 68.5171 18.37 68.3727 18.4298C68.1764 18.527 67.9664 18.5917 67.7505 18.6218C67.3648 18.6806 66.9715 18.5942 66.6429 18.3786C66.5501 18.119 66.4915 17.8478 66.4686 17.5723C66.0753 17.4014 65.651 17.3185 65.2241 17.3291C65.4357 18.7369 65.6099 20.132 65.7344 21.5142C66.789 21.5275 67.8207 21.8325 68.7212 22.3973C69.0759 22.7139 69.3572 23.1081 69.5445 23.551C69.7319 23.9939 69.8205 24.4743 69.8039 24.957C69.918 26.2894 69.5746 27.6208 68.8332 28.7198C68.5313 29.1904 68.1288 29.5838 67.6564 29.87C67.1841 30.1561 66.6544 30.3274 66.1078 30.3708V32.3162C65.7061 32.4589 65.2874 32.545 64.8633 32.5722L65.0375 30.3836C64.4768 30.2775 63.9532 30.0214 63.5192 29.6413C63.5676 29.8781 63.5415 30.1247 63.4445 30.3452C63.1872 30.4929 62.8904 30.5513 62.5983 30.5116C62.4346 30.5246 62.2701 30.504 62.1142 30.4513C61.9583 30.3986 61.814 30.3147 61.6898 30.2044C61.353 29.5917 61.1333 28.9183 61.0426 28.2206ZM62.424 20.0168C62.4159 20.3965 62.5471 20.7654 62.7916 21.05C63.0361 21.3346 63.3758 21.5141 63.7432 21.5527C63.681 20.6952 63.6063 19.4025 63.5192 17.6363C63.0906 17.835 62.7436 18.1822 62.5388 18.6174C62.3341 19.0526 62.2846 19.548 62.3991 20.0168H62.424ZM65.9584 27.6959C66.3312 27.4942 66.6448 27.1938 66.8669 26.8256C67.0943 26.4697 67.2034 26.0476 67.178 25.6226C67.178 24.9059 66.6678 24.4963 65.8215 24.3427C65.8837 25.597 65.9335 26.6464 65.9584 27.7343V27.6959Z" fill="url(#paint7_linear_0_1456)"/>
<path d="M68.8456 25.0339C68.8625 24.5499 68.7728 24.0683 68.5831 23.625C68.3935 23.1818 68.1088 22.7883 67.7505 22.4742C67.6173 22.3759 67.4756 22.2902 67.3274 22.2182C66.5232 21.8319 65.6508 21.6185 64.7637 21.5911C64.7637 21.4247 64.7637 21.2711 64.7637 21.1175C64.6392 19.8974 64.4775 18.6816 64.2784 17.47C64.7247 17.4536 65.1695 17.532 65.5851 17.7003C65.6079 17.9759 65.6665 18.2471 65.7593 18.5067C66.0895 18.73 66.4896 18.8168 66.8794 18.7498C67.0937 18.7317 67.3017 18.6662 67.4892 18.5578C67.6367 18.5033 67.7675 18.4094 67.8681 18.2857C67.9687 18.162 68.0355 18.0129 68.0616 17.8539C68.1465 17.2684 68.1465 16.6732 68.0616 16.0877C68.0448 15.3046 67.9574 14.5248 67.8003 13.7584C67.6269 13.6184 67.4239 13.5223 67.2077 13.4778C66.9915 13.4333 66.7682 13.4418 66.5558 13.5024C66.2234 13.5501 65.9119 13.697 65.6597 13.9248C65.4673 14.272 65.3645 14.6642 65.3611 15.0639C64.8733 14.7959 64.3417 14.6224 63.793 14.5519L63.4197 12.3378C62.9094 12.5297 62.6232 12.6961 62.5734 12.8369V14.6031C62.0238 14.7649 61.5157 15.0496 61.0854 15.4368C60.6552 15.824 60.3134 16.304 60.0844 16.8428C59.4839 18.0676 59.2707 19.4548 59.4746 20.8104C59.4746 20.8104 59.4746 20.8104 59.4746 20.8872C59.5419 21.4566 59.7017 22.0104 59.9475 22.5253C60.1537 22.9558 60.4672 23.3224 60.856 23.5876C61.1872 23.8304 61.5522 24.0203 61.9387 24.1508C62.3446 24.2852 62.761 24.3837 63.1832 24.4451C63.1832 24.8291 63.2952 25.2898 63.3823 25.8402C63.4694 26.3905 63.5814 27.12 63.7059 28.0159C63.2509 27.9186 62.8246 27.7125 62.4614 27.4144C62.418 27.143 62.3472 26.877 62.2498 26.6209C61.8905 26.4641 61.5072 26.3731 61.1173 26.3521C60.8324 26.4054 60.5586 26.5093 60.3084 26.6593C60.1673 27.2106 60.1418 27.7865 60.2337 28.3487C60.2975 29.046 60.4919 29.724 60.8062 30.3453C61.0521 30.5694 61.3742 30.6844 61.7022 30.6652C61.9981 30.696 62.2963 30.6382 62.5609 30.4988C62.6448 30.2749 62.6706 30.0323 62.6356 29.7949C63.0673 30.1763 63.5925 30.4286 64.1539 30.5244L64.5024 32.6105C64.752 32.6263 65.0011 32.5733 65.2242 32.457V30.5117C65.7699 30.4707 66.2993 30.3017 66.7717 30.0177C67.2442 29.7338 67.6471 29.3423 67.9496 28.8734C68.6829 27.7439 69.0006 26.3826 68.8456 25.0339ZM62.4863 21.5143C62.208 21.3967 61.9704 21.1961 61.804 20.9383C61.6377 20.6806 61.5502 20.3774 61.5529 20.068C61.4287 19.6054 61.4696 19.1124 61.6682 18.6781C61.8668 18.2438 62.2099 17.897 62.6356 17.7003C62.7103 19.3641 62.7974 20.6056 62.8721 21.4631V21.6039C62.7408 21.5877 62.6116 21.5577 62.4863 21.5143ZM66.0207 26.9153C65.8065 27.2854 65.4962 27.5868 65.1246 27.7856C65.1246 26.9665 65.0624 26.1473 65.025 25.3282C65.025 25.0338 65.025 24.7523 65.025 24.4707C65.3379 24.4959 65.6386 24.6064 65.8962 24.7907C66.0401 24.896 66.1587 25.0338 66.2428 25.1935C66.3269 25.3533 66.3744 25.5307 66.3816 25.7122C66.3843 26.13 66.2579 26.5378 66.0207 26.8768V26.9153Z" fill="url(#paint8_linear_0_1456)"/>
<g style="mix-blend-mode:soft-light">
<path d="M67.9994 17.7772C67.9733 17.9363 67.9065 18.0853 67.8059 18.209C67.7053 18.3327 67.5745 18.4266 67.4269 18.4811C67.2395 18.5895 67.0314 18.6551 66.8171 18.6731C66.4273 18.7401 66.0273 18.6533 65.6971 18.43C65.6042 18.1704 65.5457 17.8992 65.5229 17.6237C65.1073 17.4553 64.6624 17.3769 64.2161 17.3933C64.4152 18.6049 64.577 19.8207 64.7015 21.0408C64.1029 21.2287 63.4913 21.3699 62.8721 21.4632C62.7974 20.6057 62.7103 19.3643 62.6356 17.7004C62.2099 17.8971 61.8668 18.2439 61.6682 18.6782C61.4696 19.1125 61.4287 19.6055 61.5529 20.0681C61.5502 20.3775 61.6377 20.6807 61.804 20.9384C61.9704 21.1962 62.208 21.3968 62.4863 21.5144C61.4161 21.6802 60.3244 21.4292 59.4248 20.8105C59.4248 20.8105 59.4248 20.8105 59.4248 20.7337C59.2209 19.3781 59.4341 17.9909 60.0346 16.7661C60.2636 16.2274 60.6054 15.7473 61.0356 15.3601C61.4659 14.9729 61.974 14.6882 62.5236 14.5264V12.7986C62.5236 12.6578 62.8596 12.4914 63.3699 12.2994L63.7432 14.5136C64.2919 14.5841 64.8235 14.7576 65.3113 15.0255C65.3147 14.6258 65.4175 14.2337 65.6099 13.8864C65.8621 13.6586 66.1736 13.5119 66.506 13.4641C66.7184 13.4035 66.9417 13.3951 67.1579 13.4395C67.3741 13.484 67.5771 13.5801 67.7505 13.7201C67.9076 14.4865 67.9951 15.2663 68.0118 16.0494C68.0889 16.6229 68.0847 17.2049 67.9994 17.7772Z" fill="white"/>
</g>
<path d="M62.3991 27.3376C62.3991 27.1329 63.6436 27.9392 63.6436 27.9392C63.6436 27.9392 62.5734 27.9264 62.3991 27.3376Z" fill="white"/>
<path d="M66.2446 13.4897C65.7593 13.4897 66.7922 15.947 67.3896 16.4206C67.987 16.8941 68.0243 14.1424 67.7878 13.6817C67.5514 13.2209 66.2446 13.4897 66.2446 13.4897Z" fill="white"/>
<g style="mix-blend-mode:soft-light">
<path d="M63.0339 12.4018C62.5236 12.7602 63.5441 13.6817 63.5441 13.6817C63.5441 13.6817 63.5441 12.4018 63.2827 12.3122C63.2382 12.2902 63.1869 12.2873 63.1403 12.3041C63.0936 12.3209 63.0553 12.3561 63.0339 12.4018Z" fill="white"/>
</g>
<path d="M77.0469 15.6526C76.6486 13.9504 76.7108 17.1757 77.0469 18.9163C77.3829 20.6569 77.6194 20.1961 77.6194 20.1961C77.6851 18.659 77.4914 17.1217 77.0469 15.6526Z" fill="white"/>
<g style="mix-blend-mode:soft-light">
<path d="M68.0865 37.794C66.1202 37.794 69.8412 36.7957 70.6502 36.2965C71.4591 35.7974 73.6494 36.4118 73.6494 36.4118C71.989 37.4785 70.0373 37.9635 68.0865 37.794Z" fill="white"/>
</g>
<path d="M76.7234 26.8769C75.7651 26.7489 74.7695 30.0637 75.3046 30.7164C75.8397 31.3692 77.0842 29.4366 77.3331 28.7967C77.582 28.1567 76.7234 26.8769 76.7234 26.8769Z" fill="#ED4800"/>
<path d="M72.8031 34.2745C72.0938 34.1721 73.7365 32.8539 74.0476 32.8027C74.3587 32.7515 74.2468 33.4298 73.9854 33.9417C73.7241 34.4537 73.0645 34.3257 72.8031 34.2745Z" fill="#ED4800"/>
<path d="M72.828 33.7625C72.6289 34.1336 73.0023 34.364 73.5747 34.236C73.7167 34.1799 73.8475 34.0974 73.9605 33.9928C73.6607 34.3111 73.2748 34.5296 72.8529 34.6199C72.3551 34.6583 72.4547 34.1336 72.828 33.7625Z" fill="#FFBA00"/>
<path d="M75.2424 29.4367C75.2424 29.4367 75.2424 29.8462 75.8646 29.8462C76.4315 29.7686 76.9479 29.4709 77.3083 29.0143C77.3083 29.0143 76.5615 30.8573 75.6531 31.2157C74.7446 31.574 75.093 29.9358 75.2424 29.4367Z" fill="#FFBA00"/>
<g style="mix-blend-mode:multiply" opacity="0.5">
<path d="M75.541 28.2847C75.1926 29.8717 76.6113 28.6814 76.8727 28.4639C77.134 28.2463 77.3829 28.6046 77.3829 28.6046C77.3829 28.6046 77.1465 27.0305 76.7233 26.9025C76.3002 26.7745 75.541 28.2847 75.541 28.2847Z" fill="#D42F55"/>
</g>
<g style="mix-blend-mode:multiply" opacity="0.5">
<path d="M73.3134 33.2761C73.1143 33.8393 73.637 34.0312 73.9605 33.8264C74.2841 33.6217 74.1721 32.7514 74.0476 32.8026C73.7938 32.9451 73.5486 33.1032 73.3134 33.2761Z" fill="#D42F55"/>
</g>
<path d="M75.902 31.0108C75.5162 31.0876 76.0886 30.6524 76.4371 30.3197C76.7856 29.9869 76.2504 30.8444 75.902 31.0108Z" fill="white"/>
<path d="M72.9027 34.62C72.8405 34.62 73.4627 34.2617 73.5623 34.3256C73.6619 34.3896 72.9027 34.62 72.9027 34.62Z" fill="white"/>
</g>
<defs>
<linearGradient id="paint0_linear_0_1456" x1="44.6028" y1="70.4687" x2="44.6028" y2="0.998402" gradientUnits="userSpaceOnUse">
<stop stop-color="#3D069A"/>
<stop offset="1" stop-color="#6509BA"/>
</linearGradient>
<linearGradient id="paint1_linear_0_1456" x1="34.8833" y1="70.5325" x2="34.8833" y2="1.02387" gradientUnits="userSpaceOnUse">
<stop stop-color="#512EFF"/>
<stop offset="1" stop-color="#7C1ACC"/>
</linearGradient>
<linearGradient id="paint2_linear_0_1456" x1="69.5177" y1="37.6788" x2="69.5177" y2="4.67146" gradientUnits="userSpaceOnUse">
<stop stop-color="#FF5900"/>
<stop offset="0.23" stop-color="#FE6800"/>
<stop offset="0.66" stop-color="#FA9300"/>
<stop offset="0.85" stop-color="#F66A00"/>
<stop offset="1" stop-color="#F63F00"/>
</linearGradient>
<linearGradient id="paint3_linear_0_1456" x1="68.4972" y1="37.858" x2="68.4972" y2="4.51781" gradientUnits="userSpaceOnUse">
<stop stop-color="#FF5900"/>
<stop offset="0.23" stop-color="#FE6800"/>
<stop offset="0.66" stop-color="#FA9300"/>
<stop offset="0.85" stop-color="#F66A00"/>
<stop offset="1" stop-color="#F63F00"/>
</linearGradient>
<linearGradient id="paint4_linear_0_1456" x1="70.4013" y1="36.399" x2="59.0662" y2="6.11708" gradientUnits="userSpaceOnUse">
<stop stop-color="#FFEA34"/>
<stop offset="0.63" stop-color="#FF8100"/>
<stop offset="0.7" stop-color="#FFA400"/>
<stop offset="1" stop-color="#FFBA00"/>
</linearGradient>
<linearGradient id="paint5_linear_0_1456" x1="67.5763" y1="32.0219" x2="60.3594" y2="12.7365" gradientUnits="userSpaceOnUse">
<stop stop-color="#FFBA00"/>
<stop offset="0.21" stop-color="#FE6800"/>
<stop offset="1" stop-color="#D41B00"/>
</linearGradient>
<linearGradient id="paint6_linear_0_1456" x1="64.577" y1="32.8026" x2="64.577" y2="11.8643" gradientUnits="userSpaceOnUse">
<stop offset="0.04" stop-color="#EF6300"/>
<stop offset="1" stop-color="#E13E00"/>
</linearGradient>
<linearGradient id="paint7_linear_0_1456" x1="65.6385" y1="32.5567" x2="64.2531" y2="12.1671" gradientUnits="userSpaceOnUse">
<stop stop-color="#C82400"/>
<stop offset="0.51" stop-color="#D84400"/>
<stop offset="1" stop-color="#D42F00"/>
</linearGradient>
<linearGradient id="paint8_linear_0_1456" x1="64.7635" y1="32.5264" x2="63.3868" y2="12.2645" gradientUnits="userSpaceOnUse">
<stop stop-color="#FFAB00"/>
<stop offset="0.49" stop-color="#FFBA00"/>
<stop offset="1" stop-color="#EF6C00"/>
</linearGradient>
<clipPath id="clip0_0_1456">
<rect width="82" height="82" fill="white"/>
</clipPath>
</defs>
</svg>
