<svg width="58" height="65" viewBox="0 0 58 65" fill="none" xmlns="http://www.w3.org/2000/svg">
<g clip-path="url(#clip0_1_304)">
<path d="M42.62 7.08002H15.05C6.73811 7.08002 0 13.8181 0 22.13V49.7C0 58.0119 6.73811 64.75 15.05 64.75H42.62C50.9319 64.75 57.67 58.0119 57.67 49.7V22.13C57.67 13.8181 50.9319 7.08002 42.62 7.08002Z" fill="#2B0038"/>
<path d="M57.67 19.84V47.42C57.6877 50.0857 56.9975 52.7083 55.67 55.02C55.6671 55.0399 55.6671 55.0601 55.67 55.08L55.6 55.18C55.6 55.18 55.6 55.18 55.6 55.24C55.34 55.63 55.08 56.01 54.81 56.38C54.1802 57.2079 53.4737 57.9746 52.7 58.67C49.9551 61.0907 46.4199 62.4245 42.76 62.42H15.05C12.6163 62.4228 10.2185 61.8335 8.0634 60.7028C5.90832 59.5721 4.06072 57.9341 2.68001 55.93C2.68001 55.93 2.68001 55.93 2.68001 55.93C0.949639 53.4298 0.0249714 50.4605 0.0300001 47.42V19.84C0.0431816 15.8658 1.62777 12.0581 4.43796 9.24792C7.24815 6.43773 11.0558 4.85315 15.03 4.83996H42.61C44.5849 4.83206 46.5419 5.21422 48.3687 5.96451C50.1955 6.71479 51.8562 7.81843 53.2554 9.2121C54.6547 10.6058 55.7649 12.262 56.5225 14.0858C57.28 15.9096 57.67 17.8651 57.67 19.84V19.84Z" fill="#46056D"/>
<g style="mix-blend-mode:soft-light" opacity="0.2">
<path d="M1.44999 53.85C1.74999 40.73 20.1 57.58 32.16 57.58C44.22 57.58 49.85 44.3 54.62 46.23C59.39 48.16 54.37 59 45.72 61.32C37.07 63.64 15.96 62.58 10.52 61.77C5.08 60.96 1.44999 53.85 1.44999 53.85Z" fill="white"/>
</g>
<g style="mix-blend-mode:soft-light">
<path d="M55.58 55.08C55.5611 55.1307 55.5341 55.178 55.5 55.22C55.5 55.22 55.5 55.22 55.5 55.28C55.2567 55.6735 54.993 56.054 54.71 56.42C54.0802 57.2479 53.3737 58.0146 52.6 58.71C49.8551 61.1308 46.3199 62.4645 42.66 62.46H15.05C12.6163 62.4629 10.2185 61.8736 8.0634 60.7429C5.90831 59.6122 4.06071 57.9741 2.68 55.97C2.60697 55.8381 2.54347 55.701 2.49 55.56C2.9 55.89 11.26 62.39 31.05 62.39C49.45 62.39 54.71 56.39 55.54 55.22L55.58 55.08Z" fill="#BF77D8"/>
</g>
<path d="M43.71 45.65L42.78 45.8C40.8299 46.1218 38.8402 46.1218 36.89 45.8V45.8L29.89 42.2L28.46 41.47L27.8 41.92L22.52 45.37L22.02 45.71L21.43 45.77H21.31C19.76 45.91 16.19 46.17 14.57 45.69H14.52C14.29 45.62 14.2 45.37 14.24 44.97C14.39 43.11 17.17 37.97 19.59 33.85C21.43 30.67 23.04 28.09 23.04 28.09L23.32 24.86L24.14 15.31L25.36 1.06L25.42 0.390007C25.42 0.390007 29.81 -0.549993 32.66 0.390007C33.66 0.880007 35.56 7.56 37.45 15.57C37.98 17.82 38.51 20.15 39.02 22.48C39.53 24.81 40.02 27.21 40.52 29.48C42.35 38.37 43.71 45.65 43.71 45.65Z" fill="url(#paint0_linear_1_304)"/>
<path d="M44.36 31.67C44.36 31.67 46.86 43.54 44.08 45.46C43.9666 45.541 43.8419 45.6051 43.71 45.65V45.65C43.4111 45.7539 43.0964 45.8047 42.78 45.8V45.8C41.3845 45.6738 40.0265 45.28 38.78 44.64C36.4559 43.5167 34.2254 42.2092 32.11 40.73C32.11 40.73 31.2 41.37 29.87 42.19L29.04 42.68H28.99C26.8581 44.0427 24.5219 45.0555 22.07 45.68V45.68C21.8757 45.7188 21.6781 45.7388 21.48 45.74H21.36C21.0211 45.7502 20.683 45.7028 20.36 45.6C20.2206 45.5421 20.0868 45.4719 19.96 45.39C19.6856 45.1785 19.4661 44.9041 19.32 44.59C18.21 42.32 19.02 36.91 19.61 33.81C19.86 32.49 20.07 31.6 20.07 31.6C17.3254 29.4398 14.7969 27.0185 12.52 24.37C11.14 22.61 10.19 20.88 10.46 19.64C10.89 17.64 14.61 16.53 18.09 15.95C20.076 15.6247 22.0795 15.4177 24.09 15.33H24.35C25.5158 11.3716 27.0736 7.5393 29 3.89002C30.13 1.94002 31.36 0.510013 32.52 0.430013H32.61C32.7735 0.427161 32.9362 0.454277 33.09 0.510015C36.84 1.66002 40.47 15.33 40.47 15.33C40.47 15.33 53.47 15.73 54.24 19.66C55.01 23.59 44.36 31.67 44.36 31.67Z" fill="url(#paint1_linear_1_304)"/>
<path d="M37.96 31.67C37.96 31.67 40.29 41.42 38.71 44.67C38.5712 44.9913 38.3505 45.2706 38.07 45.48C37.7088 45.7096 37.288 45.8279 36.86 45.82C34.78 45.89 31.43 44.17 28.97 42.71C28.52 42.44 28.08 42.18 27.71 41.94C26.62 41.26 25.9 40.76 25.9 40.76C23.7833 42.2402 21.553 43.5509 19.23 44.68C18.3453 45.1037 17.4208 45.4387 16.47 45.68C15.8203 45.8703 15.1342 45.9012 14.47 45.77H14.42C14.2097 45.7183 14.01 45.6303 13.83 45.51C11.12 43.63 13.45 32.27 13.56 31.74C13.56 31.74 2.99 23.51 3.69 19.74C4.52 15.72 17.52 15.37 17.52 15.37C17.52 15.37 21.47 0.469971 25.37 0.469971C26.56 0.469971 27.82 1.92996 29 3.92996C30.9076 7.58312 32.4517 11.4149 33.61 15.37C33.61 15.37 35.26 15.42 37.42 15.67C40.0616 15.8872 42.6581 16.4834 45.13 17.44C46.39 18.02 47.3 18.76 47.5 19.7C48.05 22.26 43.5 26.87 40.5 29.56C39.05 30.8 37.96 31.67 37.96 31.67Z" fill="url(#paint2_linear_1_304)"/>
<g style="mix-blend-mode:soft-light">
<path d="M33.61 15.37C33.61 15.37 38.93 15.22 41.2 15.37C50 16.11 52.36 17.57 53.04 18.59C53.72 19.61 48.04 18.69 47.66 18.68C47.28 18.67 47 17.23 42.25 16.61C37.5 15.99 33.61 15.37 33.61 15.37Z" fill="white"/>
</g>
<g style="mix-blend-mode:multiply" opacity="0.3">
<path d="M44.35 31.67C43.13 32.04 39.5 31.73 38.96 31.67C38.42 31.61 45.96 25.02 47.38 22.38C48.8 19.74 53.19 19.98 53.84 20.45C54.49 20.92 51.07 25.45 48.79 27.82C47.4092 29.2134 45.9249 30.5004 44.35 31.67V31.67Z" fill="#B30053"/>
</g>
<g style="mix-blend-mode:soft-light">
<path d="M43.01 21.14C41.7079 21.6887 40.3718 22.153 39.01 22.53C33.8673 23.8988 28.588 24.6904 23.27 24.89C19.6783 25.0729 16.0773 24.8987 12.52 24.37C8.98 23.8 6.12 22.75 4.63 21.13C4.24989 20.6844 3.94887 20.1771 3.74 19.63C3.83329 19.2786 3.99534 18.9492 4.21676 18.6608C4.43819 18.3724 4.71459 18.1308 5.02999 17.95L5.46 17.68H5.53999C9.31999 15.61 17.54 15.36 17.54 15.36C17.54 15.36 21.49 0.459961 25.39 0.459961C25.7465 0.472166 26.0926 0.58294 26.39 0.779968C27.4862 1.61854 28.3813 2.69131 29.01 3.91997C30.9148 7.5767 32.4555 11.4118 33.61 15.37C33.61 15.37 35.26 15.42 37.42 15.67C40.0616 15.8872 42.6581 16.4834 45.13 17.44C45.3222 18.2111 45.2089 19.0266 44.8139 19.7162C44.4188 20.4057 43.7724 20.9159 43.01 21.14Z" fill="white"/>
</g>
<g style="mix-blend-mode:multiply" opacity="0.2">
<path d="M5.52 22.76C4.01 23.41 7.89001 26.92 11.15 28.87C14.41 30.82 39.63 25.09 41.95 25.61C44.27 26.13 47.95 21.92 47.3 20.14C46.65 18.36 45.52 18.14 45.52 18.45C45.115 19.371 44.5026 20.1859 43.7307 20.8312C42.9588 21.4765 42.0482 21.9347 41.07 22.17C38.02 22.93 14.31 24.71 11.59 24.95C8.87001 25.19 5.78 22.66 5.52 22.76Z" fill="#DA0553"/>
</g>
<g style="mix-blend-mode:soft-light">
<path d="M14.52 45.26C12.22 44.74 12.52 38.51 13.96 36.8C15.4 35.09 33.53 35.21 37.01 36.27C40.49 37.33 38.95 44.52 37.74 45.27C36.53 46.02 26.47 39.95 25.65 40.14C24.83 40.33 18.98 46.26 14.52 45.26Z" fill="white"/>
</g>
<path d="M34.82 29.07L33.4 30.23L33.81 31.86C34.6208 34.8205 35.0576 37.8709 35.11 40.94C35.11 41.14 35.11 41.32 35.11 41.5C32.5575 40.4683 30.1425 39.1247 27.92 37.5L26.61 36.57L25.88 36.05L23.88 37.5C22.0736 38.8082 20.1563 39.9559 18.15 40.93C17.7111 41.1424 17.2604 41.3293 16.8 41.49C16.6596 38.245 16.9965 34.997 17.8 31.85L18.18 30.22L16.72 29.06C13.24 26.29 9.82 22.69 9.11 21.06C10.44 20.28 14.69 19.49 18.5 19.36L20.96 19.29L21.6 17.08C22.534 13.6697 23.8419 10.373 25.5 7.25C25.77 7.68 26.04 8.17999 26.33 8.73999C27.6723 11.4239 28.7927 14.2133 29.68 17.08L30.37 19.29L32.84 19.37C36.65 19.49 40.93 20.28 42.27 21.06C41.52 22.7 38.23 26.3 34.82 29.07Z" fill="url(#paint3_linear_1_304)"/>
<path d="M42.22 21.09C41.61 22.56 38.77 25.71 35.68 28.35C35.4 28.6 35.11 28.83 34.82 29.07L33.4 30.23L33.82 31.86C34.6253 34.8211 35.0553 37.8717 35.1 40.94C33.0742 39.9667 31.1369 38.819 29.31 37.51L27.31 36.06H25.87L23.87 37.51C22.066 38.8218 20.1484 39.9697 18.14 40.94C18.14 40.68 18.14 40.4 18.14 40.1C18.14 39.8 18.14 39.38 18.14 38.98C18.2796 36.9623 18.5636 34.9571 18.99 32.98C19.0567 32.62 19.1367 32.26 19.23 31.9L19.61 30.27L18.15 29.11C14.69 26.34 11.29 22.74 10.6 21.11C11.92 20.33 16.19 19.54 20 19.41L22.46 19.34L23.1 17.13C23.9304 14.2632 24.9974 11.4703 26.29 8.78003C27.6229 11.4704 28.7398 14.2625 29.63 17.13L30.32 19.34L32.79 19.42C36.59 19.52 40.87 20.31 42.22 21.09Z" fill="url(#paint4_linear_1_304)"/>
<path d="M25.84 36.06C26.4985 36.0261 27.1558 36.146 27.76 36.41C28.31 36.79 31.84 39.19 31.83 39.59C31.82 39.99 28.11 37.71 25.84 36.06Z" fill="#FFE016"/>
<g style="mix-blend-mode:soft-light">
<path d="M16.76 41.5C16.25 41.31 17.3 38.01 17.68 37.73C18.06 37.45 17.96 40.73 18.11 40.94C17.7032 41.2173 17.2436 41.4079 16.76 41.5Z" fill="white"/>
</g>
<g style="mix-blend-mode:multiply" opacity="0.5">
<path d="M18.12 30.23H19.6C19.6 30.23 18.09 34.63 17.86 35.81C17.63 36.99 16.92 34.56 18.12 30.23Z" fill="#D42F55"/>
</g>
<g style="mix-blend-mode:multiply" opacity="0.5">
<path d="M9.91999 22.46C8.99999 20.8 22.64 21.4 22.64 21.4C22.64 21.4 25.42 12.37 27.52 11.37C27.52 11.37 25.79 7.36998 25.52 7.30998C25.25 7.24998 20.98 19.31 20.98 19.31C16.9599 19.2496 12.957 19.8475 9.12999 21.08L9.91999 22.46Z" fill="#D42F55"/>
</g>
<g style="mix-blend-mode:multiply" opacity="0.5">
<path d="M30.31 19.37C30.31 19.37 40.57 21.14 41.53 22.09L42.21 21.14C42.21 21.14 39.06 19.54 30.31 19.37Z" fill="#D42F55"/>
</g>
<g style="mix-blend-mode:multiply" opacity="0.3">
<path d="M28.95 1.53999C27.01 1.53999 29.82 4.87999 31.18 7.99999C32.54 11.12 38.88 11.09 38.88 11.09C38.88 11.09 36.17 3.20998 34.48 2.26998C32.79 1.32998 28.95 1.53999 28.95 1.53999Z" fill="#B30053"/>
</g>
<g style="mix-blend-mode:multiply" opacity="0.3">
<path d="M38.01 45.99C37.6 45.68 38.86 45.88 39.38 43.68C39.9 41.48 44.66 41.68 45.12 41.94C45.58 42.2 44.83 44.94 44.12 45.46C43.41 45.98 38.01 45.99 38.01 45.99Z" fill="#B30053"/>
</g>
<g style="mix-blend-mode:soft-light">
<path d="M39.83 41.78C39.3 41.59 39.35 36.45 39.37 35.48C39.39 34.51 44.55 34.91 44.81 35.48C45.07 36.05 45.3 41.16 45 41.48C44.7 41.8 40.18 41.9 39.83 41.78Z" fill="white"/>
</g>
<g style="mix-blend-mode:soft-light" opacity="0.5">
<path d="M22.84 45.37C24.02 45.15 26.55 44.02 26.64 43.68C26.73 43.34 23.85 43.03 23.19 42.96C22.53 42.89 18.62 45.19 18.33 45.37C19.8321 45.4552 21.3379 45.4552 22.84 45.37Z" fill="white"/>
</g>
<g style="mix-blend-mode:multiply" opacity="0.5">
<path d="M25.95 40.94C24.9958 41.3511 24.1274 41.938 23.39 42.67C23.32 42.99 26.39 43.36 26.79 43.43C27.5384 43.2854 28.2645 43.0433 28.95 42.71C28.95 42.71 26.07 40.9 25.95 40.94Z" fill="#D42F55"/>
</g>
<g style="mix-blend-mode:multiply" opacity="0.5">
<path d="M48.06 21.76C47.71 22.15 45.78 24.48 45.8 25.08C45.82 25.68 51.26 24.99 51.6 24.55C51.94 24.11 54.36 20.82 53.84 20.45C53.32 20.08 49.08 20.63 48.06 21.76Z" fill="#D42F55"/>
</g>
<path d="M33.61 15.37C33.61 15.37 44.85 16.46 46.37 18.7C48.67 22.09 41.37 28.76 41.37 28.76C41.37 28.76 48.65 22.3 47.64 19.11C46.63 15.92 33.61 15.37 33.61 15.37Z" fill="#FFE016"/>
<path d="M46.59 17.86C45.74 17.46 47.05 19.57 46.85 21.1C46.65 22.63 47.74 20.67 47.72 19.63C47.6713 19.2706 47.545 18.9262 47.3499 18.6206C47.1547 18.3149 46.8954 18.0554 46.59 17.86V17.86Z" fill="white"/>
<g style="mix-blend-mode:soft-light">
<path d="M27.09 1.36999C24.86 0.539992 26.21 8.36999 28.55 14.04C30.8 19.45 33.05 17.3 33.55 15.9C34.05 14.5 28.94 2.71999 27.09 1.36999Z" fill="white"/>
</g>
<path d="M29.4 6.36998C27.78 6.15998 28.72 11.08 29.72 12.81C30.72 14.54 32.14 13.4 32.17 11.9C32.2 10.4 30.01 6.46998 29.4 6.36998Z" fill="white"/>
<g style="mix-blend-mode:soft-light">
<path d="M26.8 0.55999C26.08 0.77999 28.8 1.28999 30.96 1.55999C33.12 1.82999 33.6 1.82999 33.59 1.28999C33.58 0.749986 30.73 -0.63001 26.8 0.55999Z" fill="white"/>
</g>
<g style="mix-blend-mode:soft-light">
<path d="M37.98 45.81C37.79 45.62 43.36 44.89 43.92 45C44.48 45.11 43.21 45.7 43.21 45.7C43.21 45.7 39.52 46.31 37.98 45.81Z" fill="white"/>
</g>
<g style="mix-blend-mode:soft-light" opacity="0.5">
<path d="M33.82 31.86C34.6253 34.8211 35.0553 37.8717 35.1 40.94C33.0742 39.9667 31.1369 38.819 29.31 37.51L27.31 36.06H25.87L23.87 37.51C22.066 38.8218 20.1484 39.9697 18.14 40.94C18.14 40.68 18.14 40.4 18.14 40.1L18.63 39.63C18.44 39.63 18.28 39.36 18.18 38.98C17.8639 36.94 18.1597 34.852 19.03 32.98C19.8743 30.9351 21.363 29.2217 23.27 28.1C29.21 24.73 35.73 28.39 35.73 28.39C35.45 28.64 35.16 28.87 34.87 29.11L33.45 30.27L33.82 31.86Z" fill="white"/>
</g>
<path d="M13.18 43.76C12.97 42.29 13.53 41.31 14.04 41.36C14.55 41.41 15.25 44.72 14.77 45.11C14.29 45.5 13.24 44.14 13.18 43.76Z" fill="white"/>
<g style="mix-blend-mode:multiply" opacity="0.8">
<path d="M28.9 42.73C26.7681 44.0927 24.4319 45.1055 21.98 45.73V45.73C21.7857 45.7687 21.5881 45.7888 21.39 45.79H21.27C19.72 45.93 16.15 46.19 14.53 45.71H14.48C14.2697 45.6583 14.07 45.5703 13.89 45.45C11.18 43.57 13.51 32.21 13.62 31.68C13.55 32.19 12.27 41.87 13.4 44.21C13.5788 44.547 13.8585 44.8197 14.2 44.99C14.916 45.3552 15.6982 45.5729 16.5 45.63C17.7641 45.7448 19.0359 45.7448 20.3 45.63C21.12 45.56 21.89 45.47 22.51 45.36C22.9433 45.3002 23.3713 45.2066 23.79 45.08C25.5382 44.3983 27.2446 43.6136 28.9 42.73V42.73Z" fill="#D42F55"/>
</g>
<g style="mix-blend-mode:multiply" opacity="0.8">
<path d="M33.07 0.499992L32.63 0.439995H32.5C30.4498 0.204939 28.3747 0.313078 26.36 0.759987C25.995 0.849463 25.6373 0.96647 25.29 1.10999C25.1505 1.15515 25.0163 1.2155 24.89 1.28999C19.33 4.90999 18.07 15.98 18.07 15.98C18.07 15.98 8.06999 16.67 5.53999 17.66C9.31999 15.59 17.54 15.34 17.54 15.34C17.54 15.34 21.49 0.439995 25.39 0.439995C25.39 0.439995 29.78 -0.500005 32.63 0.439995C32.779 0.435384 32.9277 0.45566 33.07 0.499992V0.499992Z" fill="#D42F55"/>
</g>
<path d="M44.74 25.61C44.74 24.2 41.44 26.96 41.21 27.51C40.98 28.06 40.8 28.79 40.96 29.03C41.12 29.27 44.42 28.52 44.74 25.61Z" fill="#DC2C00"/>
<g style="mix-blend-mode:multiply" opacity="0.5">
<path d="M44.45 25.31C43.9397 25.3233 43.4504 25.516 43.0681 25.8544C42.6858 26.1927 42.4351 26.655 42.36 27.16C42.26 28.16 43.26 28.16 44.11 27.16C44.96 26.16 44.7 25.37 44.45 25.31Z" fill="#D42F55"/>
</g>
<path d="M41.25 27.43C41.25 27.43 41.2 28.23 41.5 28.43C41.98 28.76 43.04 28.34 43.04 28.34C42.4113 28.791 41.6965 29.1076 40.94 29.27C40.05 29.37 41.25 27.43 41.25 27.43Z" fill="#FFBA00"/>
<path d="M40.69 29.19C40.41 28.83 42.12 28.81 42.27 28.77C42.42 28.73 40.99 29.54 40.69 29.19Z" fill="white"/>
<path d="M20.52 44.04C20.3 44.04 20.75 43.04 21.28 42.89C21.81 42.74 22.55 42.73 22.51 43.08C22.3257 43.4328 22.0325 43.7168 21.674 43.8897C21.3155 44.0626 20.9108 44.1154 20.52 44.04V44.04Z" fill="#DC2C00"/>
<path d="M20.95 43.12C20.55 44.04 21.17 43.97 21.79 43.84C21.2795 44.0802 20.7241 44.2097 20.16 44.22C20.281 43.7696 20.5618 43.3785 20.95 43.12V43.12Z" fill="#FFBA00"/>
<path d="M20.25 44.2C20.19 44.13 20.59 43.87 20.84 43.87C21.0181 43.8548 21.1957 43.9045 21.34 44.01C21.0018 44.1746 20.624 44.2404 20.25 44.2V44.2Z" fill="white"/>
<g style="mix-blend-mode:multiply" opacity="0.5">
<path d="M21.67 42.8C20.84 43.21 21.09 43.8 21.75 43.8C22.41 43.8 22.63 43.08 22.47 42.94C22.31 42.8 21.67 42.8 21.67 42.8Z" fill="#D42F55"/>
</g>
<g style="mix-blend-mode:soft-light">
<path d="M15.1 26.37C13.3 25.47 16.1 28.61 16.91 29.23L18.12 30.23H19.6C18.1729 28.8607 16.6706 27.572 15.1 26.37V26.37Z" fill="white"/>
</g>
<path d="M18.12 30.23C17.75 29.93 17.48 28.98 17.91 29.03C18.5298 29.3439 19.0993 29.7483 19.6 30.23H18.12Z" fill="white"/>
<path d="M25.84 36.06C26.497 36.0465 27.15 36.1655 27.76 36.41C28.2617 36.815 28.7392 37.249 29.19 37.71C28.0006 37.3219 26.8726 36.7663 25.84 36.06V36.06Z" fill="#FFE016"/>
<g style="mix-blend-mode:multiply" opacity="0.8">
<path d="M28.13 42.19C30.9328 43.5012 33.8271 44.6075 36.79 45.5C38.9683 45.8849 41.1895 45.9657 43.39 45.74C41.0502 46.1182 38.6668 46.1418 36.32 45.81C32.99 45.21 28.13 42.19 28.13 42.19Z" fill="#D42F55"/>
</g>
<path d="M3.96 19.75C4.27 21.32 6.40999 19.24 6.87999 18.33C7.34999 17.42 4.05 17.46 3.96 19.75Z" fill="white"/>
<path d="M33.4 30.23C33.4 30.23 40.52 25.35 42.21 21.09C39.8882 24.6746 36.8969 27.778 33.4 30.23V30.23Z" fill="#FFE016"/>
<g style="mix-blend-mode:multiply" opacity="0.3">
<path d="M20.11 29.06C19.43 29.13 16.18 26.38 15.67 25.06C15.16 23.74 19.67 25.06 26.49 24.71C33.31 24.36 41.06 21.16 40.94 21.57C40.82 21.98 36.59 26.8 35.53 27.03C34.47 27.26 32.19 25.69 27.36 25.82C22.53 25.95 21.03 28.96 20.11 29.06Z" fill="#B30053"/>
</g>
</g>
<defs>
<linearGradient id="paint0_linear_1_304" x1="33.27" y1="49.45" x2="16.58" y2="3.61" gradientUnits="userSpaceOnUse">
<stop stop-color="#FF5900"/>
<stop offset="0.23" stop-color="#FE6800"/>
<stop offset="0.66" stop-color="#FA9300"/>
<stop offset="0.85" stop-color="#F66A00"/>
<stop offset="1" stop-color="#F63F00"/>
</linearGradient>
<linearGradient id="paint1_linear_1_304" x1="41.85" y1="46.33" x2="25.98" y2="2.73001" gradientUnits="userSpaceOnUse">
<stop stop-color="#FF5900"/>
<stop offset="0.23" stop-color="#FE6800"/>
<stop offset="0.66" stop-color="#FA9300"/>
<stop offset="0.85" stop-color="#F66A00"/>
<stop offset="1" stop-color="#F63F00"/>
</linearGradient>
<linearGradient id="paint2_linear_1_304" x1="35.23" y1="46.55" x2="19.21" y2="2.53996" gradientUnits="userSpaceOnUse">
<stop stop-color="#FFEA34"/>
<stop offset="0.63" stop-color="#FF8100"/>
<stop offset="0.7" stop-color="#FFA400"/>
<stop offset="1" stop-color="#FFBA00"/>
</linearGradient>
<linearGradient id="paint3_linear_1_304" x1="33.29" y1="42.14" x2="21.17" y2="8.84" gradientUnits="userSpaceOnUse">
<stop stop-color="#FFBA00"/>
<stop offset="0.21" stop-color="#FE6800"/>
<stop offset="1" stop-color="#D41B00"/>
</linearGradient>
<linearGradient id="paint4_linear_1_304" x1="33.8" y1="41.41" x2="22.43" y2="10.16" gradientUnits="userSpaceOnUse">
<stop offset="0.04" stop-color="#FF9000"/>
<stop offset="1" stop-color="#E13E00"/>
</linearGradient>
<clipPath id="clip0_1_304">
<rect width="57.68" height="64.75" fill="white"/>
</clipPath>
</defs>
</svg>
