<svg width="58" height="63" viewBox="0 0 58 63" fill="none" xmlns="http://www.w3.org/2000/svg">
<g clip-path="url(#clip0_1_515)">
<path d="M42.67 4.34998H15.1C6.78816 4.34998 0.0500488 11.0881 0.0500488 19.4V46.97C0.0500488 55.2819 6.78816 62.02 15.1 62.02H42.67C50.9819 62.02 57.7201 55.2819 57.7201 46.97V19.4C57.7201 11.0881 50.9819 4.34998 42.67 4.34998Z" fill="#2B0038"/>
<path d="M57.72 17.12V44.7C57.724 47.3686 57.0127 49.9895 55.66 52.29C55.6633 52.3132 55.6633 52.3368 55.66 52.36C55.66 52.36 55.66 52.42 55.6 52.46C55.54 52.5 55.6 52.46 55.6 52.46C55.34 52.86 55.08 53.24 54.81 53.61C54.1823 54.4366 53.4756 55.2002 52.7 55.89C49.9565 58.3144 46.4212 59.6517 42.76 59.65H15.1C12.6663 59.6529 10.2685 59.0635 8.11338 57.9328C5.95829 56.8021 4.11072 55.1641 2.73002 53.16C0.992014 50.663 0.0633915 47.6923 0.0699811 44.65V17.12C0.0832181 13.1354 1.67609 9.3187 4.49924 6.5068C7.32239 3.69489 11.1454 2.11732 15.13 2.11999H42.68C44.6532 2.11473 46.608 2.49883 48.4325 3.2503C50.257 4.00176 51.9154 5.1058 53.3125 6.4992C54.7096 7.8926 55.8181 9.54798 56.5744 11.3705C57.3307 13.193 57.72 15.1468 57.72 17.12Z" fill="#46056D"/>
<g style="mix-blend-mode:soft-light" opacity="0.2">
<path d="M1.5 51.13C1.8 38.01 20.15 54.86 32.21 54.86C44.27 54.86 49.9 41.58 54.67 43.51C59.44 45.44 54.41 56.28 45.77 58.6C37.13 60.92 16 59.86 10.57 59.05C5.14001 58.24 1.5 51.13 1.5 51.13Z" fill="white"/>
</g>
<g style="mix-blend-mode:soft-light">
<path d="M55.6201 52.36C55.6007 52.4105 55.5737 52.4577 55.54 52.5V52.5C55.2998 52.8987 55.0359 53.2827 54.75 53.65C54.1223 54.4766 53.4156 55.2402 52.64 55.93C49.8966 58.3544 46.3612 59.6917 42.7 59.69H15.1C12.6664 59.6929 10.2685 59.1035 8.1134 57.9728C5.95832 56.8422 4.11075 55.2041 2.73004 53.2C2.65701 53.068 2.59351 52.931 2.54004 52.79C2.95004 53.11 11.3 59.62 31.1 59.62C49.5 59.62 54.76 53.62 55.59 52.45C55.58 52.42 55.6101 52.39 55.6201 52.36Z" fill="#BF77D8"/>
</g>
<path d="M53.89 29.3C54.06 28.52 54.31 27.7 54.58 26.84L54.7901 26.15C55.6901 23.15 56.4801 19.56 54.3501 15.1C51.4101 8.96998 44.1 9.66998 41.89 6.78998C39.68 3.90998 40.4 2.73 38.14 2.25C35.88 1.77 33.0001 4.04999 31.6601 2.79999C28.3801 -0.25001 25.8901 -1.25 23.4101 2.25C21.4101 5.08 17.6001 2.37999 14.8501 4.70999C12.1001 7.03999 13.8501 10.71 9.85006 13.79C7.44006 15.63 4.02005 17.25 1.91005 20.4C2.09325 20.5932 2.23602 20.8209 2.33004 21.07C2.57646 21.7694 2.55509 22.5354 2.27004 23.22C1.95004 24.13 1.44003 24.27 0.950032 24.14C0.74387 24.0743 0.550907 23.9727 0.380024 23.84C-0.0313185 25.5376 -0.142953 27.294 0.0500682 29.03C0.110068 29.67 0.190058 30.26 0.290058 30.81C1.67006 38.6 6.59003 37.31 7.57003 39.9C8.57003 42.67 6.33005 46.05 8.41005 48.23C10.4901 50.41 14.53 48.93 16.25 49.52C17.97 50.11 19.66 55.28 26.89 55.38C34.12 55.48 36.2601 51.38 38.3601 50.83C41.3001 50 46.3601 52.6 48.6001 50.32C50.8401 48.04 48.93 43.48 49.76 42.04C50.48 40.79 53.9901 42.04 55.9901 40.33C56.2527 40.1171 56.476 39.8598 56.65 39.57V39.57L56.77 39.36C58.46 36.2 53.1 32.92 53.89 29.3ZM52.2201 14.3C52.5999 14.5997 52.8784 15.0089 53.0179 15.4722C53.1574 15.9354 53.1512 16.4304 53 16.89C52.8784 17.516 52.5202 18.0711 52 18.44C51.34 18.89 50.54 18.72 50.13 17.62C49.9295 17.1717 49.8259 16.6861 49.8259 16.195C49.8259 15.7039 49.9295 15.2183 50.13 14.77C50.47 14.19 51.1401 13.92 52.2201 14.29V14.3ZM2.08004 25.72C2.00407 25.6174 1.94656 25.5023 1.91005 25.38C1.63005 25.03 2.07006 24.61 2.48006 24.38C2.74006 24.28 2.98003 24.25 3.07003 24.38C3.18969 24.5781 3.29335 24.7854 3.38002 25C3.57002 25.47 3.67002 26.05 3.25002 26.17C3.19056 26.1813 3.12949 26.1813 3.07003 26.17C2.88091 26.1807 2.69206 26.1454 2.51961 26.067C2.34717 25.9886 2.1963 25.8695 2.08004 25.72V25.72Z" fill="url(#paint0_linear_1_515)"/>
<path d="M50.89 29.1C51.03 28.42 51.26 27.7 51.5 26.94L51.68 26.33C52.6079 23.806 52.7301 21.0564 52.03 18.46C51.37 18.91 50.57 18.74 50.16 17.64C49.9595 17.1917 49.8558 16.7061 49.8558 16.215C49.8558 15.7239 49.9595 15.2383 50.16 14.79C47.16 11.3 42.05 11.49 40.35 9.26998C38.41 6.72998 39.03 5.69998 37.04 5.26998C35.05 4.83998 32.52 6.85997 31.33 5.75997C28.45 3.06997 26.25 2.18998 24.06 5.26998C22.29 7.76998 18.94 5.38999 16.52 7.43999C14.1 9.48999 15.64 12.76 12.13 15.44C10.01 17.06 6.99999 18.44 5.12999 21.25C4.28354 22.3669 3.68676 23.6525 3.37999 25.02C3.30868 25.4064 3.26523 25.7974 3.24998 26.19C3.20667 27.0792 3.28067 27.9701 3.47001 28.84C3.58001 29.4 3.59003 29.93 3.68003 30.41C4.89003 37.28 9.23001 36.14 10.09 38.41C10.95 40.68 8.99 43.82 10.83 45.74C12.67 47.66 16.23 46.36 17.74 46.89C19.25 47.42 20.74 51.96 27.12 52.05C33.5 52.14 35.37 48.56 37.23 48.05C39.82 47.31 44.23 49.61 46.23 47.59C48.23 45.57 46.52 41.59 47.23 40.29C47.86 39.19 50.96 40.29 52.72 38.8C52.9413 38.6025 53.1363 38.3773 53.3 38.13V38.13C53.3403 38.0722 53.377 38.0121 53.41 37.95V37.95C54.91 35.19 50.19 32.3 50.89 29.1ZM51.74 37.22C51.713 37.2833 51.6794 37.3436 51.64 37.4V37.4C51.4984 37.6401 51.3157 37.8534 51.1 38.03V38.03C49.46 39.39 46.58 38.39 45.99 39.42C45.31 40.61 46.91 44.34 45.05 46.21C43.19 48.08 39.05 45.96 36.64 46.64C34.92 47.12 33.16 50.45 27.23 50.37C21.3 50.29 19.91 46.05 18.5 45.56C17.09 45.07 13.79 46.29 12.07 44.51C10.35 42.73 12.24 39.94 11.38 37.67C10.52 35.4 6.54999 36.6 5.37999 30.22C5.29999 29.76 5.28998 29.27 5.18998 28.75C4.8927 27.5317 4.87505 26.2618 5.13829 25.0357C5.40152 23.8096 5.93884 22.6589 6.71 21.67C8.44 19.09 11.25 17.76 13.23 16.25C16.49 13.76 15.06 10.72 17.31 8.79998C19.56 6.87998 22.68 9.10998 24.31 6.79998C26.31 3.92998 28.39 4.79997 31.08 7.25997C32.18 8.25997 34.54 6.40998 36.39 6.79998C38.24 7.18998 37.66 8.16999 39.47 10.53C41.28 12.89 47.28 12.31 49.69 17.34C50.3572 18.7498 50.733 20.2798 50.7949 21.8383C50.8568 23.3968 50.6034 24.9517 50.05 26.41V26.41C50.05 26.6 49.94 26.79 49.88 26.98C49.66 27.6369 49.4731 28.3044 49.32 28.98C48.69 32.02 53.08 34.66 51.74 37.22Z" fill="url(#paint1_linear_1_515)"/>
<g style="mix-blend-mode:multiply" opacity="0.5">
<path d="M56.02 40.3C54.02 41.97 50.51 40.76 49.79 42.01C48.96 43.45 50.91 48.01 48.63 50.29C46.35 52.57 41.33 49.97 38.39 50.8C36.29 51.39 34.14 55.45 26.92 55.35C19.7 55.25 18 50.09 16.28 49.49C14.56 48.89 10.52 50.38 8.44 48.2C6.36 46.02 8.64004 42.64 7.60004 39.87C6.60004 37.28 1.70001 38.57 0.320007 30.78C2.01001 35.26 5.48 37.61 7.63 38.16C9.78 38.71 7.29004 45.87 9.48004 47.96C11.67 50.05 14.36 48.17 16.34 48.58C18.32 48.99 21.86 54.51 27.34 54.83C32.82 55.15 36 49.9 38.34 48.83C40.68 47.76 44.59 51.88 47.77 50.11C50.95 48.34 47.97 43.26 49.25 41.33C50.4 39.71 54.28 41.33 56.02 40.3Z" fill="#912774"/>
</g>
<g style="mix-blend-mode:multiply" opacity="0.3">
<path d="M37.03 35.18C34.9 37.41 40.77 49.62 45.68 50.04C50.59 50.46 49.01 44.66 45.39 38.16C41.77 31.66 37.03 35.18 37.03 35.18Z" fill="#A20074"/>
<path d="M29.43 34.83C36.43 34.98 35.53 49.07 33.52 52.19C31.51 55.31 21.36 53.72 19.01 48.86C16.66 44 29.43 34.83 29.43 34.83Z" fill="#A20074"/>
<path d="M14.16 48.02C7.73004 50.16 7.86007 43.15 9.81007 40.33C11.7601 37.51 23.1101 33.04 24.3601 33.14C25.6101 33.24 16.76 47.2 14.16 48.02Z" fill="#A20074"/>
<path d="M20.4 31.4299C5.83002 35.7199 1.88005 37.2399 1.24005 29.2499C1.24005 29.2499 1.51002 27.6999 2.08002 25.7199C2.19173 25.8801 2.34175 26.0098 2.51642 26.0971C2.69109 26.1844 2.88485 26.2267 3.08002 26.2199C4.02002 26.2199 3.31002 24.7199 3.08002 24.3999C2.99002 24.2899 2.75005 24.3199 2.49005 24.3999C3.56005 21.1999 5.34004 17.5699 7.98004 17.4599C12.71 17.2899 34.97 27.1399 20.4 31.4299Z" fill="#A20074"/>
<path d="M17.44 4.28996C14.27 5.28996 11.77 11.97 20.82 19.97C29.87 27.97 23.63 6.07999 21.91 5.15999C20.4954 4.56666 18.9739 4.27051 17.44 4.28996Z" fill="#A20074"/>
<path d="M25.82 0.709961C23.2 2.49996 27.36 17.08 28.91 19.65C30.46 22.22 31.28 4.74996 29.91 2.86996C28.8649 1.66372 27.4055 0.893028 25.82 0.709961Z" fill="#A20074"/>
<path d="M35.46 3.82995C34.13 4.76995 30.66 18.64 31.53 19.91C32.4 21.18 40.09 9.14996 39.75 5.90996C39.7536 5.41096 39.6158 4.92115 39.3524 4.49731C39.089 4.07346 38.7109 3.73293 38.2618 3.51522C37.8128 3.29751 37.3113 3.21153 36.8154 3.26723C36.3195 3.32293 35.8496 3.51805 35.46 3.82995V3.82995Z" fill="#A20074"/>
<path d="M47.82 10.48C43.16 9.11995 37.41 15.07 36.51 21.18C35.61 27.29 52.18 28.65 54.26 24.7C56.34 20.75 53.28 12.07 47.82 10.48ZM53 16.8799C52.58 18.6799 50.85 19.44 50.16 17.61C49.47 15.78 49.82 13.4799 52.22 14.2899C52.5999 14.5896 52.8784 14.9989 53.0179 15.4621C53.1574 15.9254 53.1512 16.4203 53 16.8799V16.8799Z" fill="#A20074"/>
<path d="M38.39 27.72C37.47 29.5 46.89 39.57 52.39 39.84C57.89 40.11 57.6201 35.0499 50.1601 31.5699C42.7001 28.0899 38.39 27.72 38.39 27.72Z" fill="#A20074"/>
</g>
<path d="M0.410039 23.81C0.580921 23.9427 0.773885 24.0443 0.980046 24.11C0.468037 25.6938 0.165445 27.3377 0.0800219 29C-0.112999 27.264 -0.00130379 25.5076 0.410039 23.81Z" fill="#FF4F90"/>
<path d="M54.8 26.12C55.7605 22.3951 55.2671 18.4442 53.42 15.07C50.08 9.16997 44.6 10.58 42.66 8.54998C40.72 6.51998 40.8 3.82998 38.15 2.86998C35.5 1.90998 33.03 4.93997 31.94 4.72997C30.85 4.51997 30.33 0.14997 26.84 0.72997L26.39 0.829976C26.0379 0.915542 25.7008 1.05377 25.39 1.23998C23.56 2.33998 23.93 4.63999 22.9 4.74999C21.87 4.85999 19.59 4.05998 17.48 4.29998H17.42C16.634 4.37475 15.8868 4.67708 15.27 5.16997C13.06 7.05997 13.27 12.86 12.01 13.77C10.75 14.68 8.40006 14.82 4.31006 18.62C3.54705 19.3324 2.89033 20.1508 2.36005 21.05C2.26603 20.8009 2.1232 20.5731 1.94 20.38C4.05 17.23 7.47 15.61 9.88 13.77C13.88 10.77 12.11 7.02999 14.88 4.68999C17.65 2.34999 21.43 5.05997 23.44 2.22997C25.92 -1.27003 28.44 -0.270012 31.69 2.77999C33.03 4.02999 35.91 1.77997 38.17 2.22997C40.43 2.67997 39.72 3.88998 41.92 6.76998C44.12 9.64998 51.44 8.94998 54.38 15.08C56.49 19.53 55.7 23.11 54.8 26.12Z" fill="#FF4F90"/>
<g style="mix-blend-mode:multiply" opacity="0.2">
<path d="M32.95 52.8C30.34 54.1 31.55 43.8 32.77 40.8C33.99 37.8 36.34 47.6 32.95 52.8Z" fill="#910074"/>
<path d="M39.28 42.57C38.74 43.07 41.12 48 44.47 49.7C47.82 51.4 45.37 36.81 39.28 42.57Z" fill="#910074"/>
<path d="M16.5601 39.8399C14.7301 39.5299 13.79 47.7499 14.16 48.0599C14.53 48.3699 18.53 44.0599 19.52 41.3599C20.51 38.6599 16.5601 39.8399 16.5601 39.8399Z" fill="#910074"/>
<path d="M2.87004 34.0199C0.870035 32.4099 8.75001 28.0199 14.78 28.6599C20.81 29.2999 15.19 33.2199 11.4 34.0199C7.61 34.8199 3.39004 34.4199 2.87004 34.0199Z" fill="#910074"/>
<path d="M6.19999 18.1299C3.37999 20.7899 12.2 25.1299 17.85 26.2099C23.5 27.2899 19.01 22.5399 19.01 22.5399C19.01 22.5399 9.68999 14.8299 6.19999 18.1299Z" fill="#910074"/>
<path d="M19.01 4.37994C15.01 5.42994 22.01 17.15 24.48 19.49C26.95 21.83 24.21 8.99995 22.64 6.75995C22.2382 6.12866 21.7068 5.59001 21.0809 5.17969C20.4551 4.76937 19.7492 4.49675 19.01 4.37994Z" fill="#910074"/>
<path d="M35.28 4.01997C36.48 1.01997 37.67 7.26997 34.52 13.02C31.37 18.77 33.28 9.16997 35.28 4.01997Z" fill="#910074"/>
<path d="M41.64 12.24C39.29 14.57 37.06 18.51 37.4 21.18C37.74 23.85 46.28 18.47 48.16 14.24C50.04 10.01 43.9 10.02 41.64 12.24Z" fill="#910074"/>
<path d="M48.57 31.0199C44.68 30.1599 53.01 36.8499 54.57 37.3799C56.13 37.9099 55.58 32.5199 48.57 31.0199Z" fill="#910074"/>
</g>
<g style="mix-blend-mode:multiply" opacity="0.5">
<path d="M14.28 19.53C13.67 20.7 11.49 24.82 11.28 28.14C11.07 31.46 13.54 34.02 14.49 36.57C15.44 39.12 15.11 41.09 15.6 42.51C16.09 43.93 17.95 42.33 19.72 42.51C21.49 42.69 20.9 45.29 26.09 48.27C31.28 51.25 32.69 45.73 36.23 44.5C39.77 43.27 40.74 45.14 43.73 44.5C46.72 43.86 44.64 40.23 45.22 38.25C45.8 36.27 47.36 38.04 49.05 36.25C50.74 34.46 48.53 31.96 48.56 30.85C48.59 29.74 48.56 27.68 48.56 27.68L14.28 19.53Z" fill="#912774"/>
</g>
<path d="M48.57 26.67C49.16 36.49 41.0901 44.93 30.4901 44.93C20.2801 44.93 12.28 37.02 12.38 27.56C12.38 27.39 12.38 27.22 12.38 27.06C12.38 26.9 12.38 26.8 12.38 26.67V26.23C12.7842 22.0012 14.7571 18.0769 17.91 15.23C17.91 15.23 17.91 15.23 17.91 15.23C19.9216 13.4106 22.3127 12.0613 24.91 11.28C26.4111 10.8236 27.9629 10.5549 29.53 10.48H31.2901C33.0409 10.5778 34.7702 10.9142 36.4301 11.48C37.1141 11.7128 37.7822 11.99 38.4301 12.31C38.6733 12.9113 39.1049 13.4177 39.6602 13.753C40.2155 14.0883 40.8646 14.2346 41.51 14.17C42.5931 14.9698 43.5797 15.8927 44.45 16.92C46.7253 19.5553 48.1233 22.8338 48.45 26.3V26.3L48.57 26.67Z" fill="url(#paint2_linear_1_515)"/>
<g style="mix-blend-mode:multiply" opacity="0.3">
<path d="M41.8101 41.14C41.5601 41.33 41.05 39.58 41.18 39.21C41.31 38.84 44.23 37.26 45.76 34.61C47.29 31.96 47.31 31.87 47.64 32.03C47.97 32.19 46.5701 38.19 41.8101 41.14Z" fill="#B30053"/>
</g>
<g style="mix-blend-mode:multiply" opacity="0.3">
<path d="M13.28 32.02C13.02 32.11 15.2801 38.4 18.4801 40.58C21.6801 42.76 22.48 41.32 22.63 40.92C22.78 40.52 19.0801 38.92 16.8601 36.54C15.5557 35.1247 14.359 33.6138 13.28 32.02V32.02Z" fill="#B30053"/>
</g>
<g style="mix-blend-mode:soft-light">
<path d="M24.42 43.93C23.29 43.48 23.67 41.21 24.07 41.16C27.1583 42.0202 30.378 42.3083 33.57 42.01C39.03 41.42 34.84 44.43 32.98 44.77C30.0993 45.0289 27.1955 44.7439 24.42 43.93Z" fill="white"/>
</g>
<path d="M48.52 25.77C48.52 25.91 48.52 26.05 48.52 26.19C48.78 35.19 40.82 42.87 30.52 42.87C20.87 42.87 13.26 36.18 12.52 27.93C12.4798 27.5279 12.4598 27.1241 12.46 26.72V26.15C12.46 26.01 12.46 25.87 12.46 25.73C12.5689 23.9809 12.9852 22.2646 13.69 20.66V20.66C15.4168 16.8605 18.4765 13.8257 22.29 12.13V12.13L22.58 12L22.83 11.89C24.9768 10.9924 27.2653 10.4812 29.59 10.38H31.35C33.5774 10.473 35.7724 10.9466 37.84 11.78L37.9901 11.84L38.54 12.08V12.15C38.7833 12.7514 39.215 13.2577 39.7703 13.593C40.3256 13.9284 40.9746 14.0747 41.6201 14.01H41.85C42.5591 14.5285 43.2277 15.1002 43.85 15.72C46.5975 18.3762 48.2616 21.9573 48.52 25.77V25.77Z" fill="url(#paint3_linear_1_515)"/>
<path d="M43.16 25.77C43.44 32.2 37.77 37.61 30.49 37.61C23.21 37.61 17.55 32.2 17.82 25.77C18.08 19.61 23.75 14.77 30.49 14.77C37.23 14.77 42.9 19.61 43.16 25.77Z" fill="url(#paint4_linear_1_515)"/>
<path d="M42.54 26.51C42.79 32.63 37.4 37.77 30.54 37.77C23.68 37.77 18.24 32.63 18.49 26.51C18.73 20.63 24.12 16.02 30.54 16.02C36.96 16.02 42.28 20.63 42.54 26.51Z" fill="url(#paint5_linear_1_515)"/>
<g style="mix-blend-mode:soft-light">
<path d="M44.69 17.31C44.49 18.66 42.01 20.01 39.01 16.96C36.01 13.91 26.2801 12.02 21.2801 17.43C16.1301 23.07 18.0601 28.64 17.2201 28.93C16.3801 29.22 13.1601 29.43 12.4601 27.93C12.3979 27.8008 12.3574 27.6623 12.3401 27.52V27.52C12.32 27.3707 12.32 27.2193 12.3401 27.07C12.3401 27.07 12.3401 26.87 12.3401 26.77C12.8101 23.86 14.2301 18.84 17.8701 15.2C19.1192 13.9543 20.5782 12.9388 22.1801 12.2V12.2L22.4701 12.07L22.7201 11.96C23.4061 11.6774 24.1112 11.4435 24.83 11.26V11.26C25.6917 11.0419 26.567 10.8816 27.45 10.78C30.4299 10.4064 33.4543 10.6238 36.3501 11.42C36.8201 11.55 37.27 11.7 37.7 11.86L37.8501 11.92L38.4301 12.15V12.22C38.6734 12.8213 39.105 13.3276 39.6602 13.663C40.2155 13.9983 40.8646 14.1446 41.51 14.08H41.7401H41.8701C42.5597 14.5806 43.1874 15.1614 43.7401 15.81C44.0286 16.1294 44.2679 16.49 44.45 16.88C44.5646 17.0011 44.6471 17.1489 44.69 17.31Z" fill="white"/>
</g>
<g style="mix-blend-mode:soft-light">
<path d="M27.72 42.22C23.97 40.46 33.1801 39.53 37.8101 35.71C42.4401 31.89 43.01 28.21 44.94 28.14C46.87 28.07 47.36 32.91 43 37.77C38.49 42.8 29.09 42.87 27.72 42.22Z" fill="white"/>
</g>
<g style="mix-blend-mode:multiply" opacity="0.2">
<path d="M15.11 35.02C14.4397 34.2032 13.946 33.2563 13.6603 32.239C13.3746 31.2218 13.303 30.1563 13.45 29.11C14.8434 29.1476 16.2329 29.2745 17.61 29.49C18.5686 30.8314 19.2922 32.3261 19.75 33.91C19.87 35.02 16.62 36.94 15.11 35.02Z" fill="#DA0553"/>
</g>
<g style="mix-blend-mode:multiply" opacity="0.2">
<path d="M41.9301 20.16C41.6501 19.42 44.5301 18.92 45.0601 18.32C45.5901 17.72 47.59 20.86 47.38 22.41C47.17 23.96 43.9101 24.07 43.4901 23.74C42.8561 22.5996 42.3336 21.4007 41.9301 20.16V20.16Z" fill="#DA0553"/>
</g>
<g style="mix-blend-mode:soft-light">
<path d="M24.22 11.59C22.29 13.22 25.41 13.16 33.22 14.33C41.03 15.5 36.8901 11.6 35.0501 10.9C33.2101 10.2 25.76 10.31 24.22 11.59Z" fill="white"/>
</g>
<path d="M29.5601 10.44C26.8801 10.84 29.23 12.44 31.97 12.62C34.71 12.8 31.5001 10.15 29.5601 10.44Z" fill="white"/>
<path d="M36.98 40.5399C35.71 40.2499 39.24 37.62 40.32 37.78C41.4 37.94 39.5 41.1099 36.98 40.5399Z" fill="white"/>
<path d="M14.38 34.02C16.1457 36.6516 18.5492 38.7929 21.3663 40.2443C24.1834 41.6957 27.3223 42.4098 30.4901 42.32C41.6501 42.19 45.79 35.32 45.79 35.32C45.79 35.32 41.1 43.13 30.19 43.07C27.0037 43.025 23.8812 42.1709 21.1157 40.5879C18.3501 39.0048 16.0323 36.7448 14.38 34.02Z" fill="#FFE016"/>
<path d="M31.6201 42.87C30.5401 42.62 35.5401 41.55 36.0501 41.69C36.5601 41.83 34.2801 43.48 31.6201 42.87Z" fill="white"/>
<g style="mix-blend-mode:soft-light" opacity="0.5">
<path d="M19.47 30.3699C20.58 26.4599 41.02 23.7499 42.09 24.7599C43.16 25.7699 40.8201 36.76 30.8701 36.84C20.9201 36.92 19.16 31.4399 19.47 30.3699Z" fill="white"/>
</g>
<path d="M26.19 21.02C26.1635 20.57 26.2352 20.1196 26.4 19.7C26.7738 19.1517 27.2933 18.7187 27.9 18.45C28.8554 18.0012 29.9056 17.7919 30.96 17.84C31.4495 17.8246 31.9376 17.8992 32.4 18.06C32.64 18.53 32.7801 20.17 32.8001 23.06C32.8902 25.9473 32.7833 28.8373 32.4801 31.71C32.6365 31.697 32.7936 31.697 32.95 31.71C33.4105 31.7066 33.8656 31.8092 34.2801 32.01C34.3536 32.1623 34.3847 32.3316 34.3701 32.5C34.3727 33.0584 34.3123 33.6152 34.19 34.16C34.1316 34.6235 33.9485 35.0625 33.6601 35.43C33.4699 35.5964 33.2318 35.698 32.9801 35.72C32.3922 35.7815 31.8009 35.8048 31.21 35.79C30.2875 35.8181 29.3641 35.768 28.45 35.64C28.2576 35.6196 28.0726 35.5548 27.9094 35.4506C27.7463 35.3465 27.6096 35.2059 27.51 35.04C27.3716 34.5699 27.3208 34.0785 27.3601 33.59C27.324 33.0427 27.3712 32.4931 27.5 31.96L28.71 31.71L29.2 31.63C28.9922 29.9079 28.892 28.1746 28.9 26.44C28.9067 24.8243 29.0203 23.2107 29.2401 21.61C28.3629 22.1516 27.3682 22.4741 26.3401 22.55C26.164 22.0603 26.1125 21.5346 26.19 21.02V21.02Z" fill="url(#paint6_linear_1_515)"/>
<path d="M34.2801 31.02C33.8635 30.8266 33.4093 30.7276 32.95 30.73C32.797 30.7165 32.6431 30.7165 32.4901 30.73C32.7883 27.8737 32.8919 25.0004 32.8001 22.13V22.02C32.8001 19.22 32.6501 17.61 32.4001 17.15C31.9413 16.9881 31.4563 16.9135 30.9701 16.93C29.9367 16.8908 28.9088 17.0964 27.9701 17.53C27.3633 17.7988 26.8438 18.2317 26.4701 18.78C26.3144 19.1984 26.2463 19.6443 26.27 20.09C26.27 20.96 26.2701 21.44 26.4101 21.54C27.4391 21.4688 28.435 21.146 29.3101 20.6C29.1278 21.886 29.0209 23.1815 28.9901 24.48C28.9901 24.79 28.9901 25.1 28.9901 25.41C28.9771 27.1347 29.0773 28.8584 29.2901 30.57L28.7901 30.65L27.5901 30.89C27.4553 31.4188 27.408 31.966 27.45 32.51C27.4108 32.9984 27.4617 33.49 27.6001 33.96C27.7019 34.1231 27.8394 34.2609 28.0022 34.3631C28.1651 34.4653 28.3489 34.5292 28.5401 34.55C29.4508 34.6781 30.3708 34.7283 31.2901 34.7C31.8776 34.7149 32.4656 34.6915 33.0501 34.63C33.3018 34.608 33.5399 34.5064 33.7301 34.34C34.0168 33.9753 34.1999 33.54 34.26 33.08C34.3823 32.5386 34.4427 31.9851 34.44 31.43C34.4178 31.2832 34.3632 31.1431 34.2801 31.02Z" fill="url(#paint7_linear_1_515)"/>
<g style="mix-blend-mode:soft-light">
<path d="M32.7901 22.02C31.6001 23.47 30.0501 24.71 28.9301 24.48C28.9609 23.1815 29.0677 21.886 29.25 20.6C28.3749 21.146 27.3791 21.4688 26.3501 21.54C26.2401 21.44 26.1901 20.96 26.2101 20.09C26.1863 19.6443 26.2544 19.1984 26.4101 18.78C26.7838 18.2317 27.3033 17.7988 27.9101 17.53C28.8488 17.0964 29.8768 16.8908 30.9101 16.93C31.3963 16.9135 31.8813 16.9881 32.3401 17.15C32.6401 17.64 32.7701 19.25 32.7901 22.02Z" fill="white"/>
</g>
<g style="mix-blend-mode:multiply" opacity="0.2">
<path d="M29.03 24.8199C29.062 25.6498 29.2101 26.4712 29.47 27.26C30.5055 27.1829 31.5201 26.9293 32.47 26.51C32.79 26.3 32.58 22.9599 32.47 22.7899C32.36 22.6199 30.71 24.07 30.25 24.27C29.79 24.47 29.03 24.8199 29.03 24.8199Z" fill="#DA0553"/>
</g>
<path d="M31.86 17.35C31 16.88 30.97 18.2 31.7 19.09C32.43 19.98 33 17.95 31.86 17.35Z" fill="white"/>
<path d="M13.94 21.45C13.22 21.45 12.64 23.77 13.08 24.19C13.52 24.61 14.36 23.19 14.51 22.72C14.66 22.25 13.94 21.45 13.94 21.45Z" fill="#ED4800"/>
<path d="M12.96 23.23C12.96 23.23 12.96 23.51 13.46 23.46C13.8632 23.3529 14.2167 23.109 14.46 22.77C14.46 22.77 14 24.08 13.34 24.41C12.68 24.74 12.88 23.63 12.96 23.23Z" fill="#FFBA00"/>
<g style="mix-blend-mode:multiply" opacity="0.5">
<path d="M13.13 22.4799C12.95 23.5799 13.95 22.6599 14.13 22.4799C14.31 22.2999 14.52 22.4799 14.52 22.4799C14.52 22.4799 14.25 21.48 13.93 21.4C13.61 21.32 13.13 22.4799 13.13 22.4799Z" fill="#D42F55"/>
</g>
<path d="M13.55 24.29C13.26 24.37 13.67 24.03 13.91 23.78C14.15 23.53 13.8 24.15 13.55 24.29Z" fill="white"/>
<path d="M38.5601 12.2C38.9492 12.7236 39.4459 13.1578 40.0168 13.4734C40.5878 13.7891 41.2197 13.9789 41.8701 14.03C41.8701 14.03 39.1501 14.89 38.5601 12.2Z" fill="url(#paint8_linear_1_515)"/>
<path d="M22.28 34.9C24.6026 36.9538 27.621 38.0446 30.72 37.95C32.2847 37.9803 33.839 37.6898 35.2871 37.0965C36.7352 36.5031 38.0465 35.6195 39.14 34.5C39.14 34.5 30.07 40.65 22.28 34.9Z" fill="#FFE016"/>
<g style="mix-blend-mode:multiply" opacity="0.6">
<path d="M38.53 12.13V12.2C34.96 11.01 27.53 9.88999 22.34 12.36C17.15 14.83 13.79 20.48 13.66 20.7C15.3868 16.9004 18.4465 13.8656 22.26 12.17L22.55 12.04L22.8 11.93C24.9468 11.0324 27.2354 10.5212 29.5601 10.42H31.32C33.5474 10.513 35.7424 10.9865 37.8101 11.82L37.96 11.88L38.51 12.12L38.53 12.13Z" fill="#D42F55"/>
</g>
<path d="M47.75 31.45C47.62 30.45 47.98 29.27 48.28 29.28C48.58 29.29 48.62 30.0999 48.48 30.5699C48.3275 30.9281 48.0738 31.2339 47.75 31.45Z" fill="#ED4800"/>
<g style="mix-blend-mode:multiply" opacity="0.5">
<path d="M47.74 30.02C47.45 30.85 48.34 31.09 48.46 30.17C48.58 29.25 48.11 29.02 47.74 30.02Z" fill="#D42F55"/>
</g>
<path d="M20.4301 32.96C20.558 33.4475 20.8091 33.8939 21.1594 34.2564C21.5096 34.6189 21.9472 34.8853 22.4301 35.03L20.4301 32.96Z" fill="white"/>
<g style="mix-blend-mode:multiply" opacity="0.5">
<path d="M18 24.27C18 24.27 21.69 17.19 30 16.48C38.31 15.77 42.8701 23.62 42.8701 23.62C42.1618 20.9411 40.5401 18.5938 38.2852 16.9834C36.0303 15.373 33.2838 14.6007 30.52 14.8C27.6943 14.8304 24.953 15.7669 22.6993 17.4716C20.4455 19.1763 18.7983 21.5592 18 24.27V24.27Z" fill="#D42F55"/>
</g>
<g style="mix-blend-mode:soft-light">
<path d="M3.86006 34.95C2.95006 34.88 6.09006 37.72 8.23006 38.16C10.3701 38.6 11.99 35.99 11.9 34.95C11.81 33.91 8.07006 35.26 3.86006 34.95Z" fill="white"/>
</g>
<g style="mix-blend-mode:soft-light">
<path d="M34.96 50.49C33.3 50.31 34.49 46.78 37.03 45.93C39.57 45.08 42.57 48.58 42.26 48.74C41.95 48.9 39.88 47.92 38.39 48.46C36.9 49 35.68 50.56 34.96 50.49Z" fill="white"/>
</g>
<g style="mix-blend-mode:soft-light">
<path d="M50.1201 26.93C49.4901 27.4 49.6201 30.27 51.4801 31.93C53.3401 33.59 52.6501 31.04 53.8401 27.98C55.0301 24.92 50.1201 26.93 50.1201 26.93Z" fill="white"/>
</g>
<path d="M1.94001 20.37C1.67001 21.06 2.47001 22.94 1.94001 23.85C1.94001 23.85 4.03001 21.39 1.94001 20.37Z" fill="url(#paint9_linear_1_515)"/>
<path d="M1.91001 25.38C1.70001 24.63 2.98999 24.7 3.25999 25.11C3.41874 25.3476 3.50873 25.6245 3.52 25.91C3.52 25.91 3.67 25.69 3.52 25.04C3.37 24.39 3.28003 23.93 3.05003 23.89C2.82003 23.85 1.81003 24.72 1.74003 24.97C1.72332 25.0475 1.73059 25.1283 1.76097 25.2016C1.79134 25.2748 1.84335 25.337 1.91001 25.38Z" fill="url(#paint10_linear_1_515)"/>
<path d="M49.97 17.02C49.65 15.31 50.87 14.73 52.07 14.78C53.27 14.83 53.07 16.4 53.07 16.4C53.07 16.4 53.22 14.4 52.07 13.95C50.92 13.5 49.1 14.44 49.97 17.02Z" fill="url(#paint11_linear_1_515)"/>
<g style="mix-blend-mode:soft-light">
<path d="M32.81 3.29C31.74 4.07 32.02 4.80001 32.27 4.71001C33.7041 3.93871 35.1912 3.27036 36.72 2.71001C38.28 2.25001 34.21 2.27 32.81 3.29Z" fill="white"/>
</g>
<path d="M43.39 7.94997C42.17 7.51997 42.91 9.03997 45.63 9.84997C48.35 10.66 46.42 9.01997 43.39 7.94997Z" fill="#FF86CE"/>
<path d="M8.77001 14.56C7.84001 15.56 11.87 14.39 12.26 13.47C12.518 12.3495 12.6057 11.1966 12.52 10.05C11.9249 11.1219 11.2176 12.1275 10.41 13.05C9.51002 13.93 8.77001 14.56 8.77001 14.56Z" fill="#FF86CE"/>
<path d="M53.84 31.25C53.46 30.43 54.05 33.14 54.92 34.65C55.79 36.16 56.24 36.52 56.57 36.65C56.9 36.78 55.1 33.91 53.84 31.25Z" fill="#FF86CE"/>
<path d="M35.58 47.21C33.83 48.32 37.5801 48.09 38.6701 47.67C39.7601 47.25 38.11 45.61 35.58 47.21Z" fill="#FFFFA1"/>
<path d="M16.9701 46.78C16.0801 46.62 17.31 45.63 17.9 45.6C18.49 45.57 18.5301 46.79 18.4301 47.04C18.3301 47.29 17.5901 46.71 16.9701 46.78Z" fill="#FFFFA1"/>
<path d="M50.0601 30.9C49.2101 30.37 49.13 28.82 49.96 27.72C50.79 26.62 50.96 28.47 50.72 29.85C50.48 31.23 50.0601 30.9 50.0601 30.9Z" fill="#FFFFA1"/>
<path d="M10.77 17.71C9.68003 17.43 11.2501 15.98 12.3601 16.02C13.4701 16.06 11.93 17.54 10.77 17.71Z" fill="#FFFFA1"/>
<path d="M8.02003 36.23C7.65003 36.46 9.47005 37.45 9.79005 37.61C10.11 37.77 11.06 37.22 10.79 36.92C10.52 36.62 8.47003 35.95 8.02003 36.23Z" fill="#FFFFA1"/>
<g style="mix-blend-mode:multiply" opacity="0.5">
<path d="M34.28 7.02C33.79 7.15 34.86 5.35999 36.28 5.19999C37.7 5.03999 38 6.48001 37.53 6.75001C37.06 7.02001 36.12 6.53 34.28 7.02Z" fill="#C20074"/>
</g>
<g style="mix-blend-mode:multiply" opacity="0.5">
<path d="M24.28 5.20002C24.33 7.58002 25.16 5.20004 27.14 4.81004C29.12 4.42004 28.39 3.54003 27.14 3.30003C25.89 3.06003 24.28 5.20002 24.28 5.20002Z" fill="#C20074"/>
</g>
</g>
<defs>
<linearGradient id="paint0_linear_1_515" x1="28.56" y1="55.35" x2="28.56" y2="-4.08448e-06" gradientUnits="userSpaceOnUse">
<stop stop-color="#DE0086"/>
<stop offset="1" stop-color="#FF003B"/>
</linearGradient>
<linearGradient id="paint1_linear_1_515" x1="28.49" y1="52.07" x2="28.49" y2="3.28998" gradientUnits="userSpaceOnUse">
<stop stop-color="#FFCC00"/>
<stop offset="0.23" stop-color="#FE6800"/>
<stop offset="0.66" stop-color="#FAF400"/>
<stop offset="0.85" stop-color="#F66A00"/>
<stop offset="1" stop-color="#F63F00"/>
</linearGradient>
<linearGradient id="paint2_linear_1_515" x1="18.5" y1="14.69" x2="42.48" y2="40.66" gradientUnits="userSpaceOnUse">
<stop stop-color="#FF5900"/>
<stop offset="0.23" stop-color="#FE6800"/>
<stop offset="0.66" stop-color="#FA9300"/>
<stop offset="0.85" stop-color="#F66A00"/>
<stop offset="1" stop-color="#F63F00"/>
</linearGradient>
<linearGradient id="paint3_linear_1_515" x1="23.47" y1="11.61" x2="37.51" y2="41.71" gradientUnits="userSpaceOnUse">
<stop stop-color="#FFEA34"/>
<stop offset="0.58" stop-color="#FF8100"/>
<stop offset="0.7" stop-color="#FFA400"/>
<stop offset="1" stop-color="#FFBA00"/>
</linearGradient>
<linearGradient id="paint4_linear_1_515" x1="30.49" y1="38.7648" x2="30.49" y2="15.8688" gradientUnits="userSpaceOnUse">
<stop stop-color="#FFBA00"/>
<stop offset="0.21" stop-color="#FE6800"/>
<stop offset="1" stop-color="#D41B00"/>
</linearGradient>
<linearGradient id="paint5_linear_1_515" x1="30.49" y1="38.928" x2="30.49" y2="17.0976" gradientUnits="userSpaceOnUse">
<stop offset="0.04" stop-color="#EF6300"/>
<stop offset="1" stop-color="#E13E00"/>
</linearGradient>
<linearGradient id="paint6_linear_1_515" x1="30.2801" y1="35.71" x2="30.2801" y2="17.83" gradientUnits="userSpaceOnUse">
<stop stop-color="#C82400"/>
<stop offset="0.51" stop-color="#D84400"/>
<stop offset="1" stop-color="#D42F00"/>
</linearGradient>
<linearGradient id="paint7_linear_1_515" x1="30.28" y1="34.73" x2="30.28" y2="16.96" gradientUnits="userSpaceOnUse">
<stop stop-color="#FFAB00"/>
<stop offset="0.49" stop-color="#FFBA00"/>
<stop offset="1" stop-color="#EF6C00"/>
</linearGradient>
<linearGradient id="paint8_linear_1_515" x1="38.5601" y1="13.18" x2="41.8701" y2="13.18" gradientUnits="userSpaceOnUse">
<stop stop-color="#FF5900"/>
<stop offset="0.23" stop-color="#FE6800"/>
<stop offset="0.66" stop-color="#FA9300"/>
<stop offset="0.85" stop-color="#F66A00"/>
<stop offset="1" stop-color="#F63F00"/>
</linearGradient>
<linearGradient id="paint9_linear_1_515" x1="2.38001" y1="23.85" x2="2.38001" y2="20.37" gradientUnits="userSpaceOnUse">
<stop stop-color="#DE0057"/>
<stop offset="1" stop-color="#83003B"/>
</linearGradient>
<linearGradient id="paint10_linear_1_515" x1="2.67001" y1="25.91" x2="2.67001" y2="23.88" gradientUnits="userSpaceOnUse">
<stop stop-color="#DE0057"/>
<stop offset="1" stop-color="#83003B"/>
</linearGradient>
<linearGradient id="paint11_linear_1_515" x1="51.42" y1="17.01" x2="51.42" y2="13.83" gradientUnits="userSpaceOnUse">
<stop stop-color="#DE0057"/>
<stop offset="1" stop-color="#83003B"/>
</linearGradient>
<clipPath id="clip0_1_515">
<rect width="57.72" height="62.02" fill="white"/>
</clipPath>
</defs>
</svg>
