<svg width="400" height="56" viewBox="0 0 400 56" fill="none" xmlns="http://www.w3.org/2000/svg">
<rect x="0.5" y="0.5" width="399" height="55" rx="1.5" fill="white"/>
<g clip-path="url(#clip0_47_513)">
<path d="M42.805 28.2305C42.805 27.5507 42.7499 26.8672 42.6323 26.1985H33.2V30.0493H38.6014C38.3773 31.2913 37.6571 32.3899 36.6025 33.0881V35.5867H39.825C41.7173 33.845 42.805 31.2729 42.805 28.2305Z" fill="#4285F4"/>
<path d="M33.2 38.0006C35.8971 38.0006 38.1716 37.1151 39.8287 35.5865L36.6063 33.0879C35.7097 33.6979 34.5522 34.0433 33.2037 34.0433C30.5949 34.0433 28.3828 32.2832 27.5892 29.9169H24.2638V32.4927C25.9614 35.8695 29.419 38.0006 33.2 38.0006V38.0006Z" fill="#34A853"/>
<path d="M27.5854 29.9169C27.1665 28.6749 27.1665 27.3301 27.5854 26.0881V23.5123H24.2637C22.8454 26.338 22.8454 29.667 24.2637 32.4927L27.5854 29.9169V29.9169Z" fill="#FBBC04"/>
<path d="M33.2 21.958C34.6257 21.936 36.0036 22.4725 37.0362 23.4572L39.8912 20.6022C38.0834 18.9046 35.684 17.9713 33.2 18.0007C29.419 18.0007 25.9614 20.1319 24.2638 23.5123L27.5855 26.0881C28.3755 23.7181 30.5912 21.958 33.2 21.958V21.958Z" fill="#EA4335"/>
</g>
<path d="M65.9432 26.1477H64.1705C64.1023 25.7689 63.9754 25.4356 63.7898 25.1477C63.6042 24.8598 63.3769 24.6155 63.108 24.4148C62.839 24.214 62.5379 24.0625 62.2045 23.9602C61.875 23.858 61.5246 23.8068 61.1534 23.8068C60.483 23.8068 59.8826 23.9754 59.3523 24.3125C58.8258 24.6496 58.4091 25.1439 58.1023 25.7955C57.7992 26.447 57.6477 27.2424 57.6477 28.1818C57.6477 29.1288 57.7992 29.928 58.1023 30.5795C58.4091 31.2311 58.8277 31.7235 59.358 32.0568C59.8883 32.3902 60.4848 32.5568 61.1477 32.5568C61.5152 32.5568 61.8636 32.5076 62.1932 32.4091C62.5265 32.3068 62.8277 32.1572 63.0966 31.9602C63.3655 31.7633 63.5928 31.5227 63.7784 31.2386C63.9678 30.9508 64.0985 30.6212 64.1705 30.25L65.9432 30.2557C65.8485 30.8277 65.6648 31.3542 65.392 31.8352C65.1231 32.3125 64.7765 32.7254 64.3523 33.0739C63.9318 33.4186 63.4508 33.6856 62.9091 33.875C62.3674 34.0644 61.7765 34.1591 61.1364 34.1591C60.1288 34.1591 59.2311 33.9205 58.4432 33.4432C57.6553 32.9621 57.0341 32.2746 56.5795 31.3807C56.1288 30.4867 55.9034 29.4205 55.9034 28.1818C55.9034 26.9394 56.1307 25.8731 56.5852 24.983C57.0398 24.089 57.661 23.4034 58.4489 22.9261C59.2367 22.4451 60.1326 22.2045 61.1364 22.2045C61.7538 22.2045 62.3295 22.2936 62.8636 22.4716C63.4015 22.6458 63.8845 22.9034 64.3125 23.2443C64.7405 23.5814 65.0947 23.9943 65.375 24.483C65.6553 24.9678 65.8447 25.5227 65.9432 26.1477ZM71.5838 34.1761C70.7656 34.1761 70.0516 33.9886 69.4418 33.6136C68.8319 33.2386 68.3584 32.714 68.0213 32.0398C67.6842 31.3655 67.5156 30.5777 67.5156 29.6761C67.5156 28.7708 67.6842 27.9792 68.0213 27.3011C68.3584 26.6231 68.8319 26.0966 69.4418 25.7216C70.0516 25.3466 70.7656 25.1591 71.5838 25.1591C72.402 25.1591 73.116 25.3466 73.7259 25.7216C74.3357 26.0966 74.8092 26.6231 75.1463 27.3011C75.4834 27.9792 75.652 28.7708 75.652 29.6761C75.652 30.5777 75.4834 31.3655 75.1463 32.0398C74.8092 32.714 74.3357 33.2386 73.7259 33.6136C73.116 33.9886 72.402 34.1761 71.5838 34.1761ZM71.5895 32.75C72.1198 32.75 72.5592 32.6098 72.9077 32.3295C73.2562 32.0492 73.5137 31.6761 73.6804 31.2102C73.8509 30.7443 73.9361 30.2311 73.9361 29.6705C73.9361 29.1136 73.8509 28.6023 73.6804 28.1364C73.5137 27.6667 73.2562 27.2898 72.9077 27.0057C72.5592 26.7216 72.1198 26.5795 71.5895 26.5795C71.0554 26.5795 70.6122 26.7216 70.2599 27.0057C69.9115 27.2898 69.652 27.6667 69.4815 28.1364C69.3149 28.6023 69.2315 29.1136 69.2315 29.6705C69.2315 30.2311 69.3149 30.7443 69.4815 31.2102C69.652 31.6761 69.9115 32.0492 70.2599 32.3295C70.6122 32.6098 71.0554 32.75 71.5895 32.75ZM79.2472 28.8182V34H77.5483V25.2727H79.179V26.6932H79.2869C79.4877 26.2311 79.8021 25.8598 80.2301 25.5795C80.6619 25.2992 81.2055 25.1591 81.8608 25.1591C82.4555 25.1591 82.9763 25.2841 83.4233 25.5341C83.8703 25.7803 84.2169 26.1477 84.4631 26.6364C84.7093 27.125 84.8324 27.7292 84.8324 28.4489V34H83.1335V28.6534C83.1335 28.0208 82.9688 27.5265 82.6392 27.1705C82.3097 26.8106 81.857 26.6307 81.2812 26.6307C80.8873 26.6307 80.5369 26.7159 80.2301 26.8864C79.9271 27.0568 79.6866 27.3068 79.5085 27.6364C79.3343 27.9621 79.2472 28.3561 79.2472 28.8182ZM91.1847 25.2727V26.6364H86.4176V25.2727H91.1847ZM87.696 23.1818H89.3949V31.4375C89.3949 31.767 89.4441 32.0152 89.5426 32.1818C89.6411 32.3447 89.768 32.4564 89.9233 32.517C90.0824 32.5739 90.2547 32.6023 90.4403 32.6023C90.5767 32.6023 90.696 32.5928 90.7983 32.5739C90.9006 32.5549 90.9801 32.5398 91.0369 32.5284L91.3438 33.9318C91.2453 33.9697 91.1051 34.0076 90.9233 34.0455C90.7415 34.0871 90.5142 34.1098 90.2415 34.1136C89.7945 34.1212 89.3778 34.0417 88.9915 33.875C88.6051 33.7083 88.2926 33.4508 88.054 33.1023C87.8153 32.7538 87.696 32.3163 87.696 31.7898V23.1818ZM93.0639 34V25.2727H94.7628V34H93.0639ZM93.9219 23.9261C93.6264 23.9261 93.3726 23.8277 93.1605 23.6307C92.9522 23.4299 92.848 23.1913 92.848 22.9148C92.848 22.6345 92.9522 22.3958 93.1605 22.1989C93.3726 21.9981 93.6264 21.8977 93.9219 21.8977C94.2173 21.8977 94.4692 21.9981 94.6776 22.1989C94.8897 22.3958 94.9957 22.6345 94.9957 22.9148C94.9957 23.1913 94.8897 23.4299 94.6776 23.6307C94.4692 23.8277 94.2173 23.9261 93.9219 23.9261ZM98.7472 28.8182V34H97.0483V25.2727H98.679V26.6932H98.7869C98.9877 26.2311 99.3021 25.8598 99.7301 25.5795C100.162 25.2992 100.705 25.1591 101.361 25.1591C101.955 25.1591 102.476 25.2841 102.923 25.5341C103.37 25.7803 103.717 26.1477 103.963 26.6364C104.209 27.125 104.332 27.7292 104.332 28.4489V34H102.634V28.6534C102.634 28.0208 102.469 27.5265 102.139 27.1705C101.81 26.8106 101.357 26.6307 100.781 26.6307C100.387 26.6307 100.037 26.7159 99.7301 26.8864C99.4271 27.0568 99.1866 27.3068 99.0085 27.6364C98.8343 27.9621 98.7472 28.3561 98.7472 28.8182ZM112.139 30.3807V25.2727H113.844V34H112.173V32.4886H112.082C111.882 32.9545 111.56 33.3428 111.116 33.6534C110.677 33.9602 110.13 34.1136 109.474 34.1136C108.914 34.1136 108.418 33.9905 107.986 33.7443C107.558 33.4943 107.221 33.125 106.974 32.6364C106.732 32.1477 106.611 31.5436 106.611 30.8239V25.2727H108.31V30.6193C108.31 31.214 108.474 31.6875 108.804 32.0398C109.134 32.392 109.562 32.5682 110.088 32.5682C110.406 32.5682 110.723 32.4886 111.037 32.3295C111.355 32.1705 111.618 31.9299 111.827 31.608C112.039 31.286 112.143 30.8769 112.139 30.3807ZM119.888 34.1761C119.028 34.1761 118.287 33.9924 117.666 33.625C117.049 33.2538 116.571 32.733 116.234 32.0625C115.901 31.3883 115.734 30.5985 115.734 29.6932C115.734 28.7992 115.901 28.0114 116.234 27.3295C116.571 26.6477 117.041 26.1155 117.643 25.733C118.25 25.3504 118.958 25.1591 119.768 25.1591C120.261 25.1591 120.738 25.2405 121.2 25.4034C121.662 25.5663 122.077 25.822 122.445 26.1705C122.812 26.5189 123.102 26.9716 123.314 27.5284C123.526 28.0814 123.632 28.7538 123.632 29.5455V30.1477H116.695V28.875H121.967C121.967 28.428 121.876 28.0322 121.695 27.6875C121.513 27.339 121.257 27.0644 120.928 26.8636C120.602 26.6629 120.219 26.5625 119.78 26.5625C119.303 26.5625 118.886 26.6799 118.53 26.9148C118.178 27.1458 117.905 27.4489 117.712 27.8239C117.522 28.1951 117.428 28.5985 117.428 29.0341V30.0284C117.428 30.6117 117.53 31.108 117.734 31.517C117.943 31.9261 118.232 32.2386 118.604 32.4545C118.975 32.6667 119.409 32.7727 119.905 32.7727C120.227 32.7727 120.52 32.7273 120.786 32.6364C121.051 32.5417 121.28 32.4015 121.473 32.2159C121.666 32.0303 121.814 31.8011 121.916 31.5284L123.524 31.8182C123.395 32.2917 123.164 32.7064 122.831 33.0625C122.501 33.4148 122.087 33.6894 121.587 33.8864C121.09 34.0795 120.524 34.1761 119.888 34.1761ZM131.643 34L129.075 25.2727H130.831L132.541 31.6818H132.626L134.342 25.2727H136.098L137.803 31.6534H137.888L139.587 25.2727H141.342L138.78 34H137.047L135.274 27.6989H135.143L133.371 34H131.643ZM142.955 34V25.2727H144.653V34H142.955ZM143.812 23.9261C143.517 23.9261 143.263 23.8277 143.051 23.6307C142.843 23.4299 142.739 23.1913 142.739 22.9148C142.739 22.6345 142.843 22.3958 143.051 22.1989C143.263 21.9981 143.517 21.8977 143.812 21.8977C144.108 21.8977 144.36 21.9981 144.568 22.1989C144.78 22.3958 144.886 22.6345 144.886 22.9148C144.886 23.1913 144.78 23.4299 144.568 23.6307C144.36 23.8277 144.108 23.9261 143.812 23.9261ZM151.013 25.2727V26.6364H146.246V25.2727H151.013ZM147.524 23.1818H149.223V31.4375C149.223 31.767 149.272 32.0152 149.371 32.1818C149.469 32.3447 149.596 32.4564 149.751 32.517C149.911 32.5739 150.083 32.6023 150.268 32.6023C150.405 32.6023 150.524 32.5928 150.626 32.5739C150.729 32.5549 150.808 32.5398 150.865 32.5284L151.172 33.9318C151.073 33.9697 150.933 34.0076 150.751 34.0455C150.57 34.0871 150.342 34.1098 150.07 34.1136C149.623 34.1212 149.206 34.0417 148.82 33.875C148.433 33.7083 148.121 33.4508 147.882 33.1023C147.643 32.7538 147.524 32.3163 147.524 31.7898V23.1818ZM154.778 28.8182V34H153.08V22.3636H154.756V26.6932H154.864C155.068 26.2235 155.381 25.8504 155.801 25.5739C156.222 25.2973 156.771 25.1591 157.449 25.1591C158.047 25.1591 158.57 25.2822 159.017 25.5284C159.468 25.7746 159.816 26.142 160.062 26.6307C160.312 27.1155 160.438 27.7216 160.438 28.4489V34H158.739V28.6534C158.739 28.0133 158.574 27.517 158.244 27.1648C157.915 26.8087 157.456 26.6307 156.869 26.6307C156.468 26.6307 156.108 26.7159 155.79 26.8864C155.475 27.0568 155.227 27.3068 155.045 27.6364C154.867 27.9621 154.778 28.3561 154.778 28.8182ZM174.95 26.0398C174.84 25.6951 174.693 25.3864 174.507 25.1136C174.325 24.8371 174.107 24.6023 173.854 24.4091C173.6 24.2121 173.31 24.0625 172.984 23.9602C172.662 23.858 172.308 23.8068 171.922 23.8068C171.267 23.8068 170.676 23.9754 170.149 24.3125C169.623 24.6496 169.206 25.1439 168.899 25.7955C168.596 26.4432 168.445 27.2367 168.445 28.1761C168.445 29.1193 168.598 29.9167 168.905 30.5682C169.212 31.2197 169.632 31.714 170.166 32.0511C170.7 32.3883 171.308 32.5568 171.99 32.5568C172.623 32.5568 173.174 32.428 173.643 32.1705C174.117 31.9129 174.482 31.5492 174.74 31.0795C175.001 30.6061 175.132 30.0492 175.132 29.4091L175.587 29.4943H172.257V28.0455H176.831V29.3693C176.831 30.3466 176.623 31.1951 176.206 31.9148C175.793 32.6307 175.221 33.1837 174.49 33.5739C173.763 33.964 172.929 34.1591 171.99 34.1591C170.937 34.1591 170.013 33.9167 169.217 33.4318C168.426 32.947 167.808 32.2595 167.365 31.3693C166.922 30.4754 166.7 29.4148 166.7 28.1875C166.7 27.2595 166.829 26.4261 167.087 25.6875C167.344 24.9489 167.706 24.322 168.172 23.8068C168.642 23.2879 169.193 22.892 169.825 22.6193C170.462 22.3428 171.157 22.2045 171.911 22.2045C172.539 22.2045 173.125 22.2973 173.666 22.483C174.212 22.6686 174.696 22.9318 175.121 23.2727C175.549 23.6136 175.903 24.0189 176.183 24.4886C176.464 24.9545 176.653 25.4716 176.751 26.0398H174.95ZM182.599 34.1761C181.781 34.1761 181.067 33.9886 180.457 33.6136C179.848 33.2386 179.374 32.714 179.037 32.0398C178.7 31.3655 178.531 30.5777 178.531 29.6761C178.531 28.7708 178.7 27.9792 179.037 27.3011C179.374 26.6231 179.848 26.0966 180.457 25.7216C181.067 25.3466 181.781 25.1591 182.599 25.1591C183.418 25.1591 184.132 25.3466 184.741 25.7216C185.351 26.0966 185.825 26.6231 186.162 27.3011C186.499 27.9792 186.668 28.7708 186.668 29.6761C186.668 30.5777 186.499 31.3655 186.162 32.0398C185.825 32.714 185.351 33.2386 184.741 33.6136C184.132 33.9886 183.418 34.1761 182.599 34.1761ZM182.605 32.75C183.135 32.75 183.575 32.6098 183.923 32.3295C184.272 32.0492 184.529 31.6761 184.696 31.2102C184.866 30.7443 184.952 30.2311 184.952 29.6705C184.952 29.1136 184.866 28.6023 184.696 28.1364C184.529 27.6667 184.272 27.2898 183.923 27.0057C183.575 26.7216 183.135 26.5795 182.605 26.5795C182.071 26.5795 181.628 26.7216 181.276 27.0057C180.927 27.2898 180.668 27.6667 180.497 28.1364C180.33 28.6023 180.247 29.1136 180.247 29.6705C180.247 30.2311 180.33 30.7443 180.497 31.2102C180.668 31.6761 180.927 32.0492 181.276 32.3295C181.628 32.6098 182.071 32.75 182.605 32.75ZM192.24 34.1761C191.422 34.1761 190.708 33.9886 190.098 33.6136C189.488 33.2386 189.015 32.714 188.678 32.0398C188.34 31.3655 188.172 30.5777 188.172 29.6761C188.172 28.7708 188.34 27.9792 188.678 27.3011C189.015 26.6231 189.488 26.0966 190.098 25.7216C190.708 25.3466 191.422 25.1591 192.24 25.1591C193.058 25.1591 193.772 25.3466 194.382 25.7216C194.992 26.0966 195.465 26.6231 195.803 27.3011C196.14 27.9792 196.308 28.7708 196.308 29.6761C196.308 30.5777 196.14 31.3655 195.803 32.0398C195.465 32.714 194.992 33.2386 194.382 33.6136C193.772 33.9886 193.058 34.1761 192.24 34.1761ZM192.246 32.75C192.776 32.75 193.215 32.6098 193.564 32.3295C193.912 32.0492 194.17 31.6761 194.337 31.2102C194.507 30.7443 194.592 30.2311 194.592 29.6705C194.592 29.1136 194.507 28.6023 194.337 28.1364C194.17 27.6667 193.912 27.2898 193.564 27.0057C193.215 26.7216 192.776 26.5795 192.246 26.5795C191.712 26.5795 191.268 26.7216 190.916 27.0057C190.568 27.2898 190.308 27.6667 190.138 28.1364C189.971 28.6023 189.888 29.1136 189.888 29.6705C189.888 30.2311 189.971 30.7443 190.138 31.2102C190.308 31.6761 190.568 32.0492 190.916 32.3295C191.268 32.6098 191.712 32.75 192.246 32.75ZM201.864 37.4545C201.17 37.4545 200.574 37.3636 200.074 37.1818C199.578 37 199.172 36.7595 198.858 36.4602C198.544 36.161 198.309 35.8333 198.153 35.4773L199.614 34.875C199.716 35.0417 199.852 35.2178 200.023 35.4034C200.197 35.5928 200.432 35.7538 200.727 35.8864C201.027 36.0189 201.411 36.0852 201.881 36.0852C202.525 36.0852 203.057 35.928 203.477 35.6136C203.898 35.303 204.108 34.8068 204.108 34.125V32.4091H204C203.898 32.5947 203.75 32.8011 203.557 33.0284C203.367 33.2557 203.106 33.4527 202.773 33.6193C202.439 33.786 202.006 33.8693 201.472 33.8693C200.782 33.8693 200.161 33.7083 199.608 33.3864C199.059 33.0606 198.623 32.5814 198.301 31.9489C197.983 31.3125 197.824 30.5303 197.824 29.6023C197.824 28.6742 197.981 27.8788 198.295 27.2159C198.614 26.553 199.049 26.0455 199.602 25.6932C200.155 25.3371 200.782 25.1591 201.483 25.1591C202.025 25.1591 202.462 25.25 202.795 25.4318C203.129 25.6098 203.388 25.8182 203.574 26.0568C203.763 26.2955 203.909 26.5057 204.011 26.6875H204.136V25.2727H205.801V34.1932C205.801 34.9432 205.627 35.5587 205.278 36.0398C204.93 36.5208 204.458 36.8769 203.864 37.108C203.273 37.339 202.606 37.4545 201.864 37.4545ZM201.847 32.4602C202.335 32.4602 202.748 32.3466 203.085 32.1193C203.426 31.8883 203.684 31.5587 203.858 31.1307C204.036 30.6989 204.125 30.1818 204.125 29.5795C204.125 28.9924 204.038 28.4754 203.864 28.0284C203.689 27.5814 203.434 27.233 203.097 26.983C202.759 26.7292 202.343 26.6023 201.847 26.6023C201.335 26.6023 200.909 26.7348 200.568 27C200.227 27.2614 199.97 27.6174 199.795 28.0682C199.625 28.5189 199.54 29.0227 199.54 29.5795C199.54 30.1515 199.627 30.6534 199.801 31.0852C199.975 31.517 200.233 31.8542 200.574 32.0966C200.919 32.339 201.343 32.4602 201.847 32.4602ZM209.778 22.3636V34H208.08V22.3636H209.778ZM215.825 34.1761C214.965 34.1761 214.225 33.9924 213.604 33.625C212.986 33.2538 212.509 32.733 212.172 32.0625C211.839 31.3883 211.672 30.5985 211.672 29.6932C211.672 28.7992 211.839 28.0114 212.172 27.3295C212.509 26.6477 212.979 26.1155 213.581 25.733C214.187 25.3504 214.895 25.1591 215.706 25.1591C216.198 25.1591 216.676 25.2405 217.138 25.4034C217.6 25.5663 218.015 25.822 218.382 26.1705C218.75 26.5189 219.039 26.9716 219.251 27.5284C219.464 28.0814 219.57 28.7538 219.57 29.5455V30.1477H212.632V28.875H217.905C217.905 28.428 217.814 28.0322 217.632 27.6875C217.45 27.339 217.195 27.0644 216.865 26.8636C216.539 26.6629 216.157 26.5625 215.717 26.5625C215.24 26.5625 214.823 26.6799 214.467 26.9148C214.115 27.1458 213.842 27.4489 213.649 27.8239C213.46 28.1951 213.365 28.5985 213.365 29.0341V30.0284C213.365 30.6117 213.467 31.108 213.672 31.517C213.88 31.9261 214.17 32.2386 214.541 32.4545C214.912 32.6667 215.346 32.7727 215.842 32.7727C216.164 32.7727 216.458 32.7273 216.723 32.6364C216.988 32.5417 217.217 32.4015 217.411 32.2159C217.604 32.0303 217.751 31.8011 217.854 31.5284L219.462 31.8182C219.333 32.2917 219.102 32.7064 218.768 33.0625C218.439 33.4148 218.024 33.6894 217.524 33.8864C217.028 34.0795 216.462 34.1761 215.825 34.1761Z" fill="#2D333A"/>
<rect x="0.5" y="0.5" width="399" height="55" rx="1.5" stroke="#C2C8D0"/>
<defs>
<clipPath id="clip0_47_513">
<rect width="20" height="20" fill="white" transform="translate(23 18)"/>
</clipPath>
</defs>
</svg>
