<svg width="74" height="80" viewBox="0 0 74 80" fill="none" xmlns="http://www.w3.org/2000/svg">
<g clip-path="url(#clip0_0_1416)">
<path d="M54.6789 7.61731H19.3083C8.6446 7.61731 0 16.073 0 26.5036V61.1012C0 71.5318 8.6446 79.9875 19.3083 79.9875H54.6789C65.3426 79.9875 73.9872 71.5318 73.9872 61.1012V26.5036C73.9872 16.073 65.3426 7.61731 54.6789 7.61731Z" fill="#2B0038"/>
<path d="M74 23.6424V58.2526C74.0051 61.6014 73.0925 64.8904 71.3571 67.7773C71.3571 67.7773 71.3571 67.7773 71.3571 67.8651C71.333 67.9107 71.3028 67.9529 71.2673 67.9906C70.9338 68.4926 70.6002 68.9694 70.2538 69.4337C69.4485 70.4711 68.5419 71.4293 67.5469 72.2949C64.0272 75.3373 59.4915 77.0155 54.7944 77.0134H19.3083C16.186 77.017 13.1097 76.2774 10.3449 74.8585C7.58005 73.4396 5.20965 71.384 3.43828 68.869C1.21832 65.7317 0.0320878 62.0054 0.0385394 58.1898V23.6424C0.0555153 18.6443 2.09723 13.8566 5.7164 10.3283C9.33556 6.8 14.237 4.81882 19.3468 4.81885H54.7303C59.8334 4.82877 64.7249 6.81433 68.3358 10.3416C71.9466 13.8688 73.9831 18.6508 74 23.6424Z" fill="#46056D"/>
<g style="mix-blend-mode:soft-light" opacity="0.2">
<path d="M1.86026 66.3216C2.24514 49.8573 25.8 71.0024 41.2594 71.0024C56.7188 71.0024 63.9546 54.3373 70.087 56.7592C76.2195 59.1812 69.7535 72.7843 58.6689 75.6957C47.5843 78.6071 20.4757 77.2769 13.4965 76.2604C6.51734 75.2439 1.86026 66.3216 1.86026 66.3216Z" fill="white"/>
</g>
<g style="mix-blend-mode:soft-light">
<path d="M71.3058 67.8651C71.281 67.9285 71.2463 67.9877 71.2032 68.0408C70.8949 68.5411 70.5565 69.023 70.1897 69.4839C69.3844 70.5213 68.4778 71.4795 67.4827 72.3451C63.963 75.3875 59.4273 77.0657 54.7303 77.0636H19.3082C16.186 77.0672 13.1097 76.3276 10.3449 74.9087C7.58002 73.4898 5.20962 71.4342 3.43826 68.9192L3.1945 68.4047C3.7205 68.8063 14.4459 76.9757 39.8353 76.9757C63.4542 76.9757 70.1897 69.4463 71.2545 67.978C71.2757 67.9423 71.2929 67.9044 71.3058 67.8651Z" fill="#BF77D8"/>
</g>
<path d="M61.517 53.007C61.1321 54.8894 60.6703 56.1317 60.1443 56.458H60.0801C59.6104 56.6868 59.109 56.8475 58.5919 56.9349H58.4893C53.5407 57.6289 48.5398 57.9018 43.543 57.7505H43.1581C37.6524 57.7542 32.1528 57.3894 26.698 56.6588C25.334 56.5331 24.0175 56.1039 22.8492 55.4039C22.7024 55.2523 22.5889 55.0729 22.5156 54.8768C19.9497 49.3929 18.7822 11.5325 21.2327 9.33644C23.6831 7.14036 32.4071 6.4125 41.3748 6.29956H42.0804C51.6127 6.29956 60.9782 7.06507 62.1072 8.39526C63.8905 10.6917 63.7622 42.3403 61.517 53.007Z" fill="#FF7E83"/>
<path d="M58.5021 54.0612C58.3819 54.9534 57.9883 55.789 57.3731 56.4581C56.821 56.7274 56.2271 56.9055 55.6155 56.9851C51.6247 57.5739 47.5914 57.8425 43.5558 57.7883H43.171C34.8062 57.7883 25.2098 57.2738 21.438 56.1569C20.9185 56.042 20.4319 55.8147 20.0139 55.4918C18.051 53.6346 16.7937 32.6902 17.0759 19.6518C17.2042 14.1804 17.6019 10.1145 18.3589 9.43689C20.8093 7.20317 31.4577 6.33727 41.285 6.40001H41.9907C50.4966 6.50041 58.207 7.29101 59.2333 8.49572C61.1706 10.7671 60.9782 44.549 58.5021 54.0612Z" fill="#C72C5B"/>
<path d="M22.0794 7.86826C22.0794 7.86826 40.9771 4.48003 59.2847 8.47062H62.0686C62.0686 8.47062 60.6061 6.77647 50.9584 6.08628C41.294 5.39218 31.578 5.99171 22.0794 7.86826Z" fill="#FFEDE2"/>
<path d="M60.1571 56.4581H60.0929C59.6123 56.66 59.1143 56.8196 58.6047 56.9349H58.5021C56.1928 57.4871 51.0738 58.2651 40.7975 58.0894C25.5818 57.8259 21.6817 56.2197 21.4379 56.1193C21.4379 56.1193 23.465 56.3828 26.698 56.6714C32.7538 57.2196 38.8343 57.4667 44.9157 57.4118H46.5194C49.2264 57.3491 51.4459 57.2612 53.242 57.1608L55.577 56.9851C57.1132 56.9009 58.6428 56.7249 60.1571 56.4581Z" fill="#C92F6A"/>
<g style="mix-blend-mode:multiply" opacity="0.3">
<path d="M20.6168 10.6541C17.7815 12.2227 19.7444 36.5176 24.8762 44.16C30.0079 51.8023 55.2433 35.476 58.4379 27.9717C61.6324 20.4674 57.155 10.7043 53.0367 8.47057C48.9185 6.23684 23.6959 8.94742 20.6168 10.6541Z" fill="#F9B5CA"/>
</g>
<g style="mix-blend-mode:overlay" opacity="0.3">
<path d="M35.1012 57.1482C27.8911 55.1153 55.4615 40.0564 57.8478 39.1655C60.2341 38.2745 59.1307 54.1113 57.4116 56.1443C55.6924 58.1772 35.1012 57.1482 35.1012 57.1482Z" fill="white"/>
</g>
<g style="mix-blend-mode:multiply" opacity="0.8">
<path d="M60.5419 8.45801C59.8363 8.45801 60.9653 20.5302 60.5419 34.8109C60.1186 49.0917 59.4386 51.9027 60.1571 52.3796C60.8755 52.8564 63.5312 38.1741 63.3131 27.1058C63.095 16.0376 62.3638 9.11054 62.0302 8.90975C61.5493 8.71501 61.0511 8.56381 60.5419 8.45801Z" fill="#E39AA9"/>
</g>
<g style="mix-blend-mode:multiply" opacity="0.8">
<path d="M61.517 53.0071C61.1321 54.8894 60.6702 56.1318 60.1442 56.458H60.0801C59.6104 56.6869 59.109 56.8475 58.5919 56.9349H58.4893C56.18 57.4871 51.0611 58.2651 40.7847 58.0894C25.569 57.8259 21.6689 56.2196 21.4251 56.1192C20.9056 56.0043 20.419 55.7771 20.0011 55.4541C18.0382 53.5969 16.7808 32.6526 17.0631 19.6141C17.2299 25.2863 17.9868 48.1381 19.8086 52.6306C20.3628 53.6941 21.3065 54.5141 22.4514 54.9271C25.2867 56.182 29.931 56.8722 34.973 57.0855C37.2822 57.1859 39.6685 57.1859 42.0034 57.0855C47.5096 56.8125 52.9523 55.8077 58.1814 54.0988L58.4893 53.9984C60.3111 53.4839 61.4272 53.0447 61.517 53.0071Z" fill="#F29AA9"/>
</g>
<path d="M46.558 7.10279C42.5039 7.37887 45.8266 12.0471 49.2906 13.8165C52.7545 15.5859 55.8721 9.47455 56.3853 8.47063C56.8984 7.46671 49.0212 6.9271 46.558 7.10279Z" fill="white"/>
<path d="M58.1941 53.007C57.8092 54.8894 57.3474 56.1317 56.8214 56.458C56.3462 56.6845 55.8409 56.845 55.3203 56.9349H55.2178C50.2735 57.629 45.2769 57.9019 40.2843 57.7505H39.8995C34.3895 57.7537 28.8857 57.3889 23.4265 56.6588C22.0629 56.531 20.7469 56.1019 19.5776 55.4039C19.4352 55.2491 19.3222 55.0706 19.2441 54.8768C16.6782 49.3929 15.5235 11.5325 17.9611 9.33644C20.3987 7.14036 29.1227 6.4125 38.0905 6.29956H38.7961C48.3411 6.29956 57.7067 7.06507 58.8228 8.39526C60.5676 10.6917 60.4393 42.3403 58.1941 53.007Z" fill="#FF7E83"/>
<path d="M55.1792 54.0612C55.0618 54.9566 54.6628 55.7942 54.0374 56.4581C53.4907 56.7296 52.9006 56.9078 52.2926 56.9851C48.3018 57.5734 44.2685 57.842 40.2329 57.7883H39.8481C31.4705 57.7883 21.8869 57.2738 18.1151 56.1569C17.5956 56.042 17.109 55.8147 16.691 55.4918C14.741 53.6346 13.4709 32.6902 13.766 19.6518C13.8943 14.1804 14.292 10.1145 15.0489 9.43689C17.4865 7.20317 28.1349 6.33727 37.9622 6.40001H38.6678C47.1737 6.50041 54.897 7.29101 55.9105 8.49572C57.8349 10.7671 57.6681 44.549 55.1792 54.0612Z" fill="#FFA497"/>
<path d="M18.7437 7.86826C18.7437 7.86826 37.6414 4.48003 55.949 8.47062H58.733C58.733 8.47062 57.2704 6.77647 47.6227 6.08628C37.9583 5.39218 28.2423 5.99171 18.7437 7.86826Z" fill="#FFEDE2"/>
<path d="M56.8215 56.4581C56.3369 56.6613 55.8345 56.8209 55.3204 56.9349H55.2178C52.9085 57.4871 47.8023 58.2651 37.526 58.0894C22.2975 57.8259 18.3974 56.2197 18.1665 56.1193C18.1665 56.1193 20.2063 56.3828 23.4393 56.6714C29.4952 57.219 35.5756 57.4661 41.6571 57.4118H43.2736C45.9678 57.3491 48.1872 57.2612 49.9834 57.1608L52.3183 56.9851C53.8288 56.8981 55.3326 56.722 56.8215 56.4581Z" fill="#C92F6A"/>
<g style="mix-blend-mode:multiply" opacity="0.3">
<path d="M17.2812 10.6541C14.4459 12.2227 16.4216 36.5176 21.5534 44.16C26.6851 51.8023 51.9206 35.476 55.1151 27.9717C58.3097 20.4674 53.8322 10.7043 49.7139 8.47057C45.5957 6.23684 20.3603 8.94742 17.2812 10.6541Z" fill="#F9B5CA"/>
</g>
<g style="mix-blend-mode:overlay" opacity="0.3">
<path d="M31.7656 57.1482C24.5555 55.1153 52.1387 40.0564 54.5121 39.1655C56.8856 38.2745 55.7951 54.1113 54.076 56.1443C52.3568 58.1772 31.7656 57.1482 31.7656 57.1482Z" fill="white"/>
</g>
<g style="mix-blend-mode:multiply" opacity="0.8">
<path d="M57.2063 8.45801C56.5007 8.45801 57.6297 20.5302 57.2063 34.8109C56.783 49.0917 56.103 51.9027 56.8215 52.3796C57.5399 52.8564 60.1956 38.1741 59.9903 27.1058C59.785 16.0376 59.0409 9.11054 58.7073 8.90975C58.223 8.71238 57.7203 8.56111 57.2063 8.45801Z" fill="#E39AA9"/>
</g>
<g style="mix-blend-mode:multiply" opacity="0.8">
<path d="M58.1941 53.0071C57.8092 54.8894 57.3474 56.1318 56.8214 56.458C56.3462 56.6845 55.8409 56.845 55.3203 56.9349H55.2178C52.9085 57.4871 47.8023 58.2651 37.526 58.0894C22.2975 57.8259 18.3974 56.2196 18.1664 56.1192C17.6469 56.0043 17.1603 55.7771 16.7423 55.4541C14.7922 53.5969 13.5222 32.6526 13.8173 19.6141C13.9712 25.2863 14.741 48.1381 16.5628 52.6306C17.1118 53.6933 18.0513 54.5136 19.1928 54.9271C22.0281 56.182 26.6852 56.8722 31.7271 57.0855C34.0236 57.1859 36.4227 57.1859 38.7448 57.0855C44.2551 56.8122 49.7019 55.8075 54.9355 54.0988L55.2434 53.9984C56.9753 53.4839 58.0915 53.0447 58.1941 53.0071Z" fill="#F29AA9"/>
</g>
<path d="M43.2351 7.10279C39.181 7.37887 42.491 12.0471 45.9677 13.8165C49.4445 15.5859 52.5492 9.47455 53.0623 8.47063C53.5755 7.46671 45.6855 6.9271 43.2351 7.10279Z" fill="white"/>
<g style="mix-blend-mode:multiply" opacity="0.78">
<path d="M15.3953 51.1247C15.3953 51.1247 29.9695 54.6259 42.042 54.3498C55.1793 54.0487 55.4102 51.2377 56.1543 45.2518C56.6803 41.2863 56.9754 15.9247 56.6547 12.1851C56.3339 8.44552 54.9996 8.11926 54.9996 8.11926L15.0874 49.6565L15.3953 51.1247Z" fill="#CD2F55"/>
</g>
<path d="M53.8193 47.1843C53.4344 49.0792 52.9726 50.3216 52.4466 50.6353C51.9704 50.8567 51.4653 51.0129 50.9456 51.0996H50.8429C45.8981 51.7883 40.9016 52.057 35.9095 51.9028H35.5246C30.0144 51.9122 24.5102 51.5474 19.0517 50.811C17.6887 50.6806 16.3732 50.2517 15.2029 49.5561C15.0514 49.4009 14.9336 49.2173 14.8564 49.0165C12.2906 43.5451 11.1359 5.67219 13.5735 3.48866C16.0111 1.30513 24.7351 0.552174 33.7028 0.451782H34.4084C43.9535 0.451782 53.319 1.20473 54.448 2.53492C56.2312 4.88159 56.103 36.4675 53.8193 47.1843Z" fill="#FF7E83"/>
<path d="M50.8429 48.251C50.7271 49.1431 50.3277 49.9772 49.7011 50.6353C49.1556 50.9121 48.5653 51.0946 47.9563 51.1749C43.9657 51.7646 39.932 52.029 35.8967 51.9655H35.5117C27.1341 51.9655 17.5506 51.4635 13.7787 50.3341C13.2611 50.2138 12.7757 49.9871 12.3547 49.669C10.4046 47.7992 9.13454 26.8549 9.42962 13.829C9.55791 8.35765 9.95562 4.27924 10.7126 3.61414C13.1501 1.38041 23.7985 0.514514 33.6259 0.57726H34.3315C42.8374 0.677652 50.5607 1.4557 51.5742 2.6604C53.4986 4.95687 53.319 38.7388 50.8429 48.251Z" fill="url(#paint0_linear_0_1416)"/>
<path d="M14.4075 2.04545C14.4075 2.04545 33.3052 -1.34281 51.6127 2.64778H54.3967C54.3967 2.64778 52.9341 0.953685 43.2864 0.276038C33.6226 -0.422192 23.9066 0.173111 14.4075 2.04545Z" fill="#FFEDE2"/>
<path d="M52.5364 50.6353C52.0504 50.8313 51.5483 50.9867 51.0354 51.0996H50.9327C48.6234 51.6518 43.5174 52.4173 33.241 52.2416C18.0125 51.978 14.1123 50.3718 13.8814 50.2714C13.8814 50.2714 15.9213 50.5223 19.1543 50.811C25.2095 51.3698 31.2902 51.6211 37.372 51.5639H38.9886C41.6827 51.5639 43.9022 51.4133 45.6983 51.3129C46.5707 51.3129 47.3533 51.2125 48.0333 51.1498C49.5441 51.0732 51.0482 50.9014 52.5364 50.6353Z" fill="#C92F6A"/>
<g style="mix-blend-mode:multiply" opacity="0.3">
<path d="M12.9449 4.83133C10.1096 6.39996 12.0853 30.6949 17.217 38.3498C22.3488 46.0047 47.5843 29.6533 50.7788 22.1616C53.9733 14.6698 49.4958 4.89409 45.3776 2.64781C41.2593 0.401538 16.0239 3.13721 12.9449 4.83133Z" fill="#F9B5CA"/>
</g>
<g style="mix-blend-mode:overlay" opacity="0.3">
<path d="M27.4293 51.3255C20.2192 49.2926 47.8024 34.2463 50.1758 33.3553C52.5492 32.4643 51.4588 48.2886 49.7396 50.3341C48.0205 52.3796 27.4293 51.3255 27.4293 51.3255Z" fill="white"/>
</g>
<g style="mix-blend-mode:multiply" opacity="0.5">
<path d="M52.87 2.64783C52.1644 2.64783 53.2934 14.72 52.87 29.0008C52.4466 43.2816 51.7667 46.0925 52.4851 46.5694C53.2036 47.0463 55.8592 32.3639 55.654 21.2957C55.4487 10.2275 54.7046 3.28783 54.371 3.08705C53.884 2.90006 53.382 2.75314 52.87 2.64783Z" fill="#E39AA9"/>
</g>
<g style="mix-blend-mode:multiply" opacity="0.8">
<path d="M53.8193 47.1842C53.4344 49.0791 52.9726 50.3215 52.4466 50.6352C51.9704 50.8566 51.4653 51.0129 50.9455 51.0996H50.8429C48.5336 51.6517 43.4275 52.4172 33.1512 52.2415C17.9227 51.978 14.0225 50.3717 13.7916 50.2713C13.274 50.151 12.7885 49.9243 12.3675 49.6062C10.4175 47.7364 9.1473 26.7921 9.44238 13.7662C9.59633 19.4384 10.3661 42.2902 12.1879 46.7827C12.7385 47.8414 13.678 48.6572 14.8179 49.0666C17.6532 50.3215 22.3103 51.0243 27.3523 51.2376C29.6487 51.3254 32.0479 51.338 34.37 51.2376C39.8803 50.9643 45.3271 49.9596 50.5607 48.2509L50.8686 48.1505C52.639 47.6611 53.8193 47.2344 53.8193 47.1842Z" fill="#F29AA9"/>
</g>
<path d="M38.8987 1.28001C34.8447 1.56864 38.1675 6.29963 41.6314 7.99375C45.0954 9.68786 48.2129 3.66432 48.7261 2.64785C49.2393 1.63138 41.3492 1.11688 38.8987 1.28001Z" fill="white"/>
<path d="M39.1168 27.2815C36.448 30.2994 33.2985 32.8758 29.7899 34.9113C29.7899 34.9113 20.5142 28.5615 19.321 23.2157C19.1686 22.6518 19.1436 22.0622 19.2477 21.4879C19.3519 20.9136 19.5827 20.3683 19.9241 19.8901C20.0492 19.718 20.1864 19.5545 20.3346 19.4007C25.569 13.9545 29.9053 20.6556 29.9694 23.0023C29.9694 23.0023 30.7392 19.5639 32.9715 18.1584C34.2545 17.3929 35.8838 17.2423 38.1033 18.6478C41.0669 20.5552 41.1823 24.6839 39.1168 27.2815Z" fill="#ED0049"/>
<g style="mix-blend-mode:overlay" opacity="0.3">
<path d="M36.9487 20.6432C36.1789 24.2949 29.4435 28.8753 28.1477 28.4863C24.8634 27.5075 21.3866 23.3161 19.9112 19.9279C20.0364 19.7557 20.1736 19.5922 20.3218 19.4385C25.5562 13.9922 29.8925 20.6934 29.9567 23.04C29.9567 23.04 30.7264 19.6016 32.9587 18.1961C35.2295 18.171 37.3977 18.4973 36.9487 20.6432Z" fill="white"/>
</g>
<path d="M31.6629 21.007C31.5988 22.9019 34.2289 19.9905 33.9723 19.0619C33.7157 18.1333 31.7014 19.3882 31.6629 21.007Z" fill="white"/>
</g>
<defs>
<linearGradient id="paint0_linear_0_1416" x1="31.1241" y1="51.9781" x2="31.1241" y2="0.552162" gradientUnits="userSpaceOnUse">
<stop stop-color="#FFBDCA"/>
<stop offset="1" stop-color="#FFE8D3"/>
</linearGradient>
<clipPath id="clip0_0_1416">
<rect width="74" height="80" fill="white"/>
</clipPath>
</defs>
</svg>
