<svg width="77" height="80" viewBox="0 0 77 80" fill="none" xmlns="http://www.w3.org/2000/svg">
<g clip-path="url(#clip0_0_895)">
<path d="M56.8741 3.0426H20.0834C8.99165 3.0426 0 12.0342 0 23.126V59.9167C0 71.0084 8.99165 80.0001 20.0834 80.0001H56.8741C67.9658 80.0001 76.9575 71.0084 76.9575 59.9167V23.126C76.9575 12.0342 67.9658 3.0426 56.8741 3.0426Z" fill="#2B0038"/>
<path d="M76.9708 20.0835V56.8741C76.9779 60.4397 76.0286 63.942 74.2219 67.0159C74.2219 67.0159 74.2219 67.0159 74.2219 67.1093C74.2219 67.2027 74.2219 67.1093 74.1284 67.2294C74.035 67.3495 74.1284 67.2294 74.1284 67.2294C74.1284 67.2294 74.1284 67.2294 74.1284 67.3095C73.7815 67.8299 73.4346 68.3504 73.0743 68.8308C72.2373 69.9385 71.2943 70.962 70.2586 71.8866C66.5976 75.1219 61.8798 76.9065 56.9942 76.9042H20.1101C16.8591 76.9087 13.6558 76.1212 10.7774 74.6099C7.89896 73.0986 5.43195 70.909 3.58968 68.2303V68.2303C1.2806 64.894 0.0466614 60.9315 0.053372 56.8741V20.0835C0.0710359 14.7663 2.19664 9.67309 5.96398 5.92076C9.73132 2.16842 14.833 0.0632146 20.1502 0.066777H56.9408C62.2464 0.0808492 67.331 2.19385 71.0839 5.94427C74.8368 9.6947 76.9532 14.7778 76.9708 20.0835V20.0835Z" fill="#46056D"/>
<g style="mix-blend-mode:soft-light" opacity="0.2">
<path d="M1.93494 65.4547C2.33527 47.9601 26.8357 70.4455 42.9158 70.4455C58.9959 70.4455 66.5221 52.7107 72.9007 55.2995C79.2794 57.8884 72.5537 72.3271 61.0241 75.4363C49.4945 78.5456 21.2978 77.1177 14.0384 76.0368C6.77898 74.9559 1.93494 65.4547 1.93494 65.4547Z" fill="white"/>
</g>
<g style="mix-blend-mode:soft-light">
<path d="M74.1685 67.1093C74.145 67.1737 74.1087 67.2327 74.0617 67.2827C74.0617 67.2827 74.0617 67.2827 74.0617 67.3628C73.737 67.8879 73.3852 68.3957 73.0075 68.8841C72.1706 69.9918 71.2276 71.0153 70.1919 71.94C66.5309 75.1752 61.8131 76.9598 56.9275 76.9575H20.1101C16.859 76.962 13.6558 76.1745 10.7774 74.6632C7.89894 73.1519 5.43193 70.9623 3.58967 68.2836V68.2836C3.45622 67.99 3.36281 67.8165 3.33612 67.7364C3.88324 68.1768 15.0392 76.864 41.4479 76.864C66.015 76.864 73.0208 68.8574 74.1284 67.2827C74.1151 67.176 74.1552 67.1493 74.1685 67.1093Z" fill="#BF77D8"/>
</g>
<path d="M19.8565 13.3312C19.8565 13.3312 17.1877 14.2119 16.4804 16.0935C16.1468 16.9742 15.4929 23.513 13.5713 25.8216C11.6497 28.1302 21.0175 22.6056 21.0175 22.6056L19.8565 13.3312Z" fill="url(#paint0_linear_0_895)"/>
<path d="M1.29443 23.2728C4.57717 21.5514 6.99249 25.8216 11.8632 26.2887C16.7339 26.7557 17.3344 13.9584 19.8699 13.3312C22.4053 12.704 33.8949 27.8366 39.4996 29.438L38.7923 51.016C38.7923 51.016 18.1484 50.8158 15.0125 49.6815C11.8765 48.5472 1.29443 23.2728 1.29443 23.2728Z" fill="url(#paint1_linear_0_895)"/>
<path d="M75.236 23.0993C75.236 23.0993 72.9542 28.5439 70.1919 34.5089C68.5906 37.9517 66.8424 41.5681 65.2811 44.3971C63.7198 47.2261 62.332 49.3078 61.4779 49.6281C58.809 50.6556 43.1693 50.9626 38.7924 50.9626H37.6714L37.5647 47.2795L37.0175 29.3979C37.4384 29.2761 37.8454 29.1106 38.2319 28.9042C40.6339 27.6498 43.7432 24.714 46.7457 21.7382C51.1093 17.3879 55.2327 12.9309 56.6339 13.2778C59.156 13.8917 58.1952 27.0093 63.0392 26.5422C67.8832 26.0752 72.7807 21.6581 75.236 23.0993Z" fill="url(#paint2_linear_0_895)"/>
<path d="M62.2919 26.5289C58.5555 23.5531 60.0367 18.242 59.3828 16.5072C58.9233 15.1478 57.9711 14.0099 56.7139 13.3179C56.7139 13.3179 57.7682 14.0785 58.5955 19.9901C59.4229 25.9017 62.2919 26.5289 62.2919 26.5289Z" fill="url(#paint3_linear_0_895)"/>
<g style="mix-blend-mode:multiply" opacity="0.5">
<path d="M70.1918 34.5089C68.5905 37.9517 66.8423 41.5681 65.281 44.3971L38.9524 47.1861L37.618 47.3195L23.4462 48.8141L8.99411 35.9501C7.4595 30.7991 17.0008 24.1402 29.8782 21.8983C35.4705 20.8952 41.193 20.8546 46.799 21.7782C48.1334 21.9918 49.4679 22.2586 50.8023 22.6056C60.9307 25.2478 66.8157 30.1452 70.1918 34.5089Z" fill="#DE376D"/>
</g>
<path d="M75.4095 23.4329C75.0759 20.9375 67.5763 30.9458 62.065 32.1068C56.5538 33.2678 47.1726 11.3028 39.1259 8.51379C31.1192 11.3028 22.0584 33.2544 16.5605 32.1068C11.0626 30.9592 1.42783 21.1243 1.09422 23.6064C0.760609 26.0884 9.10089 44.2636 9.10089 44.2636C21.4445 47.0125 39.0058 47.9333 39.0058 47.9333C39.0058 47.9333 56.5805 47.0125 68.9375 44.2636C68.9508 44.2636 75.7431 25.8883 75.4095 23.4329Z" fill="url(#paint4_linear_0_895)"/>
<path d="M9.11426 44.2635L9.55465 55.246C9.55465 55.246 20.8174 59.8098 38.9925 59.8098C57.1677 59.8098 69.2444 54.9391 69.2444 54.9391L68.9507 44.2635C68.9507 44.2635 39.8599 49.7214 9.11426 44.2635Z" fill="url(#paint5_linear_0_895)"/>
<path d="M7.97993 41.7415C7.97993 41.7415 6.21847 42.5021 6.31188 43.3295C6.40529 44.1568 9.19432 46.2919 9.19432 46.2919C9.19432 46.2919 38.0584 53.7782 68.9908 45.6781C69.9785 44.7149 70.8153 43.6082 71.4729 42.3954C71.673 41.4479 70.005 41.3545 70.005 41.3545C70.005 41.3545 57.8082 46.6923 38.2452 46.6923C18.6823 46.6923 7.97993 41.7415 7.97993 41.7415Z" fill="url(#paint6_linear_0_895)"/>
<path d="M62.2919 26.5288C64.6138 27.4363 70.5387 24.2603 71.7798 24.5405C73.0208 24.8208 63.7731 31.2128 60.9841 31.2128C58.1952 31.2128 55.6464 27.3962 55.6464 27.3962C55.6464 27.3962 58.3152 31.96 61.211 32.5205C66.5488 33.5347 74.8758 23.8866 75.2761 23.1794C75.6764 22.4721 74.3552 22.4855 70.9524 23.5931C67.5496 24.7007 65.8682 26.5822 62.2919 26.5288Z" fill="url(#paint7_linear_0_895)"/>
<path d="M13.2912 25.9951C10.7424 27.3295 7.27281 24.8074 6.03177 25.0877C4.79074 25.3679 13.1977 31.5864 15.9467 31.4796C18.6956 31.3729 22.7123 27.5697 22.7123 27.5697C22.7123 27.5697 19.6297 31.9867 16.6806 32.5472C11.3428 33.548 1.69484 24.0201 1.29451 23.2061C0.894173 22.3921 2.28197 22.3387 5.6848 23.4463C9.08764 24.5539 9.71484 26.342 13.2912 25.9951Z" fill="url(#paint8_linear_0_895)"/>
<path d="M27.0759 21.578C27.0759 21.578 36.4171 10.0083 39.9133 10.769C43.4096 11.5296 49.0542 18.3887 49.0542 18.3887C49.0542 18.3887 42.3019 7.92661 39.1793 7.7131C36.0567 7.49959 27.0759 21.578 27.0759 21.578Z" fill="url(#paint9_linear_0_895)"/>
<path d="M30.4654 44.9575C22.9925 41.6881 34.4687 28.1435 38.7523 26.382C43.0358 24.6205 55.2594 40.5405 49.6147 43.5296C42.5688 47.2394 30.4654 44.9575 30.4654 44.9575Z" fill="url(#paint10_linear_0_895)"/>
<path d="M29.4512 41.8483C28.8507 36.5105 34.5621 28.9709 39.4462 28.317C44.3302 27.6631 51.1493 37.9117 50.3219 41.8483C49.4946 45.7849 29.9983 46.3053 29.4512 41.8483Z" fill="url(#paint11_linear_0_895)"/>
<g style="mix-blend-mode:soft-light">
<path d="M33.2144 40.9541C32.8141 38.9124 37.578 32.9475 39.8866 32.3336C42.1952 31.7198 46.372 37.7515 46.372 40.2069C46.372 42.6622 33.6281 43.0893 33.2144 40.9541Z" fill="white"/>
</g>
<path opacity="0.75" d="M29.905 40.1269C30.1203 40.3643 30.3881 40.548 30.687 40.6635C30.986 40.7789 31.3078 40.8228 31.6268 40.7917C31.9457 40.7606 32.253 40.6553 32.524 40.4842C32.795 40.3132 33.0223 40.0811 33.1877 39.8066C33.8949 38.5656 39.593 32.5072 39.8599 31.5197C39.9234 30.4419 39.8153 29.3609 39.5396 28.317C39.5396 28.317 31.6264 30.292 29.905 40.1269Z" fill="white"/>
<g style="mix-blend-mode:multiply" opacity="0.8">
<path d="M30.3053 43.1427C29.4646 42.342 33.5346 41.4213 33.5346 41.4213C35.5276 42.2087 37.6665 42.5591 39.8065 42.4488C41.9934 42.286 44.1345 41.7394 46.1318 40.8341C47.4231 41.0721 48.6002 41.7286 49.4813 42.7023C49.4813 43.2228 45.4779 44.9976 39.7265 44.9976C36.489 45.0661 33.2751 44.4333 30.3053 43.1427V43.1427Z" fill="#B82774"/>
</g>
<path d="M29.4512 44.3571C32.8657 44.9922 36.3336 45.2961 39.8065 45.2645C47.6264 45.0243 50.7223 42.4221 50.7223 42.4221C50.7223 42.4221 50.0417 45.6515 39.8065 45.8249C31.146 45.9851 29.4512 44.3571 29.4512 44.3571Z" fill="url(#paint12_linear_0_895)"/>
<path d="M34.4821 31.4663C34.4821 31.4663 34.0417 34.1352 35.8966 34.5622C37.7515 34.9892 39.2727 32.0268 39.5396 31.066C39.6922 30.156 39.6922 29.227 39.5396 28.317C37.6619 29.0216 35.9428 30.092 34.4821 31.4663V31.4663Z" fill="white"/>
<path d="M46.2786 39.246C46.1451 39.1259 45.0909 41.1276 45.3578 41.141C45.9844 41.1012 46.6129 41.1012 47.2394 41.141C47.4262 41.221 46.799 39.7131 46.2786 39.246Z" fill="white"/>
<g style="mix-blend-mode:multiply" opacity="0.7">
<path d="M9.19434 46.2919C9.19434 46.2919 41.0075 57.8082 68.9908 45.6781C68.9908 45.6781 44.2636 53.6047 9.19434 46.2919Z" fill="#DE376D"/>
</g>
<g style="mix-blend-mode:soft-light">
<path d="M45.3044 46.5589C40.7806 48.774 49.6013 48.4404 55.6063 47.8933C61.6113 47.3462 65.3611 44.0101 65.4545 43.4496C65.5479 42.8891 45.3044 46.5589 45.3044 46.5589Z" fill="white"/>
</g>
<g style="mix-blend-mode:multiply" opacity="0.2">
<path d="M14.0918 46.6789C10.3153 45.4379 12.9708 43.7565 22.0985 45.6514C31.2261 47.5463 20.5105 48.814 14.0918 46.6789Z" fill="#E02774"/>
</g>
<g style="mix-blend-mode:soft-light" opacity="0.5">
<path d="M25.0342 26.2487C21.9783 29.9184 18.1218 44.2637 24.834 42.9025C27.2093 42.4355 30.7323 27.3162 38.6456 24.7007C46.5588 22.0852 53.2043 39.513 55.6063 40.8075C58.0083 42.1019 60.2102 36.1636 60.2102 34.6156C60.2102 33.0677 45.0108 11.1961 39.1793 11.93C33.3478 12.664 34.4287 14.9059 25.0342 26.2487Z" fill="white"/>
</g>
<g style="mix-blend-mode:multiply" opacity="0.2">
<path d="M6.31189 29.5847C6.31189 29.0109 13.558 32.8274 15.7598 35.9367C17.4791 38.6153 18.8259 41.5154 19.7631 44.5572C19.8565 45.0243 13.7715 43.9567 12.2635 42.8892C10.7556 41.8216 6.31189 29.5847 6.31189 29.5847Z" fill="#E02774"/>
</g>
<g style="mix-blend-mode:multiply" opacity="0.2">
<path d="M13.0108 55.6598C10.9824 54.7791 12.3836 49.2545 12.7439 48.6006C13.1042 47.9467 28.6639 50.3621 31.0659 50.9359C33.4679 51.5097 33.7348 58.4088 33.5479 59.1694C33.3611 59.93 17.7481 57.7015 13.0108 55.6598Z" fill="#E02774"/>
</g>
<g style="mix-blend-mode:soft-light">
<path d="M46.4253 59.5297C43.9032 59.7565 48.1867 51.6298 49.0942 51.2294C50.0016 50.8291 61.7714 47.96 62.8924 48.307C64.0133 48.6539 64.5471 56.4605 64.5471 56.4605C58.5737 57.8473 52.5221 58.8722 46.4253 59.5297V59.5297Z" fill="white"/>
</g>
<path d="M40.5805 8.95415C38.859 8.38034 41.5413 12.7974 44.2368 14.372C46.9324 15.9466 43.2227 9.84823 40.5805 8.95415Z" fill="white"/>
<path d="M64.1468 32.1602C62.1051 32.3737 68.4838 27.583 70.5922 26.5288C72.7006 25.4746 69.6581 31.5864 64.1468 32.1602Z" fill="white"/>
<path d="M56.674 44.7974C54.9659 45.4513 59.7565 46.0251 61.7848 45.5313C62.3508 45.3952 62.8814 45.1404 63.3415 44.7839C63.8016 44.4273 64.1807 43.977 64.4537 43.4629C64.8407 43.1293 56.674 44.7974 56.674 44.7974Z" fill="white"/>
<g style="mix-blend-mode:soft-light">
<path d="M6.89909 42.9291C6.35197 43.7165 9.72813 45.598 10.7557 45.6781C11.8935 45.5666 12.9673 45.0997 13.8249 44.3437C14.1318 43.8899 7.65972 41.8349 6.89909 42.9291Z" fill="white"/>
</g>
<g style="mix-blend-mode:soft-light">
<path d="M10.1418 47.0526C9.42123 46.759 9.3678 54.9659 10.3419 55.0593C11.3161 55.1527 12.3036 49.6014 12.4237 48.3871C12.5438 47.1727 10.1418 47.0526 10.1418 47.0526Z" fill="white"/>
</g>
<g style="mix-blend-mode:soft-light">
<path d="M2.45543 27.2894C2.52215 25.568 9.7815 37.965 10.342 40.1268C10.9024 42.2886 8.52716 42.2085 7.9667 41.3545C7.40623 40.5004 2.42874 28.3169 2.45543 27.2894Z" fill="white"/>
</g>
<g style="mix-blend-mode:multiply" opacity="0.3">
<path d="M66.6155 41.8883C63.5062 42.422 66.8023 32.9341 71.4996 28.2235C76.1968 23.5129 69.4979 40.9408 69.2444 41.3545C68.9908 41.7682 66.6155 41.8883 66.6155 41.8883Z" fill="#FF6F74"/>
</g>
<g style="mix-blend-mode:multiply" opacity="0.3">
<path d="M64.5071 47.4129C63.5997 48.1068 64.5071 55.2327 64.9742 55.6998C65.4412 56.1668 68.2703 54.8324 68.7373 54.3653C69.2044 53.8983 69.0709 47.3595 68.7373 46.6522C68.4037 45.945 64.5071 47.4129 64.5071 47.4129Z" fill="#FF6F74"/>
</g>
<g style="mix-blend-mode:multiply" opacity="0.7">
<path d="M9.43451 51.0159C9.43451 51.0159 14.7723 60.7039 40.7139 59.3295C66.6555 57.955 69.0976 51.2294 69.0976 51.2294L69.2977 54.9258C69.2977 54.9258 40.874 65.8949 9.60799 55.2461L9.43451 51.0159Z" fill="#DE376D"/>
</g>
<path d="M2.45539 23.4996C1.66807 24.4604 6.6989 28.2769 7.51291 28.8374C8.24839 29.2646 9.0782 29.503 9.92826 29.5313C10.1685 29.5847 4.17683 23.6598 2.45539 23.4996Z" fill="white"/>
<path d="M41.6614 45.5981C41.3411 44.7841 46.8924 44.8108 46.8924 44.8108C46.8924 44.8108 43.583 46.1852 41.6614 45.5981Z" fill="white"/>
<g style="mix-blend-mode:multiply" opacity="0.8">
<path d="M28.0233 41.6747C28.0233 41.6747 32.9074 29.0242 39.5396 28.5572C46.1718 28.0901 51.0559 41.141 51.0559 41.141C51.0559 36.724 44.6772 25.8883 39.9399 25.2878C35.2026 24.6873 27.7831 37.3378 28.0233 41.6747Z" fill="#D12774"/>
</g>
<g style="mix-blend-mode:multiply" opacity="0.7">
<path d="M7.97997 41.7415C7.97997 41.7415 35.1493 52.1101 70.005 41.3545L71.7532 36.4037C71.7532 36.4037 60.5572 46.3987 38.9792 45.8649C17.4012 45.3311 6.60553 38.5788 6.60553 38.5788L7.97997 41.7415Z" fill="#DE376D"/>
</g>
</g>
<defs>
<linearGradient id="paint0_linear_0_895" x1="17.1609" y1="26.3954" x2="17.1609" y2="13.3312" gradientUnits="userSpaceOnUse">
<stop offset="0.05" stop-color="#F33C00"/>
<stop offset="1" stop-color="#FF4F04"/>
</linearGradient>
<linearGradient id="paint1_linear_0_895" x1="20.3904" y1="51.0159" x2="20.3904" y2="13.3179" gradientUnits="userSpaceOnUse">
<stop offset="0.05" stop-color="#FF3F00"/>
<stop offset="1" stop-color="#FF7C04"/>
</linearGradient>
<linearGradient id="paint2_linear_0_895" x1="56.1401" y1="51.0159" x2="56.1401" y2="13.2912" gradientUnits="userSpaceOnUse">
<stop offset="0.05" stop-color="#FF3F00"/>
<stop offset="1" stop-color="#FF7C04"/>
</linearGradient>
<linearGradient id="paint3_linear_0_895" x1="59.4896" y1="26.5289" x2="59.4896" y2="13.3179" gradientUnits="userSpaceOnUse">
<stop offset="0.05" stop-color="#F33C00"/>
<stop offset="1" stop-color="#FF4F04"/>
</linearGradient>
<linearGradient id="paint4_linear_0_895" x1="1.08088" y1="28.2236" x2="75.4228" y2="28.2236" gradientUnits="userSpaceOnUse">
<stop stop-color="#FF9600"/>
<stop offset="1" stop-color="#FFA900"/>
</linearGradient>
<linearGradient id="paint5_linear_0_895" x1="9.11426" y1="52.03" x2="69.2444" y2="52.03" gradientUnits="userSpaceOnUse">
<stop stop-color="#FF9600"/>
<stop offset="1" stop-color="#FFA900"/>
</linearGradient>
<linearGradient id="paint6_linear_0_895" x1="6.31188" y1="45.3979" x2="71.4996" y2="45.3979" gradientUnits="userSpaceOnUse">
<stop stop-color="#FF9600"/>
<stop offset="1" stop-color="#FFA900"/>
</linearGradient>
<linearGradient id="paint7_linear_0_895" x1="65.4545" y1="32.5472" x2="65.4545" y2="22.6056" gradientUnits="userSpaceOnUse">
<stop stop-color="#FFDE00"/>
<stop offset="1" stop-color="#FFE834"/>
</linearGradient>
<linearGradient id="paint8_linear_0_895" x1="11.9701" y1="32.6139" x2="11.9701" y2="22.699" gradientUnits="userSpaceOnUse">
<stop stop-color="#FFDE00"/>
<stop offset="1" stop-color="#FFE834"/>
</linearGradient>
<linearGradient id="paint9_linear_0_895" x1="38.0584" y1="21.5113" x2="38.0584" y2="7.64638" gradientUnits="userSpaceOnUse">
<stop stop-color="#FFDE00"/>
<stop offset="1" stop-color="#FFE834"/>
</linearGradient>
<linearGradient id="paint10_linear_0_895" x1="39.5396" y1="45.6514" x2="39.5396" y2="26.2486" gradientUnits="userSpaceOnUse">
<stop offset="0.05" stop-color="#FF4B00"/>
<stop offset="1" stop-color="#FF7204"/>
</linearGradient>
<linearGradient id="paint11_linear_0_895" x1="39.9399" y1="44.9976" x2="39.9399" y2="28.2903" gradientUnits="userSpaceOnUse">
<stop stop-color="#DE0086"/>
<stop offset="1" stop-color="#FF003B"/>
</linearGradient>
<linearGradient id="paint12_linear_0_895" x1="29.4512" y1="44.1302" x2="50.7223" y2="44.1302" gradientUnits="userSpaceOnUse">
<stop stop-color="#FFDE00"/>
<stop offset="1" stop-color="#FFE834"/>
</linearGradient>
<clipPath id="clip0_0_895">
<rect width="76.9708" height="80" fill="white"/>
</clipPath>
</defs>
</svg>
