<svg width="150" height="120" viewBox="0 0 150 120" fill="none" xmlns="http://www.w3.org/2000/svg">
<path d="M142.057 106.133C141.879 106.378 141.681 106.608 141.463 106.818C123.967 124.298 27.1195 123.685 6.00223 107.979C5.04352 107.339 4.28085 106.444 3.79955 105.394C-3.6868 86.3358 0.374006 28.9334 12.2714 16.5155C25.0356 3.21616 122.768 -2.80519 138.536 14.1332C150.083 26.5154 155.593 88.7479 142.057 106.133Z" fill="url(#paint0_linear_1_403)"/>
<path d="M3.77579 101.618C10.995 120.022 127.173 121.493 142.056 102.363C155.592 84.9777 150.083 22.7452 138.494 10.3392C122.732 -6.57534 24.994 -0.553994 12.2298 12.7216C0.350236 25.1633 -3.71649 82.5477 3.77579 101.618Z" fill="url(#paint1_linear_1_403)"/>
<path d="M10.7753 95.3708C10.7753 95.3708 6.49488 110.612 77.6063 110.612C148.718 110.612 132.706 95.3708 132.706 95.3708H10.7753Z" fill="white"/>
<g style="mix-blend-mode:multiply">
<path d="M141.439 95.3708V106.848C123.943 124.328 27.0957 123.715 5.97844 108.009L6.4237 104.555L10.7694 95.3708L138.304 85.0135L141.439 95.3708Z" fill="#CED6FF"/>
</g>
<path d="M9.11306 93.2743C15.6436 109.951 119.681 114.68 133.193 97.3064C145.482 81.5235 140.483 25.0145 129.975 13.7461C115.661 -1.60804 29.3457 9.17796 17.7689 21.2564C6.96977 32.5248 2.32133 75.9607 9.11306 93.2743Z" fill="url(#paint2_radial_1_403)"/>
<path d="M9.64141 90.3262C16.1719 106.407 119.241 107.598 132.706 90.8384C144.948 75.6153 140.133 25.2825 129.666 14.4251C115.418 -0.381149 29.6188 10.0118 18.0539 21.6614C7.30819 32.5248 2.87342 73.626 9.64141 90.3262Z" fill="url(#paint3_linear_1_403)"/>
<path d="M11.6065 88.8968C17.9946 104.531 117.65 105.651 130.83 89.3971C142.804 74.6266 138.097 25.7828 127.861 15.241C113.904 0.875515 31.1565 10.9647 19.8587 22.2689C9.34454 32.8345 4.98697 72.6969 11.6065 88.8968Z" fill="url(#paint4_linear_1_403)"/>
<path style="mix-blend-mode:screen" d="M19.4372 22.3403C19.4372 22.3403 72.3462 -4.37157 128.212 15.4911C128.212 15.4911 133.128 23.0253 135.372 34.9012C135.372 34.9012 75.7955 43.8052 47.0553 45.4013C18.3151 46.9975 82.2726 27.1348 58.0088 24.1688C33.7449 21.2028 19.4372 22.3403 19.4372 22.3403Z" fill="url(#paint5_linear_1_403)"/>
<path style="mix-blend-mode:screen" d="M127.689 89.6948C127.689 89.6948 110.437 105.222 19.728 91.5233C19.728 91.5233 -15.3527 97.771 10.8644 91.5233C55.3787 80.91 115.994 77.7713 127.689 89.6948Z" fill="url(#paint6_linear_1_403)"/>
<path d="M15.4179 29.1002C15.4179 29.1002 17.674 23.4243 22.9162 20.3868C28.1585 17.3493 43.1014 14.3 43.9266 15.0683C44.7518 15.8366 36.6599 19.4339 32.4566 21.3159C28.2533 23.198 17.5611 30.5475 15.4179 29.1002Z" fill="white"/>
<path d="M14.9549 30.619C13.8744 30.8155 11.1851 41.0536 11.3454 42.7391C11.5057 44.4246 14.7471 39.1001 15.2517 36.271C15.5304 34.386 15.4295 32.4641 14.9549 30.619V30.619Z" fill="white"/>
<path style="mix-blend-mode:screen" d="M34.7958 37.5992C36.0425 37.5099 37.1111 38.6653 37.1705 40.19C37.2299 41.7147 36.2978 43.0131 35.057 43.1084C33.8162 43.2037 32.7416 42.0363 32.6822 40.5176C32.6229 38.9988 33.555 37.6826 34.7958 37.5992Z" fill="url(#paint7_radial_1_403)"/>
<path d="M35.069 39.5706C35.1597 39.5736 35.2488 39.5948 35.3313 39.6328C35.4138 39.6708 35.4878 39.725 35.5491 39.7921C35.6105 39.8592 35.658 39.9379 35.6887 40.0236C35.7194 40.1093 35.7327 40.2003 35.7279 40.2912C35.7519 40.4763 35.7035 40.6635 35.5928 40.8135C35.482 40.9634 35.3177 41.0644 35.1342 41.0952C35.0437 41.0922 34.9548 41.0712 34.8724 41.0337C34.79 40.9961 34.7159 40.9426 34.6541 40.8762C34.5924 40.8098 34.5442 40.7319 34.5125 40.6468C34.4808 40.5618 34.4662 40.4713 34.4693 40.3806C34.4453 40.1939 34.4943 40.0052 34.6062 39.8541C34.718 39.7031 34.8839 39.6014 35.069 39.5706V39.5706Z" fill="#FFFFAB"/>
<path style="mix-blend-mode:screen" d="M37.8414 25.753C39.0881 25.6577 40.1568 26.8191 40.2161 28.3379C40.2755 29.8566 39.3434 31.1669 38.1026 31.2562C36.8618 31.3456 35.7872 30.1901 35.7279 28.6714C35.6685 27.1527 36.6184 25.8424 37.8414 25.753Z" fill="url(#paint8_radial_1_403)"/>
<path d="M38.1323 27.7303C38.2228 27.7326 38.3118 27.753 38.3942 27.7904C38.4767 27.8278 38.5509 27.8814 38.6124 27.9481C38.6738 28.0147 38.7212 28.093 38.7519 28.1784C38.7827 28.2637 38.7961 28.3544 38.7914 28.4451C38.8171 28.6311 38.7693 28.8198 38.6584 28.9711C38.5476 29.1223 38.3823 29.2242 38.1977 29.255C38.0145 29.2473 37.8416 29.1672 37.717 29.0322C37.5925 28.8972 37.5262 28.7182 37.5327 28.5344C37.5103 28.3487 37.5601 28.1615 37.6718 28.0117C37.7835 27.862 37.9484 27.7612 38.1323 27.7303V27.7303Z" fill="#FFFFAB"/>
<path style="mix-blend-mode:screen" d="M36.0603 59.7311C37.3011 59.6358 38.3698 60.7971 38.4351 62.3159C38.5004 63.8346 37.5623 65.1449 36.3156 65.2342C35.0689 65.3236 34.0062 64.1681 33.9409 62.6434C33.8755 61.1188 34.8136 59.8204 36.0603 59.7311Z" fill="url(#paint9_radial_1_403)"/>
<path d="M36.3275 61.7084C36.4179 61.7107 36.5071 61.7311 36.5895 61.7685C36.672 61.8059 36.7461 61.8595 36.8075 61.9261C36.8689 61.9928 36.9163 62.0711 36.9471 62.1564C36.9778 62.2418 36.9913 62.3325 36.9865 62.4231C37.0092 62.6086 36.9603 62.7958 36.85 62.9464C36.7396 63.097 36.5761 63.1996 36.3928 63.2331C36.3021 63.2301 36.2128 63.2089 36.1303 63.1709C36.0479 63.1329 35.9739 63.0787 35.9125 63.0116C35.8511 62.9445 35.8037 62.8658 35.7731 62.7801C35.7424 62.6944 35.729 62.6034 35.7338 62.5125C35.7112 62.3277 35.7603 62.1412 35.8707 61.9916C35.9812 61.842 36.1447 61.7406 36.3275 61.7084V61.7084Z" fill="#FFFFAB"/>
<path style="mix-blend-mode:screen" d="M25.4394 19.69C28.9184 19.4339 31.9046 22.6679 32.1124 26.9383C32.3202 31.2086 29.6724 34.8476 26.1756 35.1037C22.6788 35.3598 19.7044 32.1258 19.4967 27.8555C19.2889 23.5851 21.9605 19.9461 25.4394 19.69Z" fill="url(#paint10_radial_1_403)"/>
<path d="M26.1991 25.229C27.1609 25.1575 27.9802 26.0568 28.0515 27.2361C28.1227 28.4153 27.3747 29.4219 26.407 29.4933C25.4393 29.5648 24.6259 28.6655 24.5606 27.4862C24.4952 26.3069 25.2374 25.2945 26.1991 25.229Z" fill="#FFFFAB"/>
<path style="mix-blend-mode:screen" d="M100.178 75.5974C103.657 75.3413 106.643 78.5753 106.851 82.8397C107.059 87.1041 104.405 90.755 100.914 91.0111C97.4233 91.2672 94.449 88.0332 94.2412 83.7629C94.0334 79.4925 96.6931 75.8535 100.178 75.5974Z" fill="url(#paint11_radial_1_403)"/>
<path d="M100.932 81.1364C101.894 81.0649 102.713 81.9642 102.778 83.1375C102.844 84.3108 102.102 85.3293 101.14 85.4007C100.178 85.4722 99.3588 84.5729 99.2935 83.3936C99.2282 82.2144 99.9703 81.2019 100.932 81.1364Z" fill="#FFFFAB"/>
<path style="mix-blend-mode:screen" d="M132.736 71.9048C134.398 71.7797 135.823 73.3282 135.924 75.3651C136.025 77.402 134.736 79.1411 133.092 79.2662C131.447 79.3913 130.005 77.8368 129.904 75.8058C129.803 73.7749 131.05 72.0239 132.736 71.9048Z" fill="url(#paint12_radial_1_403)"/>
<path d="M133.098 74.5254C133.219 74.5292 133.338 74.5572 133.448 74.6076C133.559 74.658 133.658 74.7299 133.74 74.8191C133.822 74.9084 133.886 75.0131 133.928 75.1273C133.969 75.2415 133.988 75.3628 133.982 75.4843C134.012 75.7302 133.948 75.9783 133.803 76.1784C133.657 76.3786 133.441 76.5158 133.199 76.5623C133.078 76.5577 132.959 76.5292 132.849 76.4785C132.739 76.4278 132.64 76.3559 132.558 76.2668C132.476 76.1778 132.412 76.0733 132.37 75.9595C132.328 75.8457 132.309 75.7246 132.314 75.6034C132.28 75.3568 132.342 75.1064 132.488 74.9052C132.635 74.7041 132.853 74.5678 133.098 74.5254V74.5254Z" fill="#FFFFAB"/>
<path style="mix-blend-mode:screen" d="M43.4398 78.617C45.1021 78.4979 46.5329 80.0464 46.6279 82.0774C46.7229 84.1083 45.4405 85.8593 43.802 85.9785C42.1634 86.0976 40.7147 84.5491 40.6138 82.5181C40.5129 80.4872 41.7774 78.7421 43.4398 78.617Z" fill="url(#paint13_radial_1_403)"/>
<path d="M43.808 81.2614C43.9286 81.266 44.0471 81.2945 44.1567 81.3453C44.2663 81.396 44.3648 81.4681 44.4465 81.5572C44.5281 81.6464 44.5913 81.7509 44.6326 81.8647C44.6738 81.9785 44.6922 82.0994 44.6866 82.2203C44.7211 82.4669 44.6585 82.7173 44.5123 82.9185C44.366 83.1196 44.1475 83.2559 43.9029 83.2983C43.7823 83.2953 43.6635 83.2681 43.5536 83.2182C43.4437 83.1683 43.3449 83.0969 43.263 83.008C43.1811 82.9192 43.1177 82.8148 43.0768 82.701C43.0358 82.5871 43.0179 82.4662 43.0243 82.3454C42.9912 82.0983 43.0541 81.848 43.2 81.6462C43.3458 81.4444 43.5636 81.3066 43.808 81.2614Z" fill="#FFFFAB"/>
<path style="mix-blend-mode:screen" d="M35.9594 64.8471C36.1775 64.8548 36.3919 64.9056 36.5903 64.9967C36.7888 65.0877 36.9673 65.2172 37.1157 65.3777C37.2641 65.5382 37.3794 65.7265 37.455 65.9319C37.5307 66.1372 37.5651 66.3556 37.5564 66.5743C37.6156 67.0196 37.5019 67.4707 37.2389 67.8343C36.9759 68.1979 36.5837 68.4462 36.1433 68.5278C35.9245 68.5209 35.7093 68.4705 35.5101 68.3793C35.3109 68.2881 35.1317 68.1581 34.9831 67.9968C34.8344 67.8355 34.7193 67.6461 34.6443 67.4398C34.5694 67.2334 34.536 67.0141 34.5463 66.7947C34.4887 66.3503 34.6031 65.9007 34.8659 65.5384C35.1288 65.1761 35.5202 64.9287 35.9594 64.8471Z" fill="url(#paint14_radial_1_403)"/>
<path d="M36.1434 66.1872C36.2037 66.1887 36.2631 66.2023 36.3181 66.2273C36.373 66.2522 36.4225 66.2879 36.4634 66.3323C36.5044 66.3767 36.5361 66.429 36.5566 66.4859C36.5771 66.5428 36.5859 66.6032 36.5827 66.6637C36.6 66.7873 36.569 66.9129 36.4959 67.0139C36.4228 67.115 36.3135 67.1837 36.1909 67.2056C36.1309 67.2033 36.0719 67.1892 36.0173 67.164C35.9627 67.1388 35.9136 67.103 35.8728 67.0588C35.832 67.0145 35.8002 66.9626 35.7795 66.9061C35.7587 66.8495 35.7492 66.7894 35.7516 66.7292C35.7343 66.6055 35.7655 66.48 35.8386 66.3789C35.9117 66.2778 36.0209 66.2091 36.1434 66.1872V66.1872Z" fill="#FFFFAB"/>
<path style="mix-blend-mode:screen" d="M16.6825 88.3548C16.9006 88.3617 17.1151 88.412 17.3136 88.5029C17.5121 88.5937 17.6905 88.7233 17.8386 88.8841C17.9867 89.0448 18.1015 89.2335 18.1761 89.4392C18.2508 89.6448 18.2839 89.8634 18.2735 90.082C18.3328 90.5273 18.2191 90.9784 17.9561 91.342C17.6931 91.7056 17.3009 91.9539 16.8605 92.0355C16.6419 92.0278 16.427 91.9768 16.2281 91.8854C16.0293 91.794 15.8505 91.6639 15.702 91.5028C15.5535 91.3416 15.4384 91.1526 15.3631 90.9466C15.2878 90.7405 15.254 90.5216 15.2635 90.3023C15.2061 89.8571 15.3212 89.4068 15.5853 89.0443C15.8494 88.6819 16.2422 88.4351 16.6825 88.3548V88.3548Z" fill="url(#paint15_radial_1_403)"/>
<path d="M16.8605 89.677C16.9211 89.6785 16.9808 89.6921 17.0361 89.717C17.0913 89.7418 17.1412 89.7775 17.1826 89.8218C17.224 89.8661 17.2562 89.9183 17.2774 89.9752C17.2986 90.0321 17.3082 90.0927 17.3058 90.1535C17.3202 90.2766 17.2879 90.4007 17.2154 90.5011C17.1428 90.6015 17.0352 90.6709 16.914 90.6954C16.8532 90.6931 16.7934 90.6788 16.7381 90.6533C16.6827 90.6278 16.633 90.5916 16.5917 90.5468C16.5503 90.502 16.5183 90.4495 16.4972 90.3922C16.4761 90.3349 16.4664 90.274 16.4688 90.213C16.4531 90.0903 16.485 89.9663 16.5579 89.8665C16.6308 89.7667 16.7392 89.6989 16.8605 89.677V89.677Z" fill="#FFFFAB"/>
<path style="mix-blend-mode:screen" d="M59.0239 56.7055C59.2428 56.7124 59.4581 56.7629 59.6573 56.854C59.8565 56.9452 60.0357 57.0752 60.1843 57.2365C60.333 57.3978 60.4481 57.5872 60.5231 57.7936C60.598 57.9999 60.6314 58.2192 60.621 58.4387C60.6786 58.883 60.5641 59.3326 60.3013 59.6949C60.0385 60.0572 59.6472 60.3046 59.208 60.3862C58.9897 60.3793 58.7749 60.329 58.5761 60.2382C58.3772 60.1474 58.1983 60.018 58.0498 59.8573C57.9012 59.6966 57.7859 59.508 57.7106 59.3023C57.6353 59.0966 57.6015 58.8779 57.611 58.659C57.5518 58.2137 57.6655 57.7626 57.9285 57.399C58.1914 57.0354 58.5836 56.7871 59.0239 56.7055V56.7055Z" fill="url(#paint16_radial_1_403)"/>
<path d="M59.214 58.0277C59.2749 58.0292 59.3348 58.043 59.3901 58.0683C59.4455 58.0936 59.4952 58.1299 59.5362 58.1749C59.5773 58.22 59.6089 58.2729 59.629 58.3305C59.6491 58.3881 59.6574 58.4492 59.6533 58.5101C59.6705 58.6331 59.6391 58.7579 59.5659 58.858C59.4928 58.9581 59.3836 59.0256 59.2616 59.0462C59.2015 59.0439 59.1425 59.0297 59.0879 59.0045C59.0333 58.9793 58.9842 58.9436 58.9434 58.8993C58.9026 58.8551 58.8709 58.8032 58.8501 58.7466C58.8293 58.6901 58.8199 58.6299 58.8222 58.5697C58.8064 58.4463 58.8381 58.3215 58.9109 58.2208C58.9838 58.12 59.0922 58.051 59.214 58.0277V58.0277Z" fill="#FFFFAB"/>
<path style="mix-blend-mode:screen" d="M38.1203 85.639C38.283 85.6435 38.4432 85.6806 38.5914 85.7481C38.7396 85.8155 38.873 85.912 38.9836 86.0318C39.0942 86.1516 39.1799 86.2924 39.2355 86.4459C39.2912 86.5993 39.3157 86.7623 39.3077 86.9254C39.3515 87.2573 39.267 87.5934 39.0716 87.8647C38.8762 88.1361 38.5847 88.3221 38.2569 88.3846C37.9288 88.3707 37.6195 88.2268 37.3969 87.9846C37.1744 87.7423 37.0566 87.4214 37.0695 87.0922C37.0273 86.7613 37.1127 86.4267 37.3079 86.1567C37.5032 85.8866 37.7937 85.7015 38.1203 85.639Z" fill="url(#paint17_radial_1_403)"/>
<path d="M38.2569 86.6216C38.3019 86.6232 38.3462 86.6337 38.3871 86.6525C38.428 86.6714 38.4647 86.6983 38.4951 86.7315C38.5255 86.7648 38.5489 86.8038 38.5641 86.8463C38.5792 86.8888 38.5859 86.9339 38.5835 86.979C38.5973 87.0712 38.5745 87.1652 38.5201 87.2409C38.4658 87.3166 38.3842 87.3679 38.2926 87.384C38.2476 87.3825 38.2034 87.372 38.1626 87.3531C38.1217 87.3342 38.085 87.3074 38.0546 87.2741C38.0242 87.2408 38.0006 87.2018 37.9854 87.1593C37.9703 87.1168 37.9636 87.0717 37.966 87.0266C37.9538 86.9346 37.9771 86.8414 38.0312 86.7661C38.0853 86.6908 38.166 86.6391 38.2569 86.6216V86.6216Z" fill="#FFFFAB"/>
<path style="mix-blend-mode:screen" d="M22.1919 89.3256C23.4861 89.2303 24.6023 90.4393 24.6795 92.0295C24.7567 93.6197 23.7653 94.9777 22.471 95.073C21.1768 95.1682 20.0606 93.9592 19.9774 92.369C19.8943 90.7788 20.8917 89.4149 22.1919 89.3256Z" fill="url(#paint18_radial_1_403)"/>
<path d="M22.471 91.3923C22.5656 91.3946 22.6587 91.4157 22.7451 91.4545C22.8314 91.4934 22.9093 91.5491 22.9739 91.6184C23.0386 91.6877 23.0887 91.7692 23.1216 91.8582C23.1545 91.9472 23.1695 92.0419 23.1655 92.1368C23.1907 92.3268 23.1435 92.5193 23.0335 92.6761C22.9235 92.8328 22.7587 92.9422 22.5719 92.9825C22.477 92.9794 22.3836 92.9575 22.2972 92.9181C22.2108 92.8786 22.1332 92.8223 22.0686 92.7526C22.004 92.6828 21.9538 92.6009 21.9209 92.5115C21.8881 92.4222 21.8733 92.3272 21.8773 92.232C21.8523 92.0427 21.8995 91.851 22.0096 91.6952C22.1197 91.5394 22.2846 91.4312 22.471 91.3923V91.3923Z" fill="#FFFFAB"/>
<path style="mix-blend-mode:screen" d="M66.5875 91.3982C67.8818 91.3029 68.998 92.512 69.0752 94.1022C69.1523 95.6924 68.1608 97.0503 66.8665 97.1456C65.5723 97.2409 64.4562 96.0319 64.3731 94.4417C64.29 92.8514 65.2874 91.4935 66.5875 91.3982Z" fill="url(#paint19_radial_1_403)"/>
<path d="M66.8664 93.4649C66.961 93.4672 67.0543 93.4884 67.1406 93.5272C67.227 93.566 67.3047 93.6217 67.3694 93.691C67.434 93.7603 67.4843 93.8419 67.5172 93.9309C67.5501 94.0199 67.5651 94.1145 67.5611 94.2094C67.5863 94.3994 67.5391 94.592 67.4291 94.7487C67.3191 94.9054 67.1543 95.0149 66.9674 95.0551C66.8726 95.0521 66.7792 95.0302 66.6928 94.9907C66.6064 94.9512 66.5286 94.895 66.464 94.8252C66.3995 94.7554 66.3493 94.6735 66.3165 94.5842C66.2837 94.4948 66.2688 94.3998 66.2727 94.3047C66.2492 94.1156 66.2971 93.9245 66.4069 93.7691C66.5168 93.6136 66.6807 93.5051 66.8664 93.4649V93.4649Z" fill="#FFFFAB"/>
<path d="M125.748 94.0903C124.994 92.4465 131.685 84.954 133.353 84.9838C135.021 85.0136 133.537 89.9152 132.51 91.0588C131.483 92.2023 126.122 94.9122 125.748 94.0903Z" fill="white"/>
<path opacity="0.5" d="M58.4041 89.2303C44.785 89.004 47.3617 66.3957 46.299 52.8998C47.3201 38.5164 44.3992 20.7382 58.0242 19.8925C69.2626 21.0122 109.117 45.8778 107.389 54.5376C108.998 64.5434 66.0092 89.1291 58.4041 89.2303Z" fill="#EF5A20"/>
<path d="M103.833 49.3679C95.2838 40.6903 76.9687 28.3498 61.7407 22.0723C57.0862 20.1307 51.4937 22.2153 50.1342 27.2718C47.3973 38.4866 45.3373 76.8362 53.441 86.0975C61.4201 91.559 73.1156 80.773 83.2972 75.514C90.7717 69.6773 112.263 60.3207 103.833 49.3679Z" fill="url(#paint20_linear_1_403)"/>
<path d="M101.458 55.0677C97.0767 64.3707 68.0516 79.9154 60.1022 83.2805C52.7821 85.776 53.815 72.6315 52.7345 67.0449C52.4495 55.163 49.3506 21.3577 60.0963 25.9496C75.5795 33.1443 98.9053 46.2769 101.458 55.0677Z" fill="url(#paint21_linear_1_403)"/>
<path d="M101.458 55.0677C97.0768 64.3588 68.0517 79.9214 60.1023 83.2805C52.7762 85.7641 53.821 72.6434 52.7346 67.0449C63.6761 70.5648 77.7109 68.6351 101.458 55.0677Z" fill="url(#paint22_linear_1_403)"/>
<path opacity="0.3" d="M58.8674 31.1431C72.6824 32.2926 89.5904 42.8463 96.21 55.1154C82.6467 49.0258 70.0615 40.9467 58.8674 31.1431V31.1431Z" fill="white"/>
<defs>
<linearGradient id="paint0_linear_1_403" x1="74.9941" y1="119.843" x2="74.9941" y2="3.77005" gradientUnits="userSpaceOnUse">
<stop stop-color="#8B9AD1"/>
<stop offset="1" stop-color="#CEE0FF"/>
</linearGradient>
<linearGradient id="paint1_linear_1_403" x1="74.9999" y1="116.079" x2="74.9999" y2="-9.5708e-05" gradientUnits="userSpaceOnUse">
<stop stop-color="#CADCFF"/>
<stop offset="1" stop-color="white"/>
</linearGradient>
<radialGradient id="paint2_radial_1_403" cx="0" cy="0" r="1" gradientUnits="userSpaceOnUse" gradientTransform="translate(77.7016 101.391) scale(52.1322 63.7551)">
<stop stop-color="#FFBD00"/>
<stop offset="1" stop-color="#FF772C"/>
</radialGradient>
<linearGradient id="paint3_linear_1_403" x1="73.1871" y1="7.11224" x2="71.0324" y2="102.857" gradientUnits="userSpaceOnUse">
<stop stop-color="#FDE254"/>
<stop offset="1" stop-color="#EF5A20"/>
</linearGradient>
<linearGradient id="paint4_linear_1_403" x1="73.1892" y1="101.112" x2="73.1892" y2="8.14759" gradientUnits="userSpaceOnUse">
<stop stop-color="#FFCC00"/>
<stop offset="1" stop-color="#FF9700"/>
</linearGradient>
<linearGradient id="paint5_linear_1_403" x1="19.455" y1="26.8191" x2="135.389" y2="26.8191" gradientUnits="userSpaceOnUse">
<stop stop-color="#FF9840"/>
<stop offset="0.1" stop-color="#EF8E3C"/>
<stop offset="0.29" stop-color="#C57531"/>
<stop offset="0.55" stop-color="#814D20"/>
<stop offset="0.88" stop-color="#241609"/>
<stop offset="1"/>
</linearGradient>
<linearGradient id="paint6_linear_1_403" x1="127.689" y1="89.6115" x2="1.1339" y2="89.6115" gradientUnits="userSpaceOnUse">
<stop stop-color="#FF6140"/>
<stop offset="0.1" stop-color="#EF5B3C"/>
<stop offset="0.29" stop-color="#C54B31"/>
<stop offset="0.55" stop-color="#813120"/>
<stop offset="0.88" stop-color="#240E09"/>
<stop offset="1"/>
</linearGradient>
<radialGradient id="paint7_radial_1_403" cx="0" cy="0" r="1" gradientUnits="userSpaceOnUse" gradientTransform="translate(41.769 31.4778) rotate(-92.6752) scale(2.76271 2.2622)">
<stop stop-color="#00B359"/>
<stop offset="0.13" stop-color="#009148"/>
<stop offset="0.34" stop-color="#005E2F"/>
<stop offset="0.54" stop-color="#00351A"/>
<stop offset="0.73" stop-color="#00180C"/>
<stop offset="0.89" stop-color="#000603"/>
<stop offset="1"/>
</radialGradient>
<radialGradient id="paint8_radial_1_403" cx="0" cy="0" r="1" gradientUnits="userSpaceOnUse" gradientTransform="translate(44.867 19.589) rotate(-92.6752) scale(2.76271 2.2622)">
<stop stop-color="#00B359"/>
<stop offset="0.13" stop-color="#009148"/>
<stop offset="0.34" stop-color="#005E2F"/>
<stop offset="0.54" stop-color="#00351A"/>
<stop offset="0.73" stop-color="#00180C"/>
<stop offset="0.89" stop-color="#000603"/>
<stop offset="1"/>
</radialGradient>
<radialGradient id="paint9_radial_1_403" cx="0" cy="0" r="1" gradientUnits="userSpaceOnUse" gradientTransform="translate(42.9812 53.6716) rotate(-92.6753) scale(2.7627 2.2622)">
<stop stop-color="#00B359"/>
<stop offset="0.13" stop-color="#009148"/>
<stop offset="0.34" stop-color="#005E2F"/>
<stop offset="0.54" stop-color="#00351A"/>
<stop offset="0.73" stop-color="#00180C"/>
<stop offset="0.89" stop-color="#000603"/>
<stop offset="1"/>
</radialGradient>
<radialGradient id="paint10_radial_1_403" cx="0" cy="0" r="1" gradientUnits="userSpaceOnUse" gradientTransform="translate(32.6492 18.5184) rotate(-92.6752) scale(7.73863 6.33661)">
<stop stop-color="#00B359"/>
<stop offset="0.13" stop-color="#009148"/>
<stop offset="0.34" stop-color="#005E2F"/>
<stop offset="0.54" stop-color="#00351A"/>
<stop offset="0.73" stop-color="#00180C"/>
<stop offset="0.89" stop-color="#000603"/>
<stop offset="1"/>
</radialGradient>
<radialGradient id="paint11_radial_1_403" cx="0" cy="0" r="1" gradientUnits="userSpaceOnUse" gradientTransform="translate(107.482 74.3407) rotate(-92.6752) scale(7.73863 6.3366)">
<stop stop-color="#00B359"/>
<stop offset="0.13" stop-color="#009148"/>
<stop offset="0.34" stop-color="#005E2F"/>
<stop offset="0.54" stop-color="#00351A"/>
<stop offset="0.73" stop-color="#00180C"/>
<stop offset="0.89" stop-color="#000603"/>
<stop offset="1"/>
</radialGradient>
<radialGradient id="paint12_radial_1_403" cx="0" cy="0" r="1" gradientUnits="userSpaceOnUse" gradientTransform="translate(139.965 66.4871) rotate(-92.6752) scale(3.69378 3.02454)">
<stop stop-color="#00B359"/>
<stop offset="0.13" stop-color="#009148"/>
<stop offset="0.34" stop-color="#005E2F"/>
<stop offset="0.54" stop-color="#00351A"/>
<stop offset="0.73" stop-color="#00180C"/>
<stop offset="0.89" stop-color="#000603"/>
<stop offset="1"/>
</radialGradient>
<radialGradient id="paint13_radial_1_403" cx="0" cy="0" r="1" gradientUnits="userSpaceOnUse" gradientTransform="translate(50.3962 73.5245) rotate(-92.6753) scale(3.69379 3.02461)">
<stop stop-color="#00B359"/>
<stop offset="0.13" stop-color="#009148"/>
<stop offset="0.34" stop-color="#005E2F"/>
<stop offset="0.54" stop-color="#00351A"/>
<stop offset="0.73" stop-color="#00180C"/>
<stop offset="0.89" stop-color="#000603"/>
<stop offset="1"/>
</radialGradient>
<radialGradient id="paint14_radial_1_403" cx="0" cy="0" r="1" gradientUnits="userSpaceOnUse" gradientTransform="translate(42.8342 57.8907) rotate(-92.6753) scale(1.84689 1.51231)">
<stop stop-color="#00B359"/>
<stop offset="0.13" stop-color="#009148"/>
<stop offset="0.34" stop-color="#005E2F"/>
<stop offset="0.54" stop-color="#00351A"/>
<stop offset="0.73" stop-color="#00180C"/>
<stop offset="0.89" stop-color="#000603"/>
<stop offset="1"/>
</radialGradient>
<radialGradient id="paint15_radial_1_403" cx="0" cy="0" r="1" gradientUnits="userSpaceOnUse" gradientTransform="translate(23.4509 81.5363) rotate(-92.6753) scale(1.84689 1.51231)">
<stop stop-color="#00B359"/>
<stop offset="0.13" stop-color="#009148"/>
<stop offset="0.34" stop-color="#005E2F"/>
<stop offset="0.54" stop-color="#00351A"/>
<stop offset="0.73" stop-color="#00180C"/>
<stop offset="0.89" stop-color="#000603"/>
<stop offset="1"/>
</radialGradient>
<radialGradient id="paint16_radial_1_403" cx="0" cy="0" r="1" gradientUnits="userSpaceOnUse" gradientTransform="translate(65.984 49.6488) rotate(-92.6752) scale(1.8469 1.5123)">
<stop stop-color="#00B359"/>
<stop offset="0.13" stop-color="#009148"/>
<stop offset="0.34" stop-color="#005E2F"/>
<stop offset="0.54" stop-color="#00351A"/>
<stop offset="0.73" stop-color="#00180C"/>
<stop offset="0.89" stop-color="#000603"/>
<stop offset="1"/>
</radialGradient>
<radialGradient id="paint17_radial_1_403" cx="0" cy="0" r="1" gradientUnits="userSpaceOnUse" gradientTransform="translate(44.9376 78.2721) rotate(-92.6752) scale(1.37372 1.12484)">
<stop stop-color="#00B359"/>
<stop offset="0.13" stop-color="#009148"/>
<stop offset="0.34" stop-color="#005E2F"/>
<stop offset="0.54" stop-color="#00351A"/>
<stop offset="0.73" stop-color="#00180C"/>
<stop offset="0.89" stop-color="#000603"/>
<stop offset="1"/>
</radialGradient>
<radialGradient id="paint18_radial_1_403" cx="0" cy="0" r="1" gradientUnits="userSpaceOnUse" gradientTransform="translate(29.0181 83.5284) rotate(-92.6753) scale(2.88481 2.36222)">
<stop stop-color="#00B359"/>
<stop offset="0.13" stop-color="#009148"/>
<stop offset="0.34" stop-color="#005E2F"/>
<stop offset="0.54" stop-color="#00351A"/>
<stop offset="0.73" stop-color="#00180C"/>
<stop offset="0.89" stop-color="#000603"/>
<stop offset="1"/>
</radialGradient>
<radialGradient id="paint19_radial_1_403" cx="0" cy="0" r="1" gradientUnits="userSpaceOnUse" gradientTransform="translate(73.5441 85.4576) rotate(-92.6753) scale(2.88482 2.36222)">
<stop stop-color="#00B359"/>
<stop offset="0.13" stop-color="#009148"/>
<stop offset="0.34" stop-color="#005E2F"/>
<stop offset="0.54" stop-color="#00351A"/>
<stop offset="0.73" stop-color="#00180C"/>
<stop offset="0.89" stop-color="#000603"/>
<stop offset="1"/>
</radialGradient>
<linearGradient id="paint20_linear_1_403" x1="82.1456" y1="29.8268" x2="60.3055" y2="90.091" gradientUnits="userSpaceOnUse">
<stop offset="0.06" stop-color="#FC7800"/>
<stop offset="1" stop-color="#882003"/>
</linearGradient>
<linearGradient id="paint21_linear_1_403" x1="80.703" y1="36.3426" x2="55.3717" y2="87.0932" gradientUnits="userSpaceOnUse">
<stop stop-color="white"/>
<stop offset="1" stop-color="#B3B3B3"/>
</linearGradient>
<linearGradient id="paint22_linear_1_403" x1="90.57" y1="47.5455" x2="46.2181" y2="93.3531" gradientUnits="userSpaceOnUse">
<stop stop-color="white"/>
<stop offset="0.04" stop-color="#FAFAFA"/>
<stop offset="0.29" stop-color="#DBDBDB"/>
<stop offset="0.54" stop-color="#C5C5C5"/>
<stop offset="0.78" stop-color="#B8B8B8"/>
<stop offset="1" stop-color="#B3B3B3"/>
</linearGradient>
</defs>
</svg>
