<svg width="51" height="47" viewBox="0 0 51 47" fill="none" xmlns="http://www.w3.org/2000/svg">
<g clip-path="url(#clip0_1_450)">
<path d="M40.91 32.37C40.91 32.37 43.31 42.37 41.68 45.75C41.5427 46.0834 41.314 46.3712 41.02 46.58C40.69 46.81 34.68 46.92 34.18 46.94C32.05 47 34.18 45.23 31.65 43.73C31.18 43.45 30.73 43.18 30.34 42.93C29.22 42.23 28.48 41.72 28.48 41.72C26.2995 43.233 24.0022 44.5706 21.61 45.72C20.6984 46.1457 19.7472 46.4807 18.77 46.72C16.2139 46.899 13.6493 46.9257 11.09 46.8C8.30003 44.87 15.69 32.89 15.8 32.34C15.8 32.34 4.90001 23.86 5.63001 19.95C6.40001 15.95 19.82 15.51 19.82 15.51C19.82 15.51 18.39 2.86 21.92 0.140003C22.37 -0.199997 27.46 0.140003 27.92 0.140003C29.15 0.140003 30.45 1.65001 31.66 3.71001C33.6346 7.47794 35.2356 11.4301 36.44 15.51C36.44 15.51 38.14 15.51 40.36 15.81C43.0846 16.0317 45.7626 16.6482 48.31 17.64C49.61 18.23 50.55 18.99 50.75 19.96C51.32 22.6 46.61 27.35 43.53 30.12C42.04 31.48 40.91 32.37 40.91 32.37Z" fill="url(#paint0_linear_1_450)"/>
<path d="M37.92 30.1899C36.44 31.5299 35.33 32.4199 35.33 32.4199C35.8452 34.6998 36.2325 37.0068 36.49 39.3299V39.3299C36.74 41.8399 36.77 44.3299 36.09 45.7699C35.9439 46.0981 35.7168 46.3837 35.43 46.5999C35.0596 46.8432 34.6228 46.9655 34.18 46.9499C32.05 47.0199 28.6 45.2499 26.06 43.7499C25.59 43.4699 25.14 43.1999 24.75 42.9499C23.63 42.2499 22.89 41.7399 22.89 41.7399C20.7095 43.253 18.4123 44.5905 16.02 45.7399C15.1098 46.169 14.1582 46.5041 13.18 46.7399C12.5299 46.9269 11.8455 46.9611 11.18 46.8399V46.8399C10.9646 46.7889 10.761 46.6973 10.58 46.5699C7.78002 44.6299 10.18 32.9299 10.29 32.3799C10.29 32.3799 4.44004 27.8299 1.60004 23.8599V23.7899C0.600038 22.3599 -0.0299647 21.0199 0.160035 19.9899C0.940035 15.9899 14.36 15.5399 14.36 15.5399C14.36 15.5399 18.3 0.189941 22.32 0.189941C23.55 0.189941 24.85 1.69995 26.06 3.75995C28.0385 7.52258 29.6397 11.4718 30.84 15.5499C30.84 15.5499 32.54 15.5499 34.76 15.8599C37.5016 16.0769 40.1968 16.6934 42.76 17.6899C44.06 18.2899 45 19.0499 45.2 20.0099C45.72 22.6199 41 27.3799 37.92 30.1899Z" fill="url(#paint1_linear_1_450)"/>
<g style="mix-blend-mode:multiply" opacity="0.5">
<path d="M45.2 22.05C46.48 19.92 50.01 20.69 50.27 21.19C50.53 21.69 46.27 28.35 43.52 30.14C40.77 31.93 36.79 32.14 36.16 32.19C35.53 32.24 40.6 27.98 42.16 25.71C43.0743 24.4109 44.0908 23.187 45.2 22.05V22.05Z" fill="#BD3EA9"/>
</g>
<g style="mix-blend-mode:multiply" opacity="0.5">
<path d="M25.71 43.52C25.71 43.52 23.42 42.17 22.6 42.32C21.78 42.47 17.13 45.51 16.06 45.95C14.99 46.39 16.6 47.18 19.35 46.61C22.1 46.04 25.71 43.52 25.71 43.52Z" fill="#BD3EA9"/>
</g>
<path d="M30.84 15.53C30.84 15.53 39.42 15.68 42.98 16.19C46.54 16.7 49.92 18.66 49.98 19.37C50.04 20.08 46.63 19.83 45.76 19.62C44.89 19.41 42.51 16.07 30.84 15.53Z" fill="#FFB048"/>
<path d="M22.32 0.190014C24.52 0.0500138 26.98 3.87002 28.8 4.76002C30.62 5.65002 30.08 1.76002 28.8 0.680019C27.52 -0.399981 22.32 0.190014 22.32 0.190014Z" fill="#FFBA48"/>
<g style="mix-blend-mode:multiply" opacity="0.5">
<path d="M34.96 46.81C36.7 46.41 36.7 45.19 39.62 44.34C42.54 43.49 41.89 46.01 41.02 46.58C40.15 47.15 34.96 46.81 34.96 46.81Z" fill="#BD3EA9"/>
</g>
<path d="M30.84 15.53C34.0694 15.9002 37.27 16.4882 40.42 17.29C44.58 18.46 45.11 19.84 45.11 19.84C45.11 19.84 45.48 18.26 40.66 16.73C37.4748 15.7933 34.1571 15.3879 30.84 15.53V15.53Z" fill="#FFD300"/>
<path d="M1.40002 18.19C5.55436 16.7858 9.86154 15.8828 14.23 15.5C14.23 15.5 7.05002 15.25 1.40002 18.19Z" fill="#FFD300"/>
<path d="M16.88 7.57004C16.88 7.57004 19.53 1.86003 22.32 1.37003C25.11 0.880026 28.81 9.64003 28.81 9.64003C28.81 9.64003 25.47 -0.019969 22.6 3.10131e-05C19.73 0.020031 16.88 7.57004 16.88 7.57004Z" fill="#FFD300"/>
<g style="mix-blend-mode:multiply" opacity="0.5">
<path d="M36.14 45.75C35.9939 46.0781 35.7668 46.3637 35.48 46.58C35.1097 46.8232 34.6729 46.9455 34.23 46.93C32.1 47 28.65 45.23 26.11 43.73C25.64 43.45 25.19 43.18 24.8 42.93C23.68 42.23 22.94 41.72 22.94 41.72C20.7595 43.233 18.4622 44.5705 16.07 45.72C15.1598 46.149 14.2083 46.4841 13.23 46.72C12.58 46.9069 11.8955 46.9412 11.23 46.82V46.82C11.0147 46.769 10.811 46.6773 10.63 46.55C7.83 44.61 10.23 32.91 10.34 32.36C10.34 32.36 4.49002 27.81 1.65002 23.84C2.24002 24.52 7.10001 30.06 11.76 32.18C11.76 32.18 8.83 41.46 10.87 44.91C12.91 48.36 22.6 41.19 22.6 41.19C22.6 41.19 29.24 46.01 33.06 45.86C36.7 45.71 36.52 39.86 36.49 39.3C36.74 41.82 36.77 44.36 36.14 45.75Z" fill="#E07090"/>
</g>
<g style="mix-blend-mode:soft-light" opacity="0.3">
<path d="M1.40004 20.57C0.990041 22.42 8.65003 30.97 15.95 34.22C23.25 37.47 43.77 25.46 45.09 21.22C46.41 16.98 30.53 16.66 30.53 16.66C30.53 16.66 26.45 0.659995 22.32 1.37C18.19 2.08 14.82 16.66 14.82 16.66C14.82 16.66 2.43004 15.83 1.40004 20.57Z" fill="white"/>
</g>
<g style="mix-blend-mode:multiply" opacity="0.5">
<path d="M23.28 34.77C19.52 37.56 27.33 46.2499 32.28 45.8399C37.23 45.4299 36.08 32.26 34.94 31.63C33.8 31 23.28 34.77 23.28 34.77Z" fill="#FFD4BD"/>
</g>
<g style="mix-blend-mode:multiply" opacity="0.5">
<path d="M17.38 26.54C15.26 26.28 12.0501 24.82 11.7901 23.11C11.7755 23.0172 11.7755 22.9227 11.7901 22.83C11.9301 21.4908 12.401 20.2074 13.1604 19.0955C13.9197 17.9835 14.9437 17.0778 16.14 16.46C18.03 15.53 19.46 18.68 19.68 22.21C19.68 22.4 19.68 22.6 19.68 22.81C19.76 26.59 19.6 26.82 17.38 26.54Z" fill="#E386A2"/>
</g>
<g style="mix-blend-mode:multiply" opacity="0.5">
<path d="M21.41 14.5299C21.4354 14.9429 21.3112 15.3512 21.06 15.6799C20.67 16.0899 19.98 15.4799 19.55 15.0099C19.36 14.7899 19.23 14.6099 19.23 14.6099C18.76 13.6099 20.54 13.1199 20.98 13.0599C21.19 12.9699 21.42 13.7699 21.41 14.5299Z" fill="#E386A2"/>
</g>
<g style="mix-blend-mode:multiply" opacity="0.5">
<path d="M19.6601 22.19C19.4201 21.19 18.1001 16.5 15.7301 17.03C13.1801 17.59 12.1701 23.48 11.7901 23.09C11.7755 22.9972 11.7755 22.9028 11.7901 22.81C11.9301 21.4708 12.401 20.1875 13.1604 19.0755C13.9197 17.9635 14.9437 17.0579 16.14 16.44C18.01 15.53 19.4401 18.68 19.6601 22.19Z" fill="#E386A2"/>
</g>
<g style="mix-blend-mode:multiply" opacity="0.5">
<path d="M21.41 14.53C21.2966 14.1458 21.1529 13.7713 20.98 13.41C20.85 13.25 20.21 13.2 19.54 13.79C19.4623 13.8663 19.4006 13.9573 19.3584 14.0578C19.3163 14.1582 19.2946 14.2661 19.2946 14.375C19.2946 14.4839 19.3163 14.5917 19.3584 14.6922C19.4006 14.7926 19.4623 14.8837 19.54 14.96C19.35 14.74 19.22 14.56 19.22 14.56C18.75 13.56 20.53 13.07 20.97 13.01C21.19 12.97 21.42 13.77 21.41 14.53Z" fill="#E386A2"/>
</g>
<path d="M36.14 15.83C33.73 15.83 37.14 18.3999 39.14 18.7299C41.14 19.0599 42.14 17.25 41.81 17.11C39.9759 16.4653 38.0732 16.0358 36.14 15.83V15.83Z" fill="url(#paint2_linear_1_450)"/>
<g style="mix-blend-mode:multiply" opacity="0.5">
<path d="M35.84 17.02C37.1134 17.7722 38.6182 18.0319 40.07 17.75C41.76 17.11 37.85 16 36.65 15.86C35.45 15.72 35 16.37 35.84 17.02Z" fill="#BD3EA9"/>
</g>
<path d="M36.49 17.54C37.5699 18.1243 38.7644 18.4656 39.99 18.54C41.3 18.39 41.49 17.92 41.49 17.92C41.49 17.92 41.27 18.99 39.36 18.99C38.2726 18.8268 37.2665 18.3185 36.49 17.54V17.54Z" fill="#FFD300"/>
<g style="mix-blend-mode:soft-light" opacity="0.4">
<path d="M37.14 40.27C36.75 40.45 37.05 44.04 37.14 44.35C37.23 44.66 40.47 43.84 41.45 44.16C42.43 44.48 41.91 40.89 41.79 40.27C41.67 39.65 37.77 40 37.14 40.27Z" fill="white"/>
</g>
<g style="mix-blend-mode:multiply" opacity="0.5">
<path d="M12.24 46.94C14.1509 46.5209 16.0043 45.8729 17.76 45.01C19.34 44.01 21.59 43.85 22.29 44.38C22.99 44.91 20.92 46.1 18.53 46.65C16.4518 46.9908 14.3408 47.0881 12.24 46.94V46.94Z" fill="#BD3EA9"/>
</g>
</g>
<defs>
<linearGradient id="paint0_linear_1_450" x1="36.23" y1="48.33" x2="19.07" y2="1.19" gradientUnits="userSpaceOnUse">
<stop stop-color="#F63F00"/>
<stop offset="0.55" stop-color="#F66A00"/>
<stop offset="1" stop-color="#FA9300"/>
</linearGradient>
<linearGradient id="paint1_linear_1_450" x1="32.51" y1="47.7099" x2="16" y2="2.34995" gradientUnits="userSpaceOnUse">
<stop stop-color="#FF9600"/>
<stop offset="1" stop-color="#FFA900"/>
</linearGradient>
<linearGradient id="paint2_linear_1_450" x1="35.29" y1="17.3" x2="41.83" y2="17.3" gradientUnits="userSpaceOnUse">
<stop stop-color="#F63F00"/>
<stop offset="0.55" stop-color="#F66A00"/>
<stop offset="1" stop-color="#FA9300"/>
</linearGradient>
<clipPath id="clip0_1_450">
<rect width="50.79" height="47" fill="white"/>
</clipPath>
</defs>
</svg>
