<svg width="58" height="66" viewBox="0 0 58 66" fill="none" xmlns="http://www.w3.org/2000/svg">
<g clip-path="url(#clip0_1_261)">
<path d="M42.62 7.60999H15.05C6.73811 7.60999 0 14.3481 0 22.66V50.23C0 58.5419 6.73811 65.28 15.05 65.28H42.62C50.9319 65.28 57.67 58.5419 57.67 50.23V22.66C57.67 14.3481 50.9319 7.60999 42.62 7.60999Z" fill="#2B0038"/>
<path d="M57.71 20.38V47.96C57.7175 50.6278 57.0096 53.2488 55.66 55.55C55.66 55.55 55.66 55.55 55.66 55.62L55.59 55.72C55.59 55.72 55.59 55.72 55.59 55.77C55.33 56.17 55.07 56.55 54.8 56.91C54.1728 57.7402 53.4661 58.5071 52.69 59.2C49.9466 61.6244 46.4112 62.9618 42.75 62.96H15.05C12.6154 62.9618 10.217 62.3709 8.06187 61.2385C5.90672 60.106 4.05959 58.466 2.68 56.46C0.951 53.963 0.0263816 50.9972 0.0300094 47.96V20.38C0.0299984 18.406 0.419625 16.4514 1.17657 14.6282C1.93352 12.8051 3.04289 11.1492 4.44107 9.75571C5.83925 8.36217 7.49874 7.25833 9.3244 6.50745C11.1501 5.75658 13.106 5.37345 15.08 5.38003H42.66C44.634 5.37345 46.59 5.75658 48.4156 6.50745C50.2413 7.25833 51.9008 8.36217 53.2989 9.75571C54.6971 11.1492 55.8065 12.8051 56.5634 14.6282C57.3204 16.4514 57.71 18.406 57.71 20.38Z" fill="#46056D"/>
<g style="mix-blend-mode:soft-light" opacity="0.2">
<path d="M1.45001 54.39C1.75001 41.27 20.1 58.12 32.16 58.12C44.22 58.12 49.85 44.83 54.62 46.77C59.39 48.71 54.37 59.59 45.71 61.86C37.05 64.13 15.94 63.12 10.5 62.31C5.06 61.5 1.45001 54.39 1.45001 54.39Z" fill="white"/>
</g>
<g style="mix-blend-mode:soft-light">
<path d="M55.58 55.59C55.5566 55.6385 55.5299 55.6853 55.5 55.73C55.5 55.73 55.5 55.73 55.5 55.78C55.2591 56.1751 54.9953 56.5558 54.71 56.92C54.0828 57.7501 53.3761 58.5171 52.6 59.21C49.8566 61.6344 46.3212 62.9718 42.66 62.97H15.05C12.6154 62.9718 10.217 62.3809 8.06187 61.2485C5.90672 60.116 4.0596 58.476 2.68001 56.47V56.47C2.57001 56.26 2.51001 56.12 2.49001 56.07C2.90001 56.39 11.26 62.9 31.05 62.9C49.46 62.9 54.71 56.9 55.54 55.73L55.58 55.59Z" fill="#BF77D8"/>
</g>
<path d="M32.05 47.75L31.29 47.81H31.23L27.23 48.08H27.14L25.36 48.2L24.19 48.28H24.11V46.4L24.18 20.06V2.17999V0L26.91 0.219994L31.71 0.589996V1.89L31.81 14.68L32.07 45.09V47.73L32.05 47.75Z" fill="url(#paint0_linear_1_261)"/>
<path d="M44.51 25.69C44.3668 28.8281 43.6905 31.9189 42.51 34.83V34.83C42.51 34.93 42.35 35.22 42.15 35.66C42.06 35.88 41.96 36.09 41.86 36.29C40.9441 38.2169 39.77 40.0101 38.37 41.62C38.19 41.84 37.99 42.06 37.79 42.27C36.1399 44.0297 34.1851 45.4763 32.02 46.54C31.0238 47.0142 29.9861 47.3958 28.92 47.68C28.63 47.75 28.34 47.83 28.04 47.89C27.8 47.95 27.55 47.99 27.3 48.03H27.2C26.3262 48.1623 25.4438 48.2292 24.56 48.23H24.06C22.2952 48.1672 20.5509 47.8298 18.89 47.23L18.24 47H18.11C16.2097 46.2228 14.4445 45.1495 12.88 43.82C11.6049 42.7373 10.4575 41.5127 9.46 40.17V40.17C6.36322 35.9468 4.56955 30.91 4.3 25.68C4.03678 21.6439 4.64734 17.5986 6.09001 13.82C6.09001 13.82 6.09 13.68 6.25 13.44C8.63 7.57001 12.96 2.99001 18.35 1.03001C18.6765 0.903124 19.0105 0.79626 19.35 0.710012L19.87 0.56001C20.1833 0.48001 20.4933 0.410011 20.8 0.350011L21.34 0.250013C22.2805 0.0807733 23.2344 -0.00290211 24.19 1.25513e-05C25.1043 0.00207748 26.0171 0.0756286 26.92 0.220006V0.220006C27.6745 0.341267 28.4197 0.515026 29.15 0.74001C29.1792 0.730105 29.2108 0.730105 29.24 0.74001C29.52 0.82001 29.8 0.910009 30.08 1.02001H30.13C30.64 1.21001 31.13 1.42001 31.66 1.66001C39.71 5.52001 45 15.07 44.51 25.69Z" fill="url(#paint1_linear_1_261)"/>
<g style="mix-blend-mode:multiply" opacity="0.2">
<path d="M36.81 7.03999C36.65 8.03999 34.81 11.49 31.81 14.7C29.6752 17.0071 27.0744 18.8342 24.18 20.06C22.8616 20.5917 21.4803 20.9513 20.07 21.13C17.2534 21.5332 14.3839 21.3528 11.64 20.6C7.63999 19.38 5.79 16.93 5.85 15.83C6.89176 12.9766 8.32913 10.2836 10.12 7.82999C12.1766 4.83573 15.0361 2.48229 18.37 1.03999V1.03999C18.6965 0.913103 19.0305 0.806239 19.37 0.71999L19.71 0.589993H19.88C20.1933 0.509993 20.5033 0.439994 20.81 0.379994L21.35 0.279996C22.2918 0.125957 23.2459 0.059003 24.2 0.0799911C25.7522 0.0937804 27.2945 0.329505 28.78 0.779996H28.88C29.8437 1.07659 30.7804 1.45461 31.68 1.90999C32.09 2.10999 32.47 2.32999 32.83 2.54999C33.19 2.76999 33.67 3.09999 34.12 3.42999C35.93 4.82999 36.93 6.27999 36.81 7.03999Z" fill="#F42774"/>
</g>
<g style="mix-blend-mode:soft-light">
<path d="M6.61 34.59C7.52 36.04 20.61 29.98 26.77 28.17C32.93 26.36 42.68 28.28 43.56 27.54C44.44 26.8 43.96 15.82 40.46 10.37C36.86 4.76 36.83 10.67 33.01 13.37C29.19 16.07 14.14 20.74 10.91 20.37C7.68 20 6.56 18.53 5.36 18.7C4.16 18.87 2.16 27.59 6.61 34.59Z" fill="white"/>
</g>
<path d="M37.28 25.69C37.07 33.84 31.78 40.27 25.28 40.83C24.96 40.83 24.65 40.83 24.28 40.83C17.35 40.83 11.45 34.19 11.08 25.65C10.69 16.71 16.48 9.14001 24.02 9.14001C24.37 9.14001 24.71 9.14001 25.02 9.14001C32.16 9.89001 37.51 17.17 37.28 25.69Z" fill="url(#paint2_linear_1_261)"/>
<path d="M37.28 25.69C37.07 33.84 31.78 40.27 25.28 40.83C18.78 40.27 13.41 33.83 13.1 25.69C12.77 17.16 18.1 9.87998 25.1 9.22998C32.16 9.88998 37.51 17.17 37.28 25.69Z" fill="#FF6B04"/>
<path d="M31.44 29.42C31.44 29.42 32.54 34.6 31.73 36.28C31.6601 36.4445 31.5501 36.5889 31.41 36.7C30.7122 36.8129 30.0069 36.8731 29.3 36.88C28.3 36.88 28.13 36.02 26.92 35.26L26.28 34.86C25.74 34.5 25.39 34.24 25.39 34.24C24.3501 34.9959 23.2497 35.6648 22.1 36.24C21.6663 36.4583 21.2103 36.6293 20.74 36.75C19.8504 36.8505 18.9543 36.8806 18.06 36.84C16.69 35.84 19.11 29.68 19.16 29.39C19.16 29.39 13.66 24.91 13.95 22.81C14.26 20.62 20.95 20.39 20.95 20.39C20.95 20.39 21.55 13.39 23.33 11.78C23.56 11.58 24.71 11.78 24.95 11.78C25.58 11.78 26.25 12.64 26.86 13.78C27.8632 15.8914 28.67 18.0907 29.27 20.35C29.27 20.35 30.11 20.35 31.27 20.52C32.648 20.6384 33.9984 20.976 35.27 21.52C35.5529 21.6227 35.8078 21.7901 36.0144 22.0089C36.221 22.2277 36.3736 22.4917 36.46 22.78C36.7 24.2 34.32 26.78 32.78 28.19C31.99 28.96 31.44 29.42 31.44 29.42Z" fill="url(#paint3_linear_1_261)"/>
<path d="M33.71 25.47C33.65 25.55 33.59 25.64 33.52 25.72C33.0588 26.3076 32.5647 26.8685 32.04 27.4C31.75 27.71 31.45 28 31.18 28.26C30.44 28.96 29.89 29.42 29.89 29.42C29.89 29.42 30.19 30.84 30.37 32.42C30.6046 33.7026 30.5499 35.0213 30.21 36.28C30.1429 36.4462 30.0324 36.5912 29.89 36.7C29.7112 36.8159 29.5031 36.8783 29.29 36.88C28.29 36.88 26.61 36.02 25.39 35.26C25.16 35.12 24.94 34.99 24.76 34.86C24.21 34.5 23.86 34.24 23.86 34.24C22.8192 34.9946 21.719 35.6634 20.57 36.24C20.1386 36.4556 19.6862 36.6265 19.22 36.75C18.8921 36.8347 18.548 36.8347 18.22 36.75C18.1161 36.7251 18.0178 36.681 17.93 36.62C17.06 36 17.14 33.37 17.34 31.44C17.39 30.91 17.45 30.44 17.5 30.06C17.55 29.68 17.6 29.41 17.61 29.35C15.9037 27.9717 14.3724 26.39 13.05 24.64V24.64C12.7446 24.2126 12.5239 23.7305 12.4 23.22V23.22C12.3852 23.0871 12.3852 22.9529 12.4 22.82C12.4308 22.5983 12.5245 22.3901 12.67 22.22C13.6103 21.4041 14.781 20.9009 16.02 20.78C17.1424 20.5677 18.2787 20.4373 19.42 20.39C19.42 20.39 19.59 19.63 19.88 18.55C20.57 16.04 21.95 11.78 23.38 11.78C24.02 11.78 24.69 12.64 25.31 13.78C25.735 14.6064 26.109 15.458 26.43 16.33C27.21 18.4 27.74 20.33 27.74 20.33C27.74 20.33 28.59 20.33 29.74 20.5C31.1184 20.6162 32.4691 20.9539 33.74 21.5C34.0231 21.6071 34.2782 21.7771 34.486 21.9971C34.6939 22.217 34.8491 22.4813 34.94 22.77C34.8834 23.7925 34.4443 24.7563 33.71 25.47V25.47Z" fill="url(#paint4_linear_1_261)"/>
<path d="M5.28002 31.46C4.63002 28.65 10.88 32.21 6.81002 35.52C6.13405 34.2351 5.62013 32.8714 5.28002 31.46Z" fill="white"/>
<g style="mix-blend-mode:soft-light">
<path d="M31.28 0.589995C29.56 0.409995 39.83 4.59 42.28 12.03C44.6 19.2 49.59 16.92 49.59 16.92C49.59 16.92 45.56 1.24999 31.28 0.589995Z" fill="white"/>
</g>
<path d="M30.06 1.03998C30.06 1.03998 41.94 3.91998 44.82 18.94C47.49 32.86 37.04 43.37 37.04 43.37C41.8166 36.713 44.1384 28.6063 43.61 20.43C43.2952 16.2806 41.8715 12.292 39.4879 8.88107C37.1043 5.47012 33.8482 2.76207 30.06 1.03998V1.03998Z" fill="#FFE016"/>
<path d="M44.57 19.16C43.78 17.89 41.79 24.73 44.05 26.01C45.15 26.59 46.09 21.59 44.57 19.16Z" fill="white"/>
<g style="mix-blend-mode:soft-light" opacity="0.5">
<path d="M42.53 34.86C42.53 34.96 42.37 35.25 42.17 35.69C41.1746 37.845 39.904 39.8618 38.39 41.69C36.6627 43.8145 34.4965 45.5406 32.04 46.75C31.1122 47.1783 30.1441 47.5133 29.15 47.75C28.92 47.8 28.69 47.86 28.46 47.9C28.1 47.97 27.72 48.03 27.34 48.07H27.15H27C26.45 48.12 25.9 48.16 25.37 48.17H24.1C22.1121 48.1067 20.1472 47.7252 18.28 47.04H18.15C16.2094 46.3448 14.4302 45.263 12.92 43.86V43.86C14.8492 44.9807 16.8989 45.8797 19.03 46.54C20.6965 47.0276 22.4236 47.2767 24.16 47.28C24.7819 47.2708 25.4029 47.2274 26.02 47.15L26.53 47.07C28.4769 46.7284 30.3592 46.0875 32.11 45.17C36.4181 42.6943 40.0088 39.1415 42.53 34.86V34.86Z" fill="white"/>
</g>
<g style="mix-blend-mode:soft-light" opacity="0.5">
<path d="M33.71 25.47C33.65 25.55 33.59 25.64 33.52 25.72C33.0588 26.3075 32.5647 26.8684 32.04 27.4C30.1818 27.435 28.3347 27.6969 26.54 28.18C24.15 28.88 20.7 30.18 17.34 31.52C17.39 30.99 17.45 30.52 17.5 30.14C17.55 29.76 17.6 29.49 17.61 29.43C15.9037 28.0517 14.3724 26.47 13.05 24.72V24.72C12.7446 24.2926 12.5239 23.8105 12.4 23.3V23.3C12.3852 23.1671 12.3852 23.0329 12.4 22.9C12.4308 22.6783 12.5245 22.4701 12.67 22.3C13.6103 21.4841 14.781 20.9808 16.02 20.86C17.1424 20.6476 18.2787 20.5173 19.42 20.47C19.42 20.47 19.59 19.71 19.88 18.63C22.07 17.98 24.36 17.22 26.43 16.44C27.21 18.51 27.74 20.44 27.74 20.44C27.74 20.44 28.59 20.44 29.74 20.61C31.1184 20.7262 32.4691 21.0639 33.74 21.61C34.0231 21.7171 34.2782 21.887 34.486 22.107C34.6939 22.327 34.8491 22.5913 34.94 22.88C34.8569 23.8637 34.4199 24.7839 33.71 25.47V25.47Z" fill="white"/>
</g>
<path d="M15.63 36.88C15.63 36.88 25.13 44.25 32.63 37.29C32.59 37.29 24.43 45.91 15.63 36.88Z" fill="#FFE016"/>
<g style="mix-blend-mode:multiply" opacity="0.5">
<path d="M11.5 20.59C12.03 23.31 14.07 14.51 22.42 11.73C30.77 8.94999 36.85 21.11 36.85 21.11C36.85 21.11 35.48 9.10999 23.75 9.10999C14.59 9.11999 11.5 20.59 11.5 20.59Z" fill="#D42F55"/>
</g>
<g style="mix-blend-mode:multiply" opacity="0.7">
<path d="M31.44 29.42H29.9C31.4818 27.9905 32.9311 26.4207 34.23 24.73C35.77 22.56 36.23 23.91 36.23 23.91C35.0642 26.0809 33.4276 27.9636 31.44 29.42Z" fill="#DE376D"/>
</g>
<path d="M28.88 20.49C28.88 20.49 27.76 21.28 28.88 22.61C30 23.94 33.07 22.79 33.43 21.92C33.79 21.05 30.43 20.46 28.88 20.49Z" fill="white"/>
<g style="mix-blend-mode:soft-light">
<path d="M33.57 46.08C32.81 46.54 37.09 46.62 38.87 45.67C40.65 44.72 43.23 42.82 43.62 41.67C44.01 40.52 41.56 40.67 40.08 41.08C38.6 41.49 37.19 43.9 33.57 46.08Z" fill="white"/>
</g>
<path d="M44.06 31.87C42.63 31.4 40.63 34.41 41.66 36.87C42.69 39.33 47.33 32.94 44.06 31.87Z" fill="url(#paint5_linear_1_261)"/>
<g style="mix-blend-mode:multiply" opacity="0.7">
<path d="M41.82 34C41.69 35.82 43.82 35.93 44.67 35C45.52 34.07 45.47 31.9 43.88 31.85C42.29 31.8 41.82 34 41.82 34Z" fill="#DE376D"/>
</g>
<path d="M41.38 35.59C41.85 34.49 43.11 35.84 43.88 35.9C44.65 35.96 43.32 37.74 42.43 37.48C41.54 37.22 41.38 35.59 41.38 35.59Z" fill="#FF9500"/>
<path d="M39.29 32.65C37.85 32.19 36.41 34.36 37.01 35.82C37.61 37.28 41.81 33.45 39.29 32.65Z" fill="url(#paint6_linear_1_261)"/>
<g style="mix-blend-mode:multiply" opacity="0.7">
<path d="M38.71 32.59C38.4997 32.6734 38.3081 32.798 38.1466 32.9563C37.985 33.1147 37.8567 33.3038 37.7692 33.5124C37.6816 33.721 37.6366 33.945 37.6367 34.1713C37.6369 34.3975 37.6822 34.6215 37.77 34.83C38.16 35.27 40.06 34.73 40.13 33.71C40.2 32.69 39.05 32.48 38.71 32.59Z" fill="#DE376D"/>
</g>
<path d="M36.87 35.3C37.13 33.97 37.67 35.3 38.44 35.45C39.21 35.6 36.91 37.08 36.87 35.3Z" fill="#FF9500"/>
<path d="M14.79 13.51C13.62 13.11 12.57 14.92 13.12 16.14C13.67 17.36 16.83 14.2 14.79 13.51Z" fill="url(#paint7_linear_1_261)"/>
<g style="mix-blend-mode:multiply" opacity="0.7">
<path d="M14.28 13.45C14.1136 13.5291 13.9646 13.6405 13.8417 13.7776C13.7187 13.9148 13.6243 14.075 13.5638 14.249C13.5033 14.423 13.478 14.6073 13.4894 14.7912C13.5008 14.975 13.5485 15.1548 13.63 15.32C13.96 15.7 15.46 15.26 15.47 14.4C15.4654 14.2553 15.4295 14.1133 15.3646 13.9838C15.2998 13.8544 15.2076 13.7405 15.0944 13.6502C14.9812 13.5599 14.8498 13.4952 14.7092 13.4606C14.5686 13.426 14.4222 13.4224 14.28 13.45V13.45Z" fill="#DE376D"/>
</g>
<path d="M12.97 15.71C13.13 14.59 13.61 15.71 14.24 15.85C14.87 15.99 13.09 17.2 12.97 15.71Z" fill="#FF9500"/>
<g style="mix-blend-mode:multiply" opacity="0.8">
<path d="M45.94 8.59001L45.79 8.39001C45.85 8.43001 45.9 8.49001 45.94 8.59001Z" fill="#D42F55"/>
</g>
<g style="mix-blend-mode:multiply" opacity="0.8">
<path d="M45.79 8.33998C44.7637 7.10396 43.5764 6.01092 42.26 5.08998C39.1299 2.88594 35.5078 1.48173 31.71 0.999982C31.6437 0.990269 31.5763 0.990269 31.51 0.999982C30.8 0.899982 30.06 0.839977 29.3 0.799977H28.82C27.5826 0.761404 26.3441 0.791454 25.11 0.889981L24.24 0.98998C18.8631 1.52205 13.856 3.96705 10.13 7.87998C8.54163 9.525 7.24027 11.4247 6.28001 13.5C8.66001 7.62998 12.99 3.04998 18.38 1.08998C18.7065 0.963091 19.0405 0.856227 19.38 0.769979L19.71 0.589978H19.88C20.1933 0.509978 20.5033 0.439979 20.81 0.379979L21.35 0.279981C22.2905 0.110742 23.2444 0.0270662 24.2 0.0299808C25.1144 0.0320457 26.0271 0.105604 26.93 0.249982V0.249982L31.71 0.589978C37.32 0.729978 42.32 3.70998 45.79 8.33998Z" fill="#D42F55"/>
</g>
<path d="M35.13 1.70999C32.64 1.59999 37.81 5.70999 39.84 7.45999C41.87 9.20999 45.22 7.97999 45.33 7.80999C45.44 7.63999 40.16 1.93999 35.13 1.70999Z" fill="white"/>
</g>
<defs>
<linearGradient id="paint0_linear_1_261" x1="28.06" y1="48.28" x2="28.06" y2="0" gradientUnits="userSpaceOnUse">
<stop offset="0.05" stop-color="#FF3F00"/>
<stop offset="0.72" stop-color="#FF6A03"/>
<stop offset="1" stop-color="#FFFF04"/>
</linearGradient>
<linearGradient id="paint1_linear_1_261" x1="24.38" y1="48.28" x2="24.38" y2="1.37854e-05" gradientUnits="userSpaceOnUse">
<stop stop-color="#FFA900"/>
<stop offset="1" stop-color="#FF9600"/>
</linearGradient>
<linearGradient id="paint2_linear_1_261" x1="24.21" y1="40.87" x2="24.21" y2="9.18001" gradientUnits="userSpaceOnUse">
<stop stop-color="#FF7C04"/>
<stop offset="1" stop-color="#D92000"/>
</linearGradient>
<linearGradient id="paint3_linear_1_261" x1="29.87" y1="37.26" x2="20.92" y2="12.68" gradientUnits="userSpaceOnUse">
<stop stop-color="#EA5104"/>
<stop offset="1" stop-color="#D92000"/>
</linearGradient>
<linearGradient id="paint4_linear_1_261" x1="28.74" y1="37.15" x2="19.95" y2="13" gradientUnits="userSpaceOnUse">
<stop stop-color="#FF9600"/>
<stop offset="1" stop-color="#FFA900"/>
</linearGradient>
<linearGradient id="paint5_linear_1_261" x1="43.29" y1="37.46" x2="43.29" y2="31.82" gradientUnits="userSpaceOnUse">
<stop offset="0.04" stop-color="#EF6300"/>
<stop offset="1" stop-color="#E13E00"/>
</linearGradient>
<linearGradient id="paint6_linear_1_261" x1="38.48" y1="36.14" x2="38.48" y2="32.59" gradientUnits="userSpaceOnUse">
<stop offset="0.04" stop-color="#EF6300"/>
<stop offset="1" stop-color="#E13E00"/>
</linearGradient>
<linearGradient id="paint7_linear_1_261" x1="14.2133" y1="16.4309" x2="14.2445" y2="13.451" gradientUnits="userSpaceOnUse">
<stop offset="0.04" stop-color="#EF6300"/>
<stop offset="1" stop-color="#E13E00"/>
</linearGradient>
<clipPath id="clip0_1_261">
<rect width="57.68" height="65.29" fill="white"/>
</clipPath>
</defs>
</svg>
