<svg width="58" height="65" viewBox="0 0 58 65" fill="none" xmlns="http://www.w3.org/2000/svg">
<g clip-path="url(#clip0_1_359)">
<path d="M42.62 6.84998H15.05C6.73811 6.84998 0 13.5881 0 21.9V49.47C0 57.7819 6.73811 64.52 15.05 64.52H42.62C50.9319 64.52 57.67 57.7819 57.67 49.47V21.9C57.67 13.5881 50.9319 6.84998 42.62 6.84998Z" fill="#2B0038"/>
<path d="M57.68 19.61V47.17C57.6853 49.8419 56.9739 52.4664 55.62 54.77C55.62 54.77 55.62 54.77 55.62 54.84L55.55 54.93C55.55 54.93 55.55 54.93 55.55 54.99C55.29 55.38 55.03 55.76 54.76 56.13C54.1302 56.9579 53.4237 57.7246 52.65 58.42C49.9111 60.8441 46.3776 62.1785 42.72 62.17H15.06C12.6246 62.1745 10.2248 61.5859 8.06781 60.4552C5.91085 59.3244 4.06166 57.6855 2.67999 55.68C2.67999 55.68 2.67999 55.68 2.67999 55.68C0.934899 53.1854 -0.000724017 50.2144 4.20372e-07 47.17V19.61C0.0132374 15.6254 1.60606 11.8087 4.42921 8.9968C7.25237 6.18489 11.0754 4.60731 15.06 4.60998H42.64C44.6132 4.60472 46.568 4.98882 48.3925 5.74028C50.217 6.49175 51.8753 7.59581 53.2725 8.98921C54.6696 10.3826 55.778 12.038 56.5344 13.8605C57.2907 15.683 57.68 17.6368 57.68 19.61Z" fill="#46056D"/>
<g style="mix-blend-mode:soft-light" opacity="0.2">
<path d="M1.45 53.62C1.75 40.5 20.11 57.35 32.17 57.35C44.23 57.35 49.86 44.07 54.63 46.01C59.4 47.95 54.37 58.77 45.73 61.09C37.09 63.41 15.96 62.36 10.52 61.54C5.07999 60.72 1.45 53.62 1.45 53.62Z" fill="white"/>
</g>
<g style="mix-blend-mode:soft-light">
<path d="M55.58 54.86C55.5624 54.9083 55.5352 54.9525 55.5 54.99C55.5 54.99 55.5 54.99 55.5 55.05C55.2567 55.4435 54.993 55.824 54.71 56.19C54.0801 57.0179 53.3737 57.7846 52.6 58.48C49.8611 60.9041 46.3276 62.2385 42.67 62.23H15.06C12.6246 62.2345 10.2248 61.6459 8.06781 60.5152C5.91085 59.3844 4.06166 57.7455 2.67999 55.74C2.67999 55.74 2.67999 55.74 2.67999 55.74C2.56999 55.52 2.5 55.39 2.48 55.33C2.89 55.66 11.25 62.17 31.04 62.17C49.45 62.17 54.7 56.17 55.53 54.99L55.58 54.86Z" fill="#BF77D8"/>
</g>
<path d="M52.28 23.56C52.2872 26.5926 51.7835 29.6047 50.79 32.47C50.4836 33.3514 50.1229 34.2131 49.71 35.05V35.05C48.9024 36.7283 47.8951 38.3031 46.71 39.74L46.66 39.79C46.1579 40.3948 45.6238 40.9723 45.06 41.52L45 41.58C44.2072 42.3124 43.3579 42.9811 42.46 43.58L42.38 43.63C39.7482 45.4131 36.667 46.4182 33.49 46.53H33H32.32H31.96H31.63H31.26H31.05C29.99 46.4022 28.945 46.1711 27.93 45.84C27.2684 45.6265 26.6205 45.3727 25.99 45.08C18.8 41.73 13.71 33.37 13.71 23.6C13.7081 21.9501 13.8553 20.3034 14.15 18.68C15.57 10.9 20.28 4.56998 26.46 1.91998C27.8391 1.32657 29.2924 0.922893 30.78 0.719975H30.94H31.05C31.65 0.649975 32.26 0.609976 32.87 0.599976H33.34C35.9187 0.703402 38.4445 1.36384 40.7438 2.53592C43.043 3.70801 45.0613 5.36395 46.66 7.38997L46.81 7.55997L46.88 7.63997C50.4327 12.181 52.3368 17.7946 52.28 23.56Z" fill="url(#paint0_linear_1_359)"/>
<path d="M34.28 46.54L33.49 46.6H33.43L29.25 46.9H29.12L27.27 47.03L26.05 47.12H25.97V45.04L26.27 18.12L26.44 1.88V0.81V0L28.95 0.2L33.29 0.52V1.65L33.52 13.1L34.14 43.64V45.23V45.44V46.06V46.54H34.28Z" fill="url(#paint1_linear_1_359)"/>
<path d="M46.21 23.56C46.2196 26.6859 45.6954 29.7906 44.66 32.74V32.74C44.66 32.84 44.52 33.14 44.34 33.59C44.26 33.81 44.17 34.03 44.08 34.24C43.2213 36.2577 42.0909 38.1486 40.72 39.86C40.5267 40.1 40.3367 40.33 40.15 40.55C38.5027 42.4522 36.5111 44.0264 34.28 45.19C33.2536 45.7136 32.1785 46.1356 31.07 46.45L30.15 46.68C29.9 46.74 29.64 46.8 29.38 46.84H29.28C28.3645 46.9922 27.4381 47.0691 26.51 47.07H26C24.1628 47.0077 22.3485 46.6428 20.63 45.99L19.96 45.74L19.82 45.68C17.8725 44.8252 16.0786 43.6564 14.51 42.22C13.2489 41.0543 12.1279 39.7454 11.17 38.32V38.32C8.28106 33.9394 6.76315 28.7973 6.81 23.55C6.76724 19.6748 7.5549 15.8354 9.12 12.29L9.29999 11.94C10.4237 9.41578 12.0413 7.14203 14.0576 5.25283C16.0739 3.36363 18.448 1.89721 21.04 0.940029C21.34 0.830029 21.64 0.740029 21.95 0.660029C22.1075 0.610653 22.2678 0.570584 22.43 0.540029C22.72 0.460029 23 0.400029 23.29 0.350029L23.79 0.270029C25.4852 -0.00976883 27.2148 -0.00976883 28.91 0.270029V0.270029C29.6023 0.371461 30.2871 0.518446 30.96 0.710029H31.04L31.81 0.960029H31.86C32.33 1.13003 32.81 1.31003 33.27 1.51003C40.86 4.81003 46.21 13.44 46.21 23.56Z" fill="url(#paint2_linear_1_359)"/>
<g style="mix-blend-mode:multiply" opacity="0.2">
<path d="M38.22 6.16999C38.09 7.07999 36.47 10.17 33.6 13.11C31.5431 15.2734 29.052 16.9774 26.29 18.11C25.0062 18.6169 23.6614 18.9531 22.29 19.11C19.5713 19.5073 16.7997 19.3371 14.15 18.61C10.31 17.45 8.69 15.15 8.8 14.12C9.93415 11.4968 11.4212 9.04077 13.22 6.81999C15.2717 4.17074 18.0013 2.12528 21.12 0.899989V0.899989C21.42 0.789989 21.72 0.69999 22.03 0.61999C22.1379 0.582834 22.2482 0.552769 22.36 0.52999C22.4099 0.525292 22.4601 0.525292 22.51 0.52999C22.8 0.44999 23.08 0.38999 23.37 0.33999L23.87 0.25999C24.7334 0.127156 25.6065 0.0669447 26.48 0.0799898C27.9006 0.0994148 29.3126 0.304487 30.68 0.68999C30.7126 0.679965 30.7474 0.679965 30.78 0.68999C31.6695 0.951207 32.5358 1.28569 33.37 1.68999C33.74 1.85999 34.1 2.05999 34.44 2.24999C34.78 2.43999 35.21 2.71999 35.64 3.00999C37.36 4.16999 38.31 5.47999 38.22 6.16999Z" fill="#F42774"/>
</g>
<g style="mix-blend-mode:soft-light">
<path d="M8.54998 32.51C9.38998 34 22.68 27.83 28.82 26.02C34.96 24.21 44.52 26.13 45.36 25.39C46.2 24.65 45.25 14.17 41.73 9.16998C38.21 4.16998 38.32 9.43998 34.73 11.93C31.14 14.42 16.57 18.83 13.46 18.5C10.35 18.17 9.34999 16.75 8.17999 16.92C7.00999 17.09 4.55998 25.39 8.54998 32.51Z" fill="white"/>
</g>
<path d="M39.12 23.56C39.12 31.73 33.9 38.42 27.27 39.02C26.95 39.02 26.63 39.02 26.27 39.02C19.19 39.02 13.45 32.08 13.45 23.51C13.45 14.94 19.19 8.01001 26.27 8.01001C26.6 8.01001 26.92 8.01001 27.27 8.06001C33.91 8.71001 39.12 15.4 39.12 23.56Z" fill="url(#paint3_linear_1_359)"/>
<path d="M39.12 23.56C39.12 31.73 33.9 38.42 27.27 39.02C20.64 38.43 15.41 31.74 15.41 23.56C15.41 15.38 20.64 8.69999 27.27 8.10999C33.91 8.70999 39.12 15.4 39.12 23.56Z" fill="#FF6B04"/>
<path d="M7.41 29.31C6.93 26.49 12.95 30.06 8.69998 33.45C8.09325 32.1314 7.65968 30.7399 7.41 29.31V29.31Z" fill="white"/>
<g style="mix-blend-mode:soft-light">
<path d="M33 0.519977C31.41 0.379977 41 3.98998 43.46 10.66C45.92 17.33 50.65 15.17 50.65 15.17C50.65 15.17 46.12 1.07998 33 0.519977Z" fill="white"/>
</g>
<g style="mix-blend-mode:multiply" opacity="0.7">
<path d="M50.79 32.47C50.5357 33.3705 50.1731 34.2369 49.71 35.05V35.05C48.7553 36.8665 47.6196 38.5819 46.32 40.17V40.17C45.92 40.65 45.51 41.11 45.09 41.55L45.03 41.61C44.271 42.381 43.4175 43.053 42.49 43.61L42.41 43.66C39.8843 45.0069 37.1434 45.9036 34.31 46.31C33.37 46.46 32.67 46.53 32.31 46.55H32.1H31.95C31.9002 46.5564 31.8498 46.5564 31.8 46.55C31.6 46.4 32.65 46.2 34.25 45.46C37.04 44.19 41.51 41.3 44.05 34.3C44.05 34.3 49.35 31.41 50.64 31.66C50.87 31.68 50.91 31.98 50.79 32.47Z" fill="#DE376D"/>
</g>
<path d="M31.87 0.900024C31.87 0.900024 42.87 3.40002 46.21 17.06C49.55 30.72 39.37 41.74 39.37 41.74C43.9235 34.887 45.956 26.6654 45.12 18.48C44.6413 14.6471 43.1659 11.0066 40.8409 7.9219C38.516 4.83719 35.4228 2.41605 31.87 0.900024V0.900024Z" fill="#FFE016"/>
<path d="M45.98 17.27C45.16 16.07 43.51 22.63 45.78 23.88C46.89 24.49 47.56 19.59 45.98 17.27Z" fill="white"/>
<g style="mix-blend-mode:soft-light" opacity="0.5">
<path d="M44.64 32.78C44.64 32.88 44.5 33.18 44.32 33.63C43.3925 35.8692 42.1755 37.9772 40.7 39.9C38.9864 42.1844 36.7868 44.0595 34.26 45.39C33.3025 45.8686 32.2969 46.2441 31.26 46.51L30.55 46.68C30.18 46.76 29.79 46.83 29.39 46.88H29.19H29.04C28.46 46.94 27.88 46.98 27.34 46.99C26.89 46.99 26.46 46.99 26.04 46.99C23.9849 46.9138 21.957 46.4947 20.04 45.75L19.9 45.69C17.906 44.9237 16.0965 43.7446 14.59 42.23C14.59 42.23 14.59 42.23 14.59 42.23C16.4912 43.4506 18.5326 44.4378 20.67 45.17C22.3882 45.7109 24.1786 45.9874 25.98 45.99C26.6324 45.9791 27.2836 45.929 27.93 45.84C28.1 45.84 28.28 45.79 28.45 45.75C30.4742 45.3827 32.4239 44.6832 34.22 43.68C40.82 39.99 44.35 33.33 44.64 32.78Z" fill="white"/>
</g>
<path d="M17.54 34.86C17.54 34.86 27.1 42.7 34.69 35.29C34.69 35.29 26.36 44.5 17.54 34.86Z" fill="#FFE016"/>
<g style="mix-blend-mode:multiply" opacity="0.5">
<path d="M14.06 18.61C14.46 21.23 16.74 12.9 24.72 10.36C32.7 7.82003 38.59 19.11 38.59 19.11C38.59 19.11 37.02 8.02003 26.01 8.02003C17.4 8.01003 14.06 18.61 14.06 18.61Z" fill="#D42F55"/>
</g>
<g style="mix-blend-mode:soft-light">
<path d="M35.84 44.69C35.05 45.2 39.5 45.29 41.32 44.25C43.14 43.21 45.71 41.15 46.05 39.89C46.39 38.63 43.9 38.89 42.4 39.26C40.9 39.63 39.53 42.32 35.84 44.69Z" fill="white"/>
</g>
<path d="M46.05 29.72C44.6 29.25 42.72 32.31 43.85 34.89C44.98 37.47 49.37 30.8 46.05 29.72Z" fill="url(#paint4_linear_1_359)"/>
<g style="mix-blend-mode:multiply" opacity="0.7">
<path d="M43.9 31.89C43.84 33.76 46.01 33.89 46.8 32.89C47.59 31.89 47.46 29.72 45.86 29.67C44.26 29.62 43.9 31.89 43.9 31.89Z" fill="#DE376D"/>
</g>
<path d="M43.52 33.5C43.95 32.38 45.27 33.76 46.05 33.82C46.83 33.88 45.57 35.75 44.66 35.47C43.75 35.19 43.52 33.5 43.52 33.5Z" fill="#FF9500"/>
<path d="M41.32 30.51C39.87 30.05 38.48 32.26 39.13 33.76C39.78 35.26 43.86 31.32 41.32 30.51Z" fill="url(#paint5_linear_1_359)"/>
<g style="mix-blend-mode:multiply" opacity="0.7">
<path d="M40.68 30.45C40.4705 30.5409 40.2814 30.6728 40.1237 30.8379C39.966 31.003 39.843 31.1981 39.7619 31.4115C39.6808 31.6249 39.6433 31.8524 39.6516 32.0806C39.6598 32.3088 39.7137 32.533 39.81 32.74C40.21 33.2 42.11 32.64 42.15 31.59C42.1494 31.4107 42.108 31.2338 42.0288 31.0729C41.9496 30.912 41.8348 30.7713 41.6931 30.6614C41.5514 30.5515 41.3865 30.4753 41.211 30.4387C41.0354 30.4021 40.8538 30.4059 40.68 30.45V30.45Z" fill="#DE376D"/>
</g>
<path d="M38.96 33.23C39.19 31.86 39.77 33.23 40.55 33.39C41.33 33.55 39.06 35.07 38.96 33.23Z" fill="#FF9500"/>
<path d="M17.46 12C16.36 11.64 15.29 13.3 15.77 14.44C16.25 15.58 19.38 12.63 17.46 12Z" fill="url(#paint6_linear_1_359)"/>
<g style="mix-blend-mode:multiply" opacity="0.7">
<path d="M16.98 11.95C16.8208 12.0164 16.6766 12.1139 16.5558 12.237C16.435 12.36 16.3401 12.5061 16.2767 12.6664C16.2133 12.8268 16.1828 12.9982 16.1867 13.1706C16.1907 13.3429 16.2292 13.5128 16.3 13.67C16.6 14.02 18.04 13.62 18.07 12.82C18.0724 12.6853 18.0438 12.5518 17.9864 12.4299C17.929 12.308 17.8444 12.2008 17.7391 12.1168C17.6338 12.0327 17.5106 11.974 17.3789 11.9451C17.2473 11.9161 17.1108 11.9178 16.98 11.95V11.95Z" fill="#DE376D"/>
</g>
<path d="M15.65 14.04C15.84 13.04 16.26 14.04 16.86 14.17C17.46 14.3 15.71 15.43 15.65 14.04Z" fill="#FF9500"/>
<g style="mix-blend-mode:multiply" opacity="0.8">
<path d="M46.81 7.49001L46.66 7.32001L46.81 7.49001Z" fill="#D42F55"/>
</g>
<g style="mix-blend-mode:multiply" opacity="0.8">
<path d="M46.66 7.32002C45.6518 6.21078 44.5019 5.2391 43.24 4.43002C43.24 4.43002 43.24 4.43002 43.24 4.43002C40.2651 2.5068 36.8884 1.29227 33.37 0.880017H33.18C32.53 0.810017 31.85 0.750017 31.18 0.710017H30.73C29.596 0.672946 28.4609 0.699654 27.33 0.790017L26.53 0.870017C21.5603 1.31932 16.888 3.43351 13.27 6.87002C11.7118 8.3474 10.4017 10.0661 9.38998 11.96C10.5137 9.43576 12.1313 7.16202 14.1476 5.27282C16.1639 3.38362 18.538 1.9172 21.13 0.960017V0.960017C21.43 0.850017 21.73 0.760018 22.04 0.680018C22.1479 0.642861 22.2582 0.612797 22.37 0.590017C22.4199 0.58532 22.4701 0.58532 22.52 0.590017C22.81 0.510017 23.09 0.450017 23.38 0.400017L23.88 0.320017C25.5752 0.040219 27.3048 0.040219 29 0.320017V0.320017L33.34 0.640018C35.9103 0.728787 38.431 1.3716 40.7299 2.52451C43.0289 3.67741 45.0516 5.3132 46.66 7.32002V7.32002Z" fill="#D42F55"/>
</g>
<g style="mix-blend-mode:multiply" opacity="0.8">
<path d="M46.67 39.8C46.1679 40.4048 45.6339 40.9823 45.07 41.53L45.01 41.59C44.251 42.361 43.3975 43.033 42.47 43.59L42.39 43.64C39.7582 45.4231 36.677 46.4282 33.5 46.54H33.44L29.26 46.84C28.3445 46.9922 27.4181 47.0691 26.49 47.07H25.98C24.1428 47.0077 22.3284 46.6428 20.61 45.99L19.94 45.74L19.8 45.68C17.806 44.9137 15.9964 43.7346 14.49 42.22C13.2288 41.0543 12.1079 39.7454 11.15 38.32C13.8187 41.2334 17.0595 43.5653 20.67 45.17C22.3622 45.9107 24.1494 46.4122 25.98 46.66C27.351 46.8595 28.741 46.893 30.12 46.76V46.76H30.5L31.58 46.63H31.76C32.62 46.5 33.44 46.34 34.23 46.16C38.6604 45.222 42.7857 43.1903 46.23 40.25V40.25C46.3875 40.111 46.5346 39.9606 46.67 39.8V39.8Z" fill="#D42F55"/>
</g>
<path d="M36.55 1.48001C34.25 1.38001 39.12 4.97001 41.06 6.48001C43 7.99001 46.12 6.94001 46.21 6.79001C46.3 6.64001 41.19 1.68001 36.55 1.48001Z" fill="white"/>
<path d="M38.95 23.43C38.67 20.83 32.29 10.85 25.27 12.63C19.11 14.19 15.39 21.53 15.59 25.35C15.67 26.75 19.23 33.78 26.42 33.8C33.61 33.82 39.23 26.03 38.95 23.43ZM26.3 29.67C20.13 29.67 18.55 25.46 18.2 24.75C17.55 23.4 20.65 18.07 25.85 17.44C31.05 16.81 35.16 22.11 35.29 23.56C35.42 25.01 32.33 29.67 26.3 29.67Z" fill="url(#paint7_linear_1_359)"/>
<path d="M30.73 23.4C30.73 26.4 28.73 28.75 26.27 28.75C23.81 28.75 21.8 26.35 21.8 23.4C21.8 20.45 23.8 18.06 26.27 18.06C28.74 18.06 30.73 20.45 30.73 23.4Z" fill="url(#paint8_linear_1_359)"/>
<path d="M31.12 14.52C28.97 12.92 26.46 11.97 23.86 12.63C20.6709 13.5903 17.972 15.738 16.32 18.63C14.9653 20.6166 14.2024 22.9469 14.12 25.35C14.7148 27.4951 15.9413 29.4115 17.64 30.85C19.6033 32.742 22.2137 33.8148 24.94 33.85C31.38 33.85 36.57 27.62 37.37 24.45C37.4743 24.1276 37.5117 23.7874 37.48 23.45C37.32 21.79 34.72 17.22 31.12 14.52ZM24.85 29.67C24.3486 29.6721 23.8476 29.642 23.35 29.58C21.9085 29.4673 20.5271 28.9545 19.3611 28.0995C18.1951 27.2444 17.2908 26.081 16.75 24.74C16.31 23.85 17.52 21.24 19.88 19.37C21.1822 18.3261 22.7454 17.6586 24.4 17.44C25.1396 17.3505 25.8887 17.3775 26.62 17.52C30.72 18.29 33.72 22.32 33.84 23.52C33.6512 24.7844 33.0077 25.9364 32.03 26.76C31.0869 27.6983 29.9661 28.4389 28.7332 28.9386C27.5004 29.4383 26.1802 29.6869 24.85 29.67V29.67Z" fill="url(#paint9_linear_1_359)"/>
<path d="M29.03 23.41C29.03 26.35 27.03 28.75 24.64 28.75C22.25 28.75 20.25 26.35 20.25 23.41C20.2303 22.6257 20.3699 21.8455 20.6604 21.1167C20.9509 20.388 21.3862 19.7257 21.94 19.17C22.6592 18.4571 23.6274 18.0518 24.64 18.04C24.84 18.04 25.04 18.04 25.24 18.04C27.38 18.46 29.03 20.7 29.03 23.41Z" fill="url(#paint10_linear_1_359)"/>
<g style="mix-blend-mode:multiply" opacity="0.5">
<path d="M16.91 24.31C17.03 25.31 19.32 19.73 23.67 18.24C28.02 16.75 33.36 22.4 33.36 22.4C32.5034 20.8858 31.261 19.6254 29.7592 18.7472C28.2574 17.8689 26.5497 17.4041 24.81 17.4C18.62 17.24 16.91 24.31 16.91 24.31Z" fill="#D42F55"/>
</g>
<g style="mix-blend-mode:soft-light">
<path d="M23.35 29.58C21.4865 30.1403 19.5849 30.5647 17.66 30.85C15.9613 29.4115 14.7347 27.4951 14.14 25.35C14.2035 22.9573 14.9419 20.6313 16.27 18.64C17.4153 19.1129 18.641 19.3607 19.88 19.37C17.52 21.24 16.31 23.85 16.75 24.74C17.2908 26.081 18.1951 27.2444 19.3611 28.0994C20.5271 28.9545 21.9085 29.4673 23.35 29.58V29.58Z" fill="white"/>
</g>
<g style="mix-blend-mode:soft-light">
<path d="M29.28 23.41C29.28 26.35 27.28 28.75 24.81 28.75C22.34 28.75 20.35 26.35 20.35 23.41C20.3395 22.6198 20.4911 21.8359 20.7956 21.1066C21.1 20.3773 21.5508 19.7182 22.12 19.17C23.2753 18.9385 24.3996 18.5727 25.47 18.08C27.6 18.46 29.28 20.7 29.28 23.41Z" fill="white"/>
</g>
<g style="mix-blend-mode:soft-light">
<path d="M37.5 23.43C37.5318 23.7674 37.4943 24.1076 37.39 24.43C35.6833 25.3978 33.8886 26.2014 32.03 26.83C33.0077 26.0064 33.6512 24.8544 33.84 23.59C33.72 22.35 30.72 18.32 26.62 17.59C28.1791 16.7073 29.667 15.7043 31.07 14.59C34.72 17.22 37.32 21.79 37.5 23.43Z" fill="white"/>
</g>
<path d="M31.66 14.98C31.5298 15.3834 31.4992 15.8124 31.5705 16.2303C31.6419 16.6482 31.8133 17.0426 32.07 17.38C32.3353 17.8028 32.7492 18.1112 33.2303 18.2444C33.7114 18.3776 34.2249 18.3261 34.67 18.1C34.67 18.1 33.06 15.38 31.66 14.98Z" fill="white"/>
</g>
<defs>
<linearGradient id="paint0_linear_1_359" x1="32.99" y1="46.61" x2="32.99" y2="0.519975" gradientUnits="userSpaceOnUse">
<stop offset="0.05" stop-color="#FF3F00"/>
<stop offset="0.72" stop-color="#FF6A03"/>
<stop offset="1" stop-color="#FFFF04"/>
</linearGradient>
<linearGradient id="paint1_linear_1_359" x1="30.13" y1="47.13" x2="30.13" y2="0" gradientUnits="userSpaceOnUse">
<stop offset="0.05" stop-color="#FF3F00"/>
<stop offset="0.72" stop-color="#FF6A03"/>
<stop offset="1" stop-color="#FFFF04"/>
</linearGradient>
<linearGradient id="paint2_linear_1_359" x1="26.49" y1="47.13" x2="26.49" y2="2.79725e-05" gradientUnits="userSpaceOnUse">
<stop stop-color="#FFA900"/>
<stop offset="1" stop-color="#FF9600"/>
</linearGradient>
<linearGradient id="paint3_linear_1_359" x1="26.31" y1="39.07" x2="26.31" y2="8.06001" gradientUnits="userSpaceOnUse">
<stop stop-color="#FF7C04"/>
<stop offset="1" stop-color="#D92000"/>
</linearGradient>
<linearGradient id="paint4_linear_1_359" x1="45.39" y1="35.48" x2="45.39" y2="29.67" gradientUnits="userSpaceOnUse">
<stop offset="0.04" stop-color="#EF6300"/>
<stop offset="1" stop-color="#E13E00"/>
</linearGradient>
<linearGradient id="paint5_linear_1_359" x1="40.55" y1="34.1" x2="40.55" y2="30.45" gradientUnits="userSpaceOnUse">
<stop offset="0.04" stop-color="#EF6300"/>
<stop offset="1" stop-color="#E13E00"/>
</linearGradient>
<linearGradient id="paint6_linear_1_359" x1="16.8636" y1="14.7001" x2="16.8925" y2="11.9403" gradientUnits="userSpaceOnUse">
<stop offset="0.04" stop-color="#EF6300"/>
<stop offset="1" stop-color="#E13E00"/>
</linearGradient>
<linearGradient id="paint7_linear_1_359" x1="30.42" y1="33.02" x2="23.25" y2="13.31" gradientUnits="userSpaceOnUse">
<stop stop-color="#EA5104"/>
<stop offset="1" stop-color="#D92000"/>
</linearGradient>
<linearGradient id="paint8_linear_1_359" x1="28.06" y1="28.34" x2="24.47" y2="18.47" gradientUnits="userSpaceOnUse">
<stop stop-color="#EA5104"/>
<stop offset="1" stop-color="#D92000"/>
</linearGradient>
<linearGradient id="paint9_linear_1_359" x1="28.96" y1="33.02" x2="21.79" y2="13.31" gradientUnits="userSpaceOnUse">
<stop stop-color="#FF9600"/>
<stop offset="1" stop-color="#FFA900"/>
</linearGradient>
<linearGradient id="paint10_linear_1_359" x1="26.43" y1="28.33" x2="22.85" y2="18.48" gradientUnits="userSpaceOnUse">
<stop stop-color="#FF9600"/>
<stop offset="1" stop-color="#FFA900"/>
</linearGradient>
<clipPath id="clip0_1_359">
<rect width="57.68" height="64.52" fill="white"/>
</clipPath>
</defs>
</svg>
