<svg width="58" height="63" viewBox="0 0 58 63" fill="none" xmlns="http://www.w3.org/2000/svg">
<g clip-path="url(#clip0_1_406)">
<path d="M42.62 4.58997H15.05C6.73811 4.58997 0 11.3281 0 19.64V47.21C0 55.5219 6.73811 62.26 15.05 62.26H42.62C50.9319 62.26 57.67 55.5219 57.67 47.21V19.64C57.67 11.3281 50.9319 4.58997 42.62 4.58997Z" fill="#2B0038"/>
<path d="M57.67 17.35V44.93C57.6724 47.6016 56.9612 50.2253 55.61 52.53V52.59C55.61 52.59 55.61 52.65 55.55 52.69C55.5541 52.7098 55.5541 52.7302 55.55 52.75C55.3 53.14 55.04 53.52 54.76 53.89C54.1328 54.7201 53.4261 55.4871 52.65 56.18C49.9111 58.6041 46.3776 59.9385 42.72 59.93H15.06C12.6265 59.9406 10.227 59.3589 8.06841 58.2352C5.90985 57.1115 4.0571 55.4795 2.67001 53.48C0.932013 50.983 0.00342447 48.0122 0.0100141 44.97V17.35C0.023251 13.3654 1.61609 9.54871 4.43924 6.7368C7.26239 3.9249 11.0854 2.34731 15.07 2.34998H42.67C46.6483 2.34998 50.4636 3.93034 53.2766 6.74338C56.0897 9.55643 57.67 13.3717 57.67 17.35V17.35Z" fill="#46056D"/>
<g style="mix-blend-mode:soft-light" opacity="0.2">
<path d="M1.45999 51.36C1.75999 38.24 20.11 55.09 32.17 55.09C44.23 55.09 49.86 41.81 54.63 43.74C59.4 45.67 54.37 56.51 45.73 58.83C37.09 61.15 15.96 60.09 10.52 59.28C5.07999 58.47 1.45999 51.36 1.45999 51.36Z" fill="white"/>
</g>
<g style="mix-blend-mode:soft-light">
<path d="M55.58 52.59C55.565 52.6424 55.5375 52.6904 55.5 52.73C55.5041 52.7498 55.5041 52.7702 55.5 52.79C55.2603 53.1858 54.9964 53.5665 54.71 53.93C54.0828 54.7601 53.3761 55.527 52.6 56.22C49.8611 58.6441 46.3276 59.9785 42.67 59.97H15.06C12.623 59.9761 10.2211 59.3883 8.06226 58.2575C5.90343 57.1267 4.05264 55.4869 2.67001 53.48C2.59698 53.348 2.53348 53.211 2.48001 53.07C2.89001 53.4 11.24 59.9 31.04 59.9C49.44 59.9 54.69 53.9 55.53 52.73C55.54 52.65 55.57 52.62 55.58 52.59Z" fill="#BF77D8"/>
</g>
<path d="M50.93 28.63C49.52 41.63 40.63 51.04 30.93 51.04C30.4155 51.0435 29.9013 51.0168 29.39 50.96C28.8492 50.9109 28.3116 50.8307 27.78 50.72C19.51 49 12.58 40.26 11.7 28.63C10.7 15.63 17.54 3.44 27.78 0.769999C29.0839 0.416709 30.4291 0.23848 31.78 0.24C43.49 0.24 51.78 12.67 51.08 26.7C51.05 27.37 51 28 50.93 28.63Z" fill="url(#paint0_linear_1_406)"/>
<path d="M24.67 51.05C24.67 51.05 31.1 51.93 34.67 50.6L36.45 1.13999C36.45 1.13999 34.27 -0.660002 23.07 0.259998L24.67 51.05Z" fill="url(#paint1_linear_1_406)"/>
<path d="M43.88 28.63C43 40.26 36.06 49 27.79 50.72C26.7536 50.9333 25.6981 51.0406 24.64 51.04C18.1 51.04 12.07 46.86 8.35 40.32C8.28 40.2 8.22 40.08 8.16 39.99C8.1 39.9 7.96 39.62 7.96 39.62C6.17111 36.1963 5.05113 32.463 4.65999 28.62C3.04999 13.83 11.52 0.229987 23.79 0.229987C25.1409 0.228704 26.486 0.406929 27.79 0.759986C38.03 3.43999 44.87 15.59 43.88 28.63Z" fill="url(#paint2_linear_1_406)"/>
<path d="M35.44 28.63C35.14 36.87 30.03 43.14 23.87 43.54C23.66 43.54 23.44 43.54 23.22 43.54C16.77 43.54 11.01 37.13 10.31 28.61C9.55 19.36 14.97 11.25 22.48 11.25C22.7298 11.2348 22.9802 11.2348 23.23 11.25C30.38 11.88 35.76 19.71 35.44 28.63Z" fill="url(#paint3_linear_1_406)"/>
<path d="M35.44 28.63C35.14 36.87 30.03 43.14 23.87 43.54C17.67 43.14 12.33 36.88 11.67 28.63C10.99 19.7 16.07 11.84 23.19 11.31C30.38 11.88 35.76 19.71 35.44 28.63Z" fill="url(#paint4_linear_1_406)"/>
<g style="mix-blend-mode:multiply" opacity="0.5">
<path d="M11.25 20.65C11.25 20.65 12.04 21.87 12.5 21.26C12.96 20.65 15.12 14.06 22.3 13.26C29.48 12.46 34.36 21.26 34.36 21.26C34.36 21.26 30.53 10.84 22.21 11.26C13.89 11.68 11.25 20.65 11.25 20.65Z" fill="#D42F55"/>
</g>
<g style="mix-blend-mode:soft-light">
<path d="M6.07 17.66C5.98 21.15 9.69 20.44 10.19 20.29C10.69 20.14 13.4 13.73 19.19 11.03C24.98 8.32995 30.5 13.32 32.4 15.84C34.3 18.36 39.56 14 39.97 11.93C40.38 9.85996 30.88 -1.59005 19.77 1.41995C8.95 4.34995 6.07 17.66 6.07 17.66Z" fill="white"/>
</g>
<g style="mix-blend-mode:multiply" opacity="0.2">
<path d="M5.92 19.63C4.34 19.71 4.66 27.17 5.24 29.99C5.82 32.81 8.89 31.61 9.46 30.66C10.03 29.71 10.31 21.8 10.4 21.2C10.49 20.6 9.4 20.78 7.93 20.65C6.46 20.52 6.29 19.61 5.92 19.63Z" fill="#DA0553"/>
</g>
<g style="mix-blend-mode:multiply" opacity="0.2">
<path d="M34.48 17.26C33.48 17.74 35.16 23.47 36.16 27.07C37.16 30.67 40.95 25.96 42.47 26.18C43.99 26.4 42.19 14.81 41.15 13.81C40.11 12.81 37.98 16.36 34.48 17.26Z" fill="#DA0553"/>
</g>
<g style="mix-blend-mode:soft-light">
<path d="M17.28 48.55C13.94 44.27 21.57 45.68 26.42 43.55C31.27 41.42 33.42 37.96 34.71 36.82C36 35.68 39.87 39.47 39.46 41.17C39.05 42.87 31.22 54.88 17.28 48.55Z" fill="#FF973B"/>
</g>
<g style="mix-blend-mode:multiply" opacity="0.3">
<path d="M32.32 1.41998C31.57 1.41998 39.09 7.81999 40.99 11.11C42.89 14.4 43.87 18.11 44.62 18.9C45.37 19.69 50.13 18.58 50.13 18.58C50.13 18.58 49.13 11.42 44.63 6.45999C39.92 1.27999 32.32 1.41998 32.32 1.41998Z" fill="#B30053"/>
</g>
<g style="mix-blend-mode:multiply" opacity="0.3">
<path d="M34.75 47.95C33.75 48.95 38.12 48.73 38.62 48.55C39.12 48.37 45.02 45.14 46.75 41.16C48.55 37.01 43.88 36.88 43.01 36.87C42.14 36.86 40.72 40.87 37.78 44.42C34.84 47.97 34.75 47.95 34.75 47.95Z" fill="#B30053"/>
</g>
<g style="mix-blend-mode:soft-light">
<path d="M44.08 19.63C43.32 19.63 44.25 25.21 44.33 29.56C44.41 33.73 50.33 32.22 50.44 31.72C50.7519 29.0051 50.8789 26.2721 50.82 23.54C50.65 21.04 51.29 19.1 49.34 19.08C47.5762 19.1433 45.8188 19.3271 44.08 19.63Z" fill="white"/>
</g>
<path d="M15.39 40.14C14.48 37.35 15.78 40.54 19.9 42.45C24.02 44.36 29.01 42.45 31.13 39.9C30.1618 41.0308 28.9643 41.9428 27.6167 42.5755C26.2692 43.2082 24.8026 43.5471 23.3141 43.5698C21.8256 43.5925 20.3493 43.2984 18.9832 42.7071C17.617 42.1158 16.3922 41.2407 15.39 40.14Z" fill="#FFE016"/>
<g style="mix-blend-mode:soft-light">
<path d="M22.23 0.939985C18.23 1.27999 18.12 10.29 21.32 10.36C24.52 10.43 27.74 10.67 32.11 15.46C36.31 20.05 39.78 12.19 39.63 10.64C39.48 9.08998 33.38 -0.620015 22.23 0.939985Z" fill="white"/>
</g>
<g style="mix-blend-mode:soft-light">
<path d="M11.96 45.22C7.58999 40.3 12.96 39.4 13.96 39.66C14.96 39.92 17.4 43.26 22.49 43.76C27.58 44.26 24.35 50.5 22.49 50.65C20.63 50.8 14.9 48.52 11.96 45.22Z" fill="white"/>
</g>
<path d="M29.02 1.41998C27.14 1.50998 29.79 7.90998 32.1 10.17C34.41 12.43 38.1 9.22 37.95 8.09C37.8 6.96 32.75 2.61998 29.02 1.41998Z" fill="white"/>
<path d="M13.79 45.04C12.97 43.29 17.22 45.91 16.73 46.83C16.24 47.75 14.59 46.77 13.79 45.04Z" fill="white"/>
<g style="mix-blend-mode:soft-light">
<path d="M36.86 29.56C35.86 30.18 35.86 33.87 31.92 39.79C28.18 45.39 32.23 47.47 33.1 47.52C33.97 47.57 39.69 42.18 41.93 35.79C44.32 28.98 42.46 27.79 41.83 27.52C41.2 27.25 37.67 29.04 36.86 29.56Z" fill="white"/>
</g>
<g style="mix-blend-mode:soft-light">
<path d="M31.77 1.41996C29.02 1.41996 35.77 4.70997 38.05 5.86997C40.33 7.02997 43.05 4.95997 43.05 4.95997C43.05 4.95997 39.98 0.579961 31.77 1.41996Z" fill="white"/>
</g>
<g style="mix-blend-mode:soft-light">
<path d="M10.26 27.88C10.2523 26.1305 10.5922 24.397 11.26 22.78C11.52 22.37 12.48 30.24 12.17 31.7C11.86 33.16 10.38 28.82 10.26 27.88Z" fill="white"/>
</g>
<path d="M37.97 7.77997C37.97 7.77997 46.19 18.04 42.78 34.46C42.78 34.46 48.33 18.46 37.97 7.77997Z" fill="#FFE016"/>
<g style="mix-blend-mode:multiply" opacity="0.5">
<path d="M22.46 50.88C24.4374 51.2476 26.4532 51.3652 28.46 51.23C31.55 50.96 36.52 45.81 36.52 45.81C34.7427 47.7046 32.5423 49.1517 30.0986 50.0329C27.6549 50.9141 25.0374 51.2043 22.46 50.88V50.88Z" fill="#D42F55"/>
</g>
<g style="mix-blend-mode:multiply" opacity="0.8">
<path d="M24.67 51.04C18.13 51.04 12.1 46.86 8.38 40.32C9.8 42.75 14.28 49.12 24.67 51.04Z" fill="#D42F55"/>
</g>
<g style="mix-blend-mode:multiply" opacity="0.5">
<path d="M8.16 39.99L8.35001 40.32C8.28001 40.2 8.22 40.08 8.16 39.99Z" fill="#D42F55"/>
</g>
<g style="mix-blend-mode:multiply" opacity="0.5">
<path d="M50.93 28.63C49.52 41.63 40.63 51.04 30.93 51.04C30.4156 51.0435 29.9013 51.0168 29.39 50.96C35.7636 50.2253 41.6175 47.0891 45.76 42.19C49.14 38.4 50.96 27.44 51.07 26.73C51.05 27.37 51 28 50.93 28.63Z" fill="#D42F55"/>
</g>
<g style="mix-blend-mode:multiply" opacity="0.8">
<path d="M5.31 17.7499C6.4738 13.3902 8.7959 9.42675 12.03 6.27995C17.35 1.46995 27.03 0.279946 27.03 0.279946L31.48 0.119957C31.48 0.119957 24.65 0.00994572 22.76 0.279946C20.87 0.549946 9.34 1.51995 5.31 17.7499Z" fill="#D42F55"/>
</g>
<path d="M17.95 36.49C17.8107 35.6238 17.855 34.7379 18.08 33.89C18.4834 33.6659 18.9183 33.5041 19.37 33.41C19.9881 33.4562 20.5953 33.5978 21.17 33.83C21.3178 34.224 21.4218 34.6332 21.48 35.05C22.0618 35.5169 22.748 35.836 23.48 35.98C23.11 33.57 22.84 31.73 22.68 30.49C22.0028 30.3913 21.3342 30.2408 20.68 30.04C20.0706 29.8351 19.4944 29.542 18.97 29.17C18.359 28.7525 17.8664 28.1841 17.54 27.52C17.1367 26.6909 16.8828 25.7972 16.79 24.88C16.4796 22.7889 16.8291 20.653 17.79 18.77C18.158 17.9346 18.7082 17.192 19.4003 16.5968C20.0924 16.0016 20.9089 15.5687 21.79 15.33L21.54 11.97C21.63 11.74 23.14 11.83 23.14 11.83L23.71 15.25C24.5751 15.3519 25.4132 15.6166 26.18 16.03C26.1842 15.4102 26.3533 14.8027 26.67 14.27C27.0742 13.928 27.5661 13.7063 28.09 13.63C28.4044 13.5535 28.7346 13.5748 29.0366 13.6909C29.3385 13.807 29.5979 14.0125 29.78 14.28C30.2192 15.3382 30.4697 16.4653 30.52 17.61C30.6207 18.5166 30.587 19.4332 30.42 20.33C30.3702 20.573 30.2598 20.7995 30.0989 20.9883C29.9381 21.1771 29.732 21.3222 29.5 21.41C29.1899 21.5753 28.8499 21.6773 28.5 21.71C27.8864 21.8083 27.2583 21.6727 26.74 21.33C26.5846 20.9336 26.4934 20.515 26.47 20.09C25.8155 19.8293 25.1141 19.7067 24.41 19.73C24.75 21.9033 25.02 24.05 25.22 26.17C26.8914 26.1823 28.5273 26.6527 29.95 27.53C30.5197 28.0239 30.9704 28.6402 31.2683 29.3329C31.5661 30.0256 31.7035 30.7767 31.67 31.53C31.8426 33.5755 31.302 35.6177 30.14 37.31C29.6606 38.041 29.0202 38.6527 28.268 39.0982C27.5157 39.5436 26.6715 39.8111 25.8 39.88V42.88C25.1561 43.109 24.4825 43.2437 23.8 43.28L24.09 39.9C23.1993 39.748 22.3665 39.3575 21.68 38.77C21.7474 39.1372 21.7057 39.5162 21.56 39.86C21.1468 40.0813 20.675 40.1686 20.21 40.11C19.689 40.1427 19.1757 39.9705 18.78 39.63C18.3052 38.646 18.0235 37.5801 17.95 36.49V36.49ZM20.14 23.88C20.1245 24.466 20.3314 25.0361 20.7191 25.4758C21.1069 25.9155 21.6467 26.1921 22.23 26.25C22.11 24.92 21.99 22.93 21.87 20.25C20.51 20.8 19.94 22.02 20.14 23.88ZM25.72 35.77C26.3098 35.4582 26.8067 34.9959 27.16 34.43C27.5209 33.8833 27.693 33.2336 27.65 32.58C27.57 31.47 26.85 30.83 25.51 30.66C25.61 32.36 25.67 34.06 25.72 35.75V35.77Z" fill="url(#paint5_linear_1_406)"/>
<path d="M30.31 31.58C30.341 30.8251 30.2006 30.073 29.8992 29.3802C29.5978 28.6875 29.1434 28.072 28.57 27.58C28.359 27.427 28.1348 27.2932 27.9 27.18C26.6248 26.5753 25.2403 26.2351 23.83 26.18C23.8349 26.1502 23.8349 26.1198 23.83 26.09C23.83 25.84 23.78 25.61 23.76 25.36C23.55 23.51 23.3 21.63 22.99 19.75C23.6941 19.7267 24.3955 19.8493 25.05 20.11C25.0807 20.5318 25.1751 20.9465 25.33 21.34C25.847 21.6862 26.4752 21.8254 27.09 21.73C27.4399 21.6973 27.7799 21.5953 28.09 21.43C28.3223 21.3397 28.5282 21.1927 28.6889 21.0022C28.8496 20.8118 28.96 20.5841 29.01 20.34C29.1629 19.4448 29.1898 18.5327 29.09 17.63C29.0617 16.4223 28.9177 15.2202 28.66 14.04C28.3836 13.817 28.0569 13.6649 27.7084 13.597C27.3598 13.529 26.9999 13.5472 26.66 13.65C26.1319 13.7185 25.6369 13.9451 25.24 14.3C24.9211 14.8277 24.7549 15.4335 24.76 16.05C23.9868 15.6349 23.1418 15.3702 22.27 15.27L21.67 11.88C20.86 12.18 20.41 12.44 20.33 12.66V15.38C19.4461 15.6158 18.6271 16.0487 17.9343 16.6462C17.2416 17.2437 16.6931 17.9903 16.33 18.83C15.3675 20.7053 15.0177 22.8354 15.33 24.92C15.33 24.92 15.33 25 15.33 25.04C15.4386 25.917 15.6956 26.7692 16.09 27.56C16.4197 28.2219 16.9117 28.7895 17.52 29.21C18.0493 29.5774 18.6285 29.867 19.24 30.07C19.8929 30.2781 20.5618 30.432 21.24 30.53C21.32 31.1 21.42 31.82 21.55 32.66C21.68 33.5 21.86 34.73 22.07 36.01C21.3378 35.8725 20.6509 35.5565 20.07 35.09C20.0055 34.6702 19.8983 34.258 19.75 33.86C19.1751 33.6302 18.5677 33.4919 17.95 33.45C17.5015 33.5394 17.0697 33.6979 16.67 33.92C16.4486 34.7687 16.4077 35.6545 16.55 36.52C16.6541 37.5985 16.9629 38.6472 17.46 39.61C17.653 39.7802 17.878 39.9103 18.1218 39.9927C18.3655 40.0751 18.6233 40.1082 18.88 40.09C19.345 40.1487 19.8168 40.0613 20.23 39.84C20.3708 39.495 20.4123 39.1174 20.35 38.75C21.0378 39.3374 21.8696 39.7309 22.76 39.89L23.32 43.09C23.71 43.1092 24.0985 43.0301 24.45 42.86V39.86C25.316 39.7937 26.1554 39.5304 26.9041 39.0902C27.6528 38.65 28.291 38.0445 28.77 37.32C29.9273 35.6403 30.4712 33.6134 30.31 31.58V31.58ZM20.23 26.16C19.7879 25.9817 19.4095 25.6748 19.1438 25.279C18.8781 24.8832 18.7375 24.4167 18.74 23.94C18.54 22.11 19.09 20.88 20.46 20.3C20.59 22.85 20.71 24.76 20.83 26.08V26.17C20.8403 26.2161 20.8403 26.2639 20.83 26.31C20.6254 26.2808 20.4243 26.2305 20.23 26.16V26.16ZM25.83 34.49C25.4858 35.0573 24.9907 35.5178 24.4 35.82C24.4 34.56 24.3 33.3 24.24 32.03C24.24 31.59 24.24 31.15 24.17 30.71C24.6656 30.7542 25.1411 30.9265 25.55 31.21C25.776 31.3736 25.9619 31.5864 26.0936 31.8324C26.2253 32.0784 26.2993 32.3512 26.31 32.63C26.3582 33.2859 26.1895 33.9394 25.83 34.49V34.49Z" fill="url(#paint6_linear_1_406)"/>
<g style="mix-blend-mode:soft-light">
<path d="M28.97 20.41C28.92 20.6541 28.8096 20.8818 28.6489 21.0722C28.4882 21.2627 28.2823 21.4097 28.05 21.5C27.7399 21.6653 27.3999 21.7673 27.05 21.8C26.4352 21.8954 25.807 21.7562 25.29 21.41C25.1351 21.0165 25.0407 20.6018 25.01 20.18C24.3555 19.9193 23.6542 19.7967 22.95 19.82C23.26 21.7 23.51 23.58 23.72 25.43C22.7671 25.7299 21.7902 25.9474 20.8 26.08C20.68 24.76 20.56 22.85 20.43 20.3C19.06 20.88 18.51 22.11 18.71 23.94C18.7075 24.4167 18.8482 24.8832 19.1138 25.279C19.3795 25.6748 19.7579 25.9817 20.2 26.16C18.5051 26.4217 16.7738 26.0361 15.35 25.08C15.35 25.08 15.35 25 15.35 24.96C15.0377 22.8754 15.3875 20.7453 16.35 18.87C16.7131 18.0303 17.2616 17.2837 17.9543 16.6862C18.6471 16.0887 19.4661 15.6558 20.35 15.42V12.7C20.43 12.48 20.88 12.22 21.69 11.92L22.27 15.34C23.1419 15.4402 23.9868 15.7049 24.76 16.12C24.7549 15.5035 24.9211 14.8976 25.24 14.37C25.637 14.0151 26.132 13.7885 26.66 13.72C26.9999 13.6172 27.3598 13.599 27.7084 13.6669C28.0569 13.7349 28.3836 13.887 28.66 14.11C28.9177 15.2902 29.0617 16.4923 29.09 17.7C29.1766 18.6045 29.1362 19.5167 28.97 20.41V20.41Z" fill="white"/>
</g>
<g style="mix-blend-mode:multiply" opacity="0.2">
<path d="M27.06 29.64C26.6248 30.2248 26.1175 30.7524 25.55 31.21C25.1411 30.9265 24.6656 30.7542 24.17 30.71C24.17 31.15 24.17 31.59 24.24 32.03C23.4332 32.4418 22.5454 32.6705 21.64 32.7C21.51 31.86 21.41 31.14 21.33 30.57C20.6518 30.4719 19.9829 30.3181 19.33 30.11C18.7185 29.907 18.1393 29.6174 17.61 29.25C17.0017 28.8295 16.5098 28.2619 16.18 27.6C15.7856 26.8092 15.5286 25.957 15.42 25.08C15.42 25.08 15.42 25 15.42 24.96C15.42 24.92 15.62 26.04 20.28 26.16H20.88C21.88 26.16 22.88 26.16 23.88 26.16C23.8849 26.1898 23.8849 26.2202 23.88 26.25C25.2903 26.305 26.6748 26.6452 27.95 27.25C28.12 27.73 27.89 28.51 27.06 29.64Z" fill="#DA0553"/>
</g>
<path d="M20.16 35.13C20.1 34.81 22.16 36.05 22.16 36.05C22.16 36.05 20.37 36.03 20.16 35.13Z" fill="white"/>
<path d="M26.18 13.81C25.42 13.9 27.05 17.59 27.99 18.33C28.93 19.07 28.99 14.82 28.62 14.11C28.25 13.4 26.18 13.81 26.18 13.81Z" fill="white"/>
<g style="mix-blend-mode:soft-light">
<path d="M21.09 12.14C20.29 12.7 21.91 14.07 21.91 14.07C21.91 14.07 21.82 12.07 21.5 11.97C21.4625 11.9505 21.4211 11.9395 21.3789 11.9377C21.3366 11.9359 21.2945 11.9434 21.2554 11.9596C21.2164 11.9757 21.1813 12.0003 21.1528 12.0315C21.1242 12.0626 21.1028 12.0997 21.09 12.14V12.14Z" fill="white"/>
</g>
<path d="M43.27 17.15C42.64 14.52 42.74 19.48 43.27 22.15C43.8 24.82 44.19 24.06 44.19 24.06C44.19 24.06 44.3 18.97 43.27 17.15Z" fill="white"/>
<g style="mix-blend-mode:soft-light">
<path d="M29.1 51.22C25.99 51.22 31.87 49.7 33.1 48.93C34.33 48.16 37.85 49.1 37.85 49.1C37.85 49.1 34.82 51.45 29.1 51.22Z" fill="white"/>
</g>
<path d="M42.78 34.46C41.26 34.26 39.68 39.37 40.52 40.46C41.36 41.55 43.35 38.46 43.74 37.51C44.13 36.56 42.78 34.46 42.78 34.46Z" fill="#ED4800"/>
<path d="M36.56 45.82C35.45 45.64 38.05 43.62 38.56 43.54C39.07 43.46 38.87 44.54 38.47 45.29C38.07 46.04 36.97 45.88 36.56 45.82Z" fill="#ED4800"/>
<path d="M36.59 45.01C36.29 45.6 36.89 46.01 37.78 45.75C38.0003 45.6632 38.2035 45.5379 38.38 45.38C37.914 45.8861 37.3026 46.2355 36.63 46.38C35.76 46.41 36 45.59 36.59 45.01Z" fill="#FFBA00"/>
<path d="M40.41 38.25C40.41 38.25 40.41 38.89 41.41 38.89C42.3032 38.7714 43.1163 38.3129 43.68 37.61C43.68 37.61 42.51 40.44 41.07 41.01C39.63 41.58 40.2 39.12 40.41 38.25Z" fill="#FFBA00"/>
<g style="mix-blend-mode:multiply" opacity="0.5">
<path d="M40.91 36.6C40.34 39.04 42.59 37.21 43.01 36.87C43.43 36.53 43.82 37.08 43.82 37.08C43.82 37.08 43.44 34.66 42.82 34.46C42.2 34.26 40.91 36.6 40.91 36.6Z" fill="#D42F55"/>
</g>
<g style="mix-blend-mode:multiply" opacity="0.5">
<path d="M37.37 44.28C37.06 45.14 37.88 45.43 38.37 45.12C38.86 44.81 38.7 43.46 38.5 43.54C38.3 43.62 37.37 44.28 37.37 44.28Z" fill="#D42F55"/>
</g>
<path d="M41.48 40.79C40.86 40.9 41.76 40.24 42.31 39.73C42.86 39.22 42.02 40.53 41.48 40.79Z" fill="white"/>
<path d="M36.67 46.34C36.57 46.28 37.57 45.79 37.67 45.88C37.67 46.19 36.67 46.34 36.67 46.34Z" fill="white"/>
</g>
<defs>
<linearGradient id="paint0_linear_1_406" x1="31.37" y1="51.04" x2="31.37" y2="0.240002" gradientUnits="userSpaceOnUse">
<stop stop-color="#FF5900"/>
<stop offset="0.23" stop-color="#FE6800"/>
<stop offset="0.66" stop-color="#FA9300"/>
<stop offset="0.85" stop-color="#F66A00"/>
<stop offset="1" stop-color="#F63F00"/>
</linearGradient>
<linearGradient id="paint1_linear_1_406" x1="29.74" y1="51.33" x2="29.74" y2="-1.46998e-06" gradientUnits="userSpaceOnUse">
<stop stop-color="#FF5900"/>
<stop offset="0.23" stop-color="#FE6800"/>
<stop offset="0.66" stop-color="#FA9300"/>
<stop offset="0.85" stop-color="#F66A00"/>
<stop offset="1" stop-color="#F63F00"/>
</linearGradient>
<linearGradient id="paint2_linear_1_406" x1="32.76" y1="49.08" x2="15.69" y2="2.15999" gradientUnits="userSpaceOnUse">
<stop stop-color="#FFEA34"/>
<stop offset="0.63" stop-color="#FF8100"/>
<stop offset="0.7" stop-color="#FFA400"/>
<stop offset="1" stop-color="#FFBA00"/>
</linearGradient>
<linearGradient id="paint3_linear_1_406" x1="28.29" y1="42.35" x2="17.41" y2="12.46" gradientUnits="userSpaceOnUse">
<stop stop-color="#FFBA00"/>
<stop offset="0.21" stop-color="#FE6800"/>
<stop offset="1" stop-color="#D41B00"/>
</linearGradient>
<linearGradient id="paint4_linear_1_406" x1="23.55" y1="43.54" x2="23.55" y2="11.31" gradientUnits="userSpaceOnUse">
<stop offset="0.04" stop-color="#EF6300"/>
<stop offset="1" stop-color="#E13E00"/>
</linearGradient>
<linearGradient id="paint5_linear_1_406" x1="25.1811" y1="43.1435" x2="23.1071" y2="11.7519" gradientUnits="userSpaceOnUse">
<stop stop-color="#C82400"/>
<stop offset="0.51" stop-color="#D84400"/>
<stop offset="1" stop-color="#D42F00"/>
</linearGradient>
<linearGradient id="paint6_linear_1_406" x1="23.8056" y1="43.1041" x2="21.7447" y2="11.9121" gradientUnits="userSpaceOnUse">
<stop stop-color="#FFAB00"/>
<stop offset="0.49" stop-color="#FFBA00"/>
<stop offset="1" stop-color="#EF6C00"/>
</linearGradient>
<clipPath id="clip0_1_406">
<rect width="57.68" height="62.26" fill="white"/>
</clipPath>
</defs>
</svg>
