<svg width="58" height="71" viewBox="0 0 58 71" fill="none" xmlns="http://www.w3.org/2000/svg">
<g clip-path="url(#clip0_1_459)">
<path d="M42.62 13.2H15.05C6.73811 13.2 0 19.9381 0 28.25V55.82C0 64.1319 6.73811 70.87 15.05 70.87H42.62C50.9319 70.87 57.67 64.1319 57.67 55.82V28.25C57.67 19.9381 50.9319 13.2 42.62 13.2Z" fill="#2B0038"/>
<path d="M57.68 25.97V53.55C57.6911 56.2322 56.9795 58.8678 55.62 61.18C55.62 61.18 55.62 61.18 55.62 61.25C55.6012 61.2863 55.5776 61.3199 55.55 61.35C55.55 61.35 55.55 61.35 55.55 61.35C55.29 61.75 55.03 62.13 54.76 62.49C54.1328 63.3201 53.4261 64.087 52.65 64.78C49.9121 67.2069 46.3787 68.5448 42.72 68.54H15.07C12.6346 68.5445 10.2348 67.9559 8.07779 66.8252C5.92083 65.6944 4.07164 64.0555 2.68998 62.05V62.05C0.95217 59.5567 0.0235248 56.5891 0.0300019 53.55V25.97C0.0299861 23.9951 0.419954 22.0396 1.17752 20.2158C1.93509 18.392 3.04531 16.7358 4.44455 15.3421C5.84379 13.9484 7.50446 12.8448 9.33127 12.0945C11.1581 11.3442 13.1151 10.9621 15.09 10.97H42.67C44.6406 10.9687 46.5923 11.3557 48.4133 12.1089C50.2343 12.8621 51.8891 13.9668 53.2831 15.3598C54.677 16.7528 55.7828 18.4069 56.5372 20.2274C57.2917 22.0479 57.68 23.9993 57.68 25.97Z" fill="#46056D"/>
<g style="mix-blend-mode:soft-light" opacity="0.2">
<path d="M1.45001 59.98C1.75001 46.86 20.11 63.71 32.17 63.71C44.23 63.71 49.86 50.43 54.63 52.36C59.4 54.29 54.37 65.13 45.73 67.45C37.09 69.77 15.96 68.71 10.52 67.9C5.08002 67.09 1.45001 59.98 1.45001 59.98Z" fill="white"/>
</g>
<g style="mix-blend-mode:soft-light">
<path d="M55.58 61.18C55.5606 61.2305 55.5337 61.2777 55.5 61.32C55.5 61.32 55.5 61.32 55.5 61.32C55.2591 61.7151 54.9954 62.0957 54.71 62.46C54.0828 63.2901 53.3762 64.0571 52.6 64.75C49.8621 67.177 46.3287 68.5149 42.67 68.51H15.07C12.6346 68.5145 10.2348 67.9259 8.07782 66.7952C5.92086 65.6644 4.07167 64.0255 2.69 62.02V62.02C2.6159 61.892 2.55236 61.7583 2.5 61.62C2.9 61.94 11.26 68.45 31.05 68.45C49.46 68.45 54.71 62.45 55.54 61.28C55.5572 61.2483 55.5706 61.2148 55.58 61.18V61.18Z" fill="#BF77D8"/>
</g>
<path d="M29.18 18.25L32.9001 16.92C33.5901 16.67 36.5701 2.92001 33.4601 1.23001C30.3501 -0.459986 27.59 8.71001 29.18 18.25Z" fill="url(#paint0_linear_1_459)"/>
<path d="M33.46 18.71C32.8064 18.8967 32.1136 18.8967 31.46 18.71C31.46 18.71 36.07 6.31999 34.28 2.80999C32.49 -0.700009 30.84 1.31999 30.28 19.27H28.73L23.27 19.43C23.27 19.43 16.93 7.42999 17.33 5.42999C17.73 3.42999 26.85 -0.490009 32.77 -0.0200092H32.93C38.82 0.609991 34.07 18.37 33.46 18.71Z" fill="url(#paint1_linear_1_459)"/>
<g style="mix-blend-mode:multiply" opacity="0.74">
<path d="M33.46 18.71C32.8064 18.8967 32.1136 18.8967 31.46 18.71C31.46 18.71 36.07 6.32 34.28 2.81C32.49 -0.7 30.84 1.32 30.28 19.27H28.73C28.73 14.58 28.93 0 32.73 0H32.89C38.82 0.61 34.07 18.37 33.46 18.71Z" fill="#CA2790"/>
</g>
<g style="mix-blend-mode:multiply" opacity="0.74">
<path d="M31.72 3.33001C31.38 4.20001 29.93 10.83 31.19 13.33C32.45 15.83 34.95 8.70001 34.7 5.21001C34.45 1.72001 33 0.180013 31.72 3.33001Z" fill="#CA2790"/>
</g>
<path d="M24.59 19.43C24.59 19.43 19.17 9.65001 18.34 7.35001C18.1173 6.66872 18.103 5.93646 18.299 5.247C18.4949 4.55754 18.8922 3.94227 19.44 3.48001L21.09 2.63C20.5239 3.39359 20.1562 4.28583 20.0201 5.22661C19.884 6.16738 19.9836 7.12725 20.31 8.02001C21.11 10.83 25.31 19.31 25.31 19.31L24.59 19.43Z" fill="url(#paint2_linear_1_459)"/>
<path d="M28.07 19.28C28.07 19.28 26.7301 8.53 27.5301 4.73C27.6919 3.69417 28.1146 2.71654 28.7583 1.88908C29.4021 1.06162 30.2458 0.411542 31.2101 0C29.9482 0.0537369 28.6934 0.217695 27.4601 0.490001C27.4601 0.490001 26.16 1.31 25.52 4.56C24.88 7.81 27.2 19.31 27.2 19.31L28.07 19.28Z" fill="url(#paint3_linear_1_459)"/>
<g style="mix-blend-mode:multiply" opacity="0.74">
<path d="M23.82 19.31C23.82 19.31 19.82 11.79 21.32 9.63998C22.82 7.48998 28.32 17.85 28.32 19.28L23.82 19.31Z" fill="#D42790"/>
</g>
<g style="mix-blend-mode:multiply" opacity="0.74">
<path d="M23.82 19.31C24.46 20.14 25.89 17.31 24.66 13.84C22.73 8.42002 21.34 9.62002 20.99 9.91002C20.64 10.2 22.07 17.04 23.82 19.31Z" fill="#D42790"/>
</g>
<g style="mix-blend-mode:soft-light">
<path d="M17.71 5.49001C16.42 7.36001 27.3 5.12001 29.59 1.98001C31.88 -1.15999 20.99 0.760013 17.71 5.49001Z" fill="white"/>
</g>
<g style="mix-blend-mode:soft-light">
<path d="M23.7 10.07C22.7 7.06997 27.58 9.81997 28.15 11.7C28.72 13.58 28.69 16.42 28.15 16.83C27.61 17.24 24.19 11.63 23.7 10.07Z" fill="white"/>
</g>
<g style="mix-blend-mode:multiply" opacity="0.74">
<path d="M29.17 8.71998C28.97 11.66 31.52 4.11998 31.92 2.10998C32.32 0.0999763 31.24 1.24998 31.24 1.24998C31.24 1.24998 29.58 2.91998 29.17 8.71998Z" fill="#D42790"/>
</g>
<g style="mix-blend-mode:multiply" opacity="0.74">
<path d="M22.13 5.64998C20.65 5.99998 25.13 7.96998 26.56 9.64998C27.99 11.33 29.89 4.21998 29.91 3.03998C29.93 1.85998 27.98 3.60998 25.55 4.56998C24.4548 5.05902 23.3074 5.42137 22.13 5.64998V5.64998Z" fill="#F36A90"/>
</g>
<path d="M24.37 50.46C24.37 50.46 14.63 65.81 12.64 64.92C10.65 64.03 11.18 57.78 9.8 56.63C9.67971 56.5351 9.54459 56.4608 9.40004 56.41C7.40004 55.63 1.40002 56.47 0.820023 55.23C0.240023 53.99 12.64 41.57 12.64 41.57L24.37 50.46Z" fill="url(#paint4_linear_1_459)"/>
<path d="M14.75 43.18C14.75 43.18 3.66002 54.38 3.22002 54.94C3.09198 55.0725 2.99151 55.2292 2.92455 55.4008C2.8576 55.5725 2.82549 55.7558 2.83001 55.94H6.53002C6.50016 55.6012 6.54453 55.2599 6.66003 54.94C6.85003 54.35 17.2 45.03 17.2 45.03L14.75 43.18Z" fill="url(#paint5_linear_1_459)"/>
<path d="M20.64 47.63C20.64 47.63 10.8 59.63 10.81 59.7C10.82 59.77 11.42 62.96 11.42 62.96C11.42 62.96 20.07 52.31 22.84 49.3L20.64 47.63Z" fill="url(#paint6_linear_1_459)"/>
<g style="mix-blend-mode:multiply" opacity="0.5">
<path d="M9.40002 56.41C7.40002 55.63 1.40001 56.47 0.820007 55.23C1.08001 54.37 7.23 55.61 8.38 55.61C8.61157 55.6225 8.83364 55.7061 9.01611 55.8492C9.19859 55.9923 9.33264 56.1881 9.40002 56.41V56.41Z" fill="#600090"/>
</g>
<g style="mix-blend-mode:multiply" opacity="0.5">
<path d="M24.37 50.46C24.37 50.46 14.63 65.81 12.64 64.92C13.93 65.3 20.98 52.64 24.37 50.46Z" fill="#600090"/>
</g>
<g style="mix-blend-mode:soft-light">
<path d="M11.12 59.79C12.0656 58.1574 13.2111 56.6491 14.53 55.3C14.98 55.01 16.16 55.79 16.41 56.19C16.66 56.59 12.24 61.67 11.86 61.95C11.48 62.23 11.12 59.79 11.12 59.79Z" fill="white"/>
</g>
<g style="mix-blend-mode:soft-light">
<path d="M6.34005 54.72C5.64005 54.72 4.34004 54.72 4.14004 54.46C3.94004 54.2 7.43005 50.7 8.22005 50.13C8.64778 49.9074 9.12281 49.7911 9.605 49.7911C10.0872 49.7911 10.5623 49.9074 10.99 50.13C11.23 50.46 6.34005 54.72 6.34005 54.72Z" fill="white"/>
</g>
<path d="M32.07 50.46C32.07 50.46 41.82 65.81 43.8 64.92C45.78 64.03 45.26 57.78 46.65 56.63C46.7675 56.5309 46.9034 56.4561 47.05 56.41C49.05 55.63 55 56.47 55.62 55.23C56.24 53.99 43.77 41.57 43.77 41.57L32.07 50.46Z" fill="url(#paint7_linear_1_459)"/>
<path d="M41.66 43.18C41.66 43.18 52.75 54.38 53.19 54.94C53.318 55.0725 53.4185 55.2292 53.4854 55.4008C53.5524 55.5725 53.5845 55.7558 53.58 55.94H49.88C49.9099 55.6012 49.8655 55.2599 49.75 54.94C49.56 54.35 39.22 45.03 39.22 45.03L41.66 43.18Z" fill="url(#paint8_linear_1_459)"/>
<path d="M35.77 47.63C35.77 47.63 45.61 59.63 45.6 59.7C45.59 59.77 44.99 62.96 44.99 62.96C44.99 62.96 36.33 52.31 33.57 49.3L35.77 47.63Z" fill="url(#paint9_linear_1_459)"/>
<g style="mix-blend-mode:multiply" opacity="0.5">
<path d="M47.07 56.41C49.07 55.63 55.02 56.47 55.64 55.23C55.39 54.37 49.23 55.61 48.08 55.61C47.8494 55.6217 47.6281 55.705 47.4471 55.8484C47.266 55.9918 47.1342 56.1881 47.07 56.41V56.41Z" fill="#600090"/>
</g>
<g style="mix-blend-mode:multiply" opacity="0.5">
<path d="M32.07 50.46C32.07 50.46 41.82 65.81 43.8 64.92C42.48 65.3 35.43 52.64 32.07 50.46Z" fill="#600090"/>
</g>
<g style="mix-blend-mode:soft-light">
<path d="M45.29 59.79C44.3478 58.1551 43.202 56.6464 41.88 55.3C41.43 55.01 40.25 55.79 40 56.19C39.75 56.59 44.18 61.67 44.56 61.95C44.94 62.23 45.29 59.79 45.29 59.79Z" fill="white"/>
</g>
<g style="mix-blend-mode:soft-light">
<path d="M50.07 54.72C50.77 54.72 52.07 54.72 52.27 54.46C52.47 54.2 48.99 50.7 48.19 50.13C47.7623 49.9074 47.2872 49.7911 46.805 49.7911C46.3228 49.7911 45.8477 49.9074 45.42 50.13C45.18 50.46 50.07 54.72 50.07 54.72Z" fill="white"/>
</g>
<path d="M28.14 52.6C37.9762 52.6 45.95 44.0083 45.95 33.41C45.95 22.8116 37.9762 14.22 28.14 14.22C18.3038 14.22 10.33 22.8116 10.33 33.41C10.33 44.0083 18.3038 52.6 28.14 52.6Z" fill="url(#paint10_linear_1_459)"/>
<path d="M30.467 49.459C40.2184 48.17 47.0785 39.2201 45.7895 29.4687C44.5005 19.7173 35.5505 12.8572 25.7992 14.1462C16.0478 15.4352 9.18769 24.3851 10.4767 34.1365C11.7657 43.8879 20.7156 50.748 30.467 49.459Z" fill="url(#paint11_linear_1_459)"/>
<path d="M38.6763 36.4826C41.2216 30.6817 38.5823 23.9159 32.7814 21.3707C26.9805 18.8255 20.2146 21.4647 17.6694 27.2656C15.1242 33.0665 17.7635 39.8324 23.5644 42.3776C29.3653 44.9228 36.1311 42.2835 38.6763 36.4826Z" fill="url(#paint12_linear_1_459)"/>
<path d="M28.14 43.18C33.8782 43.18 38.53 38.5282 38.53 32.79C38.53 27.0517 33.8782 22.4 28.14 22.4C22.4018 22.4 17.75 27.0517 17.75 32.79C17.75 38.5282 22.4018 43.18 28.14 43.18Z" fill="url(#paint13_linear_1_459)"/>
<path d="M24.25 28.98C24.25 28.98 25.51 29.06 26.51 26.23C27.6936 25.6378 29.0331 25.4314 30.34 25.64L30.7 40.4H26.19L25.87 31.86L24.25 31.68V28.98Z" fill="url(#paint14_linear_1_459)"/>
<path d="M24.25 27.86C24.25 27.86 25.51 27.94 26.51 25.12C27.6936 24.5277 29.0331 24.3214 30.34 24.53L30.7 39.29H26.19L25.87 30.74L24.25 30.56V27.86Z" fill="url(#paint15_linear_1_459)"/>
<g style="mix-blend-mode:soft-light">
<path d="M10.61 34.97C10.74 36.26 16.22 34.97 16.46 34.8C16.7 34.63 15.06 20.67 28.14 20C41.22 19.33 39.93 33 40.08 34C40.23 35 44.76 34 45.53 32.79C46.3 31.58 43.85 13.97 28.6 14.4C13.35 14.83 9.76999 26.76 10.61 34.97Z" fill="white"/>
</g>
<g style="mix-blend-mode:soft-light" opacity="0.3">
<path d="M18.71 45.96C17.56 43.85 24.19 44.26 30.44 43.18C36.69 42.1 37.44 38.34 39.61 37.7C40.4095 37.5007 41.2503 37.5456 42.024 37.8291C42.7976 38.1125 43.4685 38.6214 43.95 39.29C44.46 40 39.04 48.15 31.26 49.11C26.825 49.7553 22.3146 48.6232 18.71 45.96V45.96Z" fill="white"/>
</g>
<g style="mix-blend-mode:soft-light">
<path d="M26.1601 32.33C26.2601 33.07 29.11 32.47 29.8 31.57C30.49 30.67 30.09 25.12 30.08 24.8C30.07 24.48 26.95 24.92 26.67 25.18C26.39 25.44 25.78 27.29 25.21 27.65C24.64 28.01 24.5201 28.2 24.4701 28.55C24.4149 29.1426 24.4554 29.7402 24.5901 30.32C25.0488 30.3679 25.5113 30.3679 25.9701 30.32C25.9701 30.32 26.1201 31.97 26.1601 32.33Z" fill="white"/>
</g>
<g style="mix-blend-mode:multiply" opacity="0.5">
<path d="M12.51 42.62C12.75 41.43 16.51 46.27 21.8 48.92C27.09 51.57 26.72 52.18 26.67 52.54C26.62 52.9 17.72 52 12.51 42.62Z" fill="#BD3EA9"/>
</g>
<g style="mix-blend-mode:multiply" opacity="0.5">
<path d="M36.33 50.46C35.1 50.26 37.92 47.46 39.61 45.46C41.3 43.46 42.86 42.85 44.04 39.87C45.22 36.89 43.68 47.18 36.33 50.46Z" fill="#BD3EA9"/>
</g>
<g style="mix-blend-mode:soft-light">
<path d="M26.69 49.67C26.05 49.9 26.76 52.04 27.07 52.31C27.38 52.58 33.07 51.72 34.39 50.99C35.71 50.26 37.23 48.56 37.06 47.7C36.89 46.84 34.82 49.46 26.69 49.67Z" fill="white"/>
</g>
<path d="M12.51 40.39C14.182 43.0054 16.4814 45.1612 19.1989 46.6614C21.9164 48.1617 24.9659 48.9587 28.07 48.98C31.2014 48.9578 34.2788 48.162 37.0283 46.6633C39.7779 45.1647 42.1144 43.0097 43.83 40.39C42.2703 43.2241 39.9937 45.5988 37.2278 47.2766C34.462 48.9543 31.3041 49.8762 28.07 49.95C16.8 50.26 12.51 40.39 12.51 40.39Z" fill="#FFC400"/>
<g style="mix-blend-mode:multiply" opacity="0.5">
<path d="M17.24 28.38C16.81 33.62 19.53 23.72 26.74 22.79C35.37 21.67 36.87 31.01 39.04 30.88C41.21 30.75 37.57 20.68 29.07 20.43C26.4966 20.2602 23.9395 20.9484 21.7989 22.3869C19.6583 23.8255 18.055 25.9331 17.24 28.38V28.38Z" fill="#CA2790"/>
</g>
<path d="M19.83 39.76C20.191 40.2196 20.6075 40.6328 21.07 40.99C20.6289 40.609 20.2146 40.198 19.83 39.76V39.76Z" fill="#FFD300"/>
<path d="M27.79 43.18C25.3656 43.2387 22.9943 42.4658 21.07 40.99C22.9991 42.7986 25.5088 43.862 28.15 43.99C33 43.99 37.09 39.07 37.09 39.07C34.6368 41.5891 31.3043 43.0619 27.79 43.18V43.18Z" fill="#FFC400"/>
<g style="mix-blend-mode:multiply" opacity="0.2">
<path d="M27.47 49.18C23.65 49.29 29.01 45.6 32.82 42.54C36.63 39.48 40.82 41.79 40.89 42.54C40.96 43.29 37.32 48.9 27.47 49.18Z" fill="#E02774"/>
</g>
<path d="M31.75 14.98C28.85 14.8 33.24 19.17 36.68 20.42C40.12 21.67 39.37 15.45 31.75 14.98Z" fill="white"/>
<path d="M21.95 41.51C19.47 40.7 21.46 42.92 23.81 43.33C26.16 43.74 21.95 41.51 21.95 41.51Z" fill="white"/>
<g style="mix-blend-mode:multiply" opacity="0.74">
<path d="M11.12 43.09C11.12 43.09 11.57 49.51 14.37 53.26C17.17 57.01 22.28 53.64 22.28 53.64L23.36 51.92C23.36 51.92 15.46 49.7 12.14 41.85L11.12 43.09Z" fill="#CA2790"/>
</g>
<g style="mix-blend-mode:multiply" opacity="0.74">
<path d="M32.97 51.89L34.87 54.73C34.87 54.73 38.87 55.73 42.64 51.89C46.41 48.05 44.64 42.43 44.64 42.43L44.15 41.85C44.15 41.85 40.51 49.95 32.97 51.89Z" fill="#CA2790"/>
</g>
</g>
<defs>
<linearGradient id="paint0_linear_1_459" x1="31.78" y1="18.25" x2="31.78" y2="1.03001" gradientUnits="userSpaceOnUse">
<stop stop-color="#A70057"/>
<stop offset="1" stop-color="#83003B"/>
</linearGradient>
<linearGradient id="paint1_linear_1_459" x1="26.56" y1="19.47" x2="26.56" y2="-9.01229e-06" gradientUnits="userSpaceOnUse">
<stop stop-color="#DE0086"/>
<stop offset="1" stop-color="#FF003B"/>
</linearGradient>
<linearGradient id="paint2_linear_1_459" x1="19.29" y1="15.98" x2="25.9201" y2="5.77003" gradientUnits="userSpaceOnUse">
<stop stop-color="#FFEA34"/>
<stop offset="0.58" stop-color="#FF8100"/>
<stop offset="0.7" stop-color="#FFA400"/>
<stop offset="1" stop-color="#FFBA00"/>
</linearGradient>
<linearGradient id="paint3_linear_1_459" x1="23.25" y1="16.73" x2="33.26" y2="1.31" gradientUnits="userSpaceOnUse">
<stop stop-color="#FFEA34"/>
<stop offset="0.58" stop-color="#FF8100"/>
<stop offset="0.7" stop-color="#FFA400"/>
<stop offset="1" stop-color="#FFBA00"/>
</linearGradient>
<linearGradient id="paint4_linear_1_459" x1="12.58" y1="64.95" x2="12.58" y2="41.57" gradientUnits="userSpaceOnUse">
<stop stop-color="#DE0086"/>
<stop offset="1" stop-color="#FF003B"/>
</linearGradient>
<linearGradient id="paint5_linear_1_459" x1="5.31001" y1="57.51" x2="14.66" y2="43.11" gradientUnits="userSpaceOnUse">
<stop stop-color="#FFEA34"/>
<stop offset="0.58" stop-color="#FF8100"/>
<stop offset="0.7" stop-color="#FFA400"/>
<stop offset="1" stop-color="#FFBA00"/>
</linearGradient>
<linearGradient id="paint6_linear_1_459" x1="11.36" y1="62.92" x2="21.09" y2="47.93" gradientUnits="userSpaceOnUse">
<stop stop-color="#FFEA34"/>
<stop offset="0.58" stop-color="#FF8100"/>
<stop offset="0.7" stop-color="#FFA400"/>
<stop offset="1" stop-color="#FFBA00"/>
</linearGradient>
<linearGradient id="paint7_linear_1_459" x1="43.83" y1="64.95" x2="43.83" y2="41.57" gradientUnits="userSpaceOnUse">
<stop stop-color="#DE0086"/>
<stop offset="1" stop-color="#FF003B"/>
</linearGradient>
<linearGradient id="paint8_linear_1_459" x1="51.1" y1="57.51" x2="41.75" y2="43.11" gradientUnits="userSpaceOnUse">
<stop stop-color="#FFEA34"/>
<stop offset="0.58" stop-color="#FF8100"/>
<stop offset="0.7" stop-color="#FFA400"/>
<stop offset="1" stop-color="#FFBA00"/>
</linearGradient>
<linearGradient id="paint9_linear_1_459" x1="45.05" y1="62.92" x2="35.32" y2="47.93" gradientUnits="userSpaceOnUse">
<stop stop-color="#FFEA34"/>
<stop offset="0.58" stop-color="#FF8100"/>
<stop offset="0.7" stop-color="#FFA400"/>
<stop offset="1" stop-color="#FFBA00"/>
</linearGradient>
<linearGradient id="paint10_linear_1_459" x1="34.65" y1="51.3" x2="21.63" y2="15.52" gradientUnits="userSpaceOnUse">
<stop stop-color="#F63F00"/>
<stop offset="0.55" stop-color="#F66A00"/>
<stop offset="1" stop-color="#FA9300"/>
</linearGradient>
<linearGradient id="paint11_linear_1_459" x1="34.2253" y1="48.5982" x2="22.0353" y2="15.1182" gradientUnits="userSpaceOnUse">
<stop stop-color="#FF9600"/>
<stop offset="1" stop-color="#FFA900"/>
</linearGradient>
<linearGradient id="paint12_linear_1_459" x1="32.0999" y1="42.6261" x2="24.2499" y2="21.0561" gradientUnits="userSpaceOnUse">
<stop stop-color="#FA9300"/>
<stop offset="0.45" stop-color="#F66A00"/>
<stop offset="1" stop-color="#F63F00"/>
</linearGradient>
<linearGradient id="paint13_linear_1_459" x1="31.69" y1="42.55" x2="24.59" y2="23.03" gradientUnits="userSpaceOnUse">
<stop stop-color="#FF9600"/>
<stop offset="1" stop-color="#FF8E00"/>
</linearGradient>
<linearGradient id="paint14_linear_1_459" x1="27.47" y1="40.4" x2="27.47" y2="25.54" gradientUnits="userSpaceOnUse">
<stop stop-color="#F63F00"/>
<stop offset="0.55" stop-color="#F66A00"/>
<stop offset="1" stop-color="#FA9300"/>
</linearGradient>
<linearGradient id="paint15_linear_1_459" x1="27.47" y1="39.29" x2="27.47" y2="24.43" gradientUnits="userSpaceOnUse">
<stop stop-color="#FFA800"/>
<stop offset="1" stop-color="#FFA900"/>
</linearGradient>
<clipPath id="clip0_1_459">
<rect width="57.68" height="70.87" fill="white"/>
</clipPath>
</defs>
</svg>
