<svg width="52" height="44" viewBox="0 0 52 44" fill="none" xmlns="http://www.w3.org/2000/svg">
<path d="M33.7654 35.1995C33.7546 35.1986 33.7437 35.1979 33.7328 35.197C33.4365 36.016 33.1401 36.835 32.8387 37.6673C33.321 37.6673 33.7859 37.6673 34.279 37.6673C34.1059 36.836 33.9356 36.0179 33.7654 35.1995Z" fill="white"/>
<path d="M51.7153 23.2275H12.3767V27.9224H51.7153V23.2275Z" fill="white"/>
<path d="M46.8133 17.113H17.2787C14.5762 17.113 12.3767 19.3125 12.3767 22.0159V22.3362H51.7153V22.0159C51.7153 19.3125 49.5159 17.113 46.8133 17.113Z" fill="white"/>
<path d="M17.2787 16.2218H39.7461L37.2626 12.2154C37.133 12.0056 37.1974 11.7315 37.4063 11.6018C37.616 11.4738 37.8893 11.5365 38.0199 11.7454L40.7947 16.2218H42.6102L40.8808 13.1302L34.3295 2.34179C32.9125 0.0465951 29.8844 -0.689736 27.5788 0.708953L2.3569 16.039C0.0495248 17.4525 -0.691173 20.4805 0.70666 22.7888L11.4855 38.997V22.0159C11.4854 18.8216 14.0844 16.2218 17.2787 16.2218ZM15.6824 9.70786L16.7565 8.94279C16.9558 8.80092 17.2352 8.84793 17.3779 9.04723C17.5206 9.24741 17.4736 9.52593 17.2735 9.66868L16.1994 10.4337C16.1211 10.4894 16.0306 10.5164 15.9409 10.5164C15.8017 10.5164 15.665 10.4512 15.578 10.3293C15.4352 10.1291 15.4822 9.85059 15.6824 9.70786ZM3.56584 18.06C2.87911 18.5936 2.49353 19.2429 2.42651 20.021C2.27159 21.8227 3.90876 23.6331 3.9253 23.6505C4.09154 23.8315 4.07937 24.1135 3.89832 24.2806C3.81302 24.359 3.70509 24.3973 3.59716 24.3973C3.47705 24.3973 3.35692 24.3485 3.26903 24.2528C3.18983 24.1675 1.34984 22.1326 1.53871 19.9444C1.62663 18.9191 2.13927 18.0383 3.061 17.3272L13.3985 11.0117C13.6074 10.8829 13.8816 10.949 14.0113 11.1597C14.1392 11.3703 14.0731 11.6445 13.8633 11.7724L3.56584 18.06Z" fill="white"/>
<path d="M12.3767 39.0979C12.3767 41.8013 14.5762 43.9999 17.2787 43.9999H46.8133C49.5159 43.9999 51.7153 41.8013 51.7153 39.0979V28.8135H12.3767V39.0979ZM32.7397 33.9043C32.895 33.5313 33.1604 33.3509 33.567 33.3585C34.0299 33.3674 34.4932 33.3607 34.9692 33.3607C35.4322 35.5806 35.894 37.793 36.3586 40.0204C36.2955 40.0254 36.2486 40.0321 36.2018 40.0324C35.7784 40.033 35.3549 40.0293 34.9315 40.0352C34.8139 40.0368 34.7604 40.0087 34.7406 39.8808C34.7011 39.6264 34.6361 39.3762 34.5862 39.1235C34.5722 39.0516 34.5378 39.03 34.4679 39.0302C33.7906 39.0323 33.113 39.0333 32.4356 39.0302C32.3549 39.0298 32.329 39.0685 32.3062 39.133C32.2112 39.4013 32.1162 39.6696 32.013 39.9347C31.9966 39.9766 31.9388 40.031 31.8997 40.0315C31.3427 40.0369 30.7856 40.0343 30.2285 40.033C30.216 40.033 30.2035 40.0268 30.1808 40.0207C30.3572 39.5999 30.5321 39.1828 30.7066 38.7656C31.3848 37.1453 32.0647 35.5258 32.7397 33.9043ZM25.9309 38.4584C26.5205 38.7092 27.1315 38.8242 27.7675 38.7056C27.932 38.6749 28.0998 38.5972 28.2375 38.5004C28.5131 38.3071 28.5358 37.9573 28.2905 37.7277C28.1527 37.5987 27.9862 37.4972 27.8233 37.3986C27.4775 37.1896 27.1064 37.0174 26.7796 36.7826C25.6781 35.9904 25.9713 34.7387 26.5823 34.1021C27.0338 33.6318 27.6031 33.4001 28.2306 33.2927C29.0014 33.1608 29.7554 33.2429 30.4921 33.4992C30.5165 33.5077 30.5397 33.5204 30.5712 33.5346C30.471 34.0024 30.3718 34.4662 30.2711 34.9361C29.7889 34.7236 29.294 34.608 28.7736 34.623C28.5449 34.6296 28.322 34.6672 28.1199 34.7847C27.7812 34.9815 27.7361 35.3208 28.0359 35.5699C28.2053 35.7106 28.4075 35.8125 28.5976 35.9271C28.902 36.1108 29.222 36.2717 29.5126 36.4751C30.3358 37.0512 30.4148 37.9386 30.0675 38.7307C29.7875 39.3695 29.2541 39.7272 28.6128 39.9388C27.994 40.1427 27.3579 40.1776 26.7132 40.1103C26.2869 40.0657 25.8669 39.9947 25.4643 39.8425C25.4232 39.8269 25.383 39.809 25.3309 39.7875C25.4361 39.2972 25.538 38.8206 25.6435 38.3293C25.7468 38.3758 25.8381 38.419 25.9309 38.4584ZM25.5625 33.3646C25.4729 33.7907 25.3861 34.2082 25.297 34.6252C24.9251 36.3648 24.5535 38.1045 24.1794 39.8436C24.1297 40.0751 24.183 40.0357 23.9361 40.0369C23.4771 40.0391 23.0181 40.0377 22.559 40.0377C22.5158 40.0377 22.4725 40.0377 22.4155 40.0377C22.8932 37.8043 23.3671 35.5884 23.8427 33.3646C24.4233 33.3646 24.988 33.3646 25.5625 33.3646ZM14.9801 33.4961C14.9941 33.4551 15.0084 33.4141 15.0265 33.3618C15.069 33.3596 15.117 33.3551 15.1652 33.3551C16.0876 33.3548 17.0103 33.354 17.9327 33.3557C18.3687 33.3563 18.6696 33.5981 18.7521 34.0278C18.9778 35.203 19.1972 36.3792 19.4194 37.5548C19.4381 37.6544 19.458 37.7539 19.4855 37.8947C19.522 37.8079 19.5443 37.7573 19.5646 37.7062C20.124 36.2915 20.6832 34.8769 21.2422 33.4621C21.2651 33.4037 21.2813 33.3529 21.3675 33.3537C21.9202 33.3585 22.4728 33.3569 23.0254 33.358C23.0418 33.358 23.0582 33.3641 23.0885 33.3703C22.9568 33.6886 22.829 34.0001 22.6991 34.3107C21.9176 36.1778 21.1347 38.0441 20.3562 39.9124C20.3149 40.0113 20.2646 40.0428 20.1594 40.0416C19.647 40.0361 19.1345 40.035 18.622 40.042C18.5064 40.0436 18.462 40.0078 18.4335 39.8969C17.9904 38.1648 17.5392 36.4349 17.0995 34.7021C17.0224 34.3972 16.8679 34.1861 16.5789 34.0569C16.0644 33.827 15.5311 33.662 14.9801 33.5496C14.9801 33.5318 14.9801 33.514 14.9801 33.4961Z" fill="white"/>
</svg>
